<?xml version="1.0" standalone="no"?>
<!DOCTYPE svg PUBLIC "-//W3C//DTD SVG 1.1//EN" "http://www.w3.org/Graphics/SVG/1.1/DTD/svg11.dtd" >
<svg>
<metadata>
Created by FontForge 20090622 at Sun Oct 21 21:54:30 2018
 By deploy user
Copyright &#194;&#169; 2002, The Font Bureau, Inc. All rights reserved.
</metadata>
<defs>
<font id="RelayWide-BoldItalic" horiz-adv-x="593" >
  <font-face 
    font-family="RelayWide-BoldItalic"
    font-weight="400"
    font-style="italic"
    font-stretch="normal"
    units-per-em="1000"
    panose-1="2 0 8 3 5 0 0 9 0 4"
    ascent="800"
    descent="-200"
    x-height="471"
    cap-height="705"
    bbox="-72 -199.103 1498 941"
    underline-thickness="20"
    underline-position="-123"
    unicode-range="U+0020-U+FB02"
  />
<missing-glyph horiz-adv-x="500" 
 />
    <glyph glyph-name=".notdef" horiz-adv-x="500" 
 />
    <glyph glyph-name=".null" horiz-adv-x="0" 
 />
    <glyph glyph-name="nonmarkingreturn" horiz-adv-x="500" 
 />
    <glyph glyph-name="space" unicode=" " horiz-adv-x="304" 
 />
    <glyph glyph-name="exclam" unicode="!" horiz-adv-x="416" 
d="M130 212h148l69 493h-148zM186 -5q38 0 63 25t25 65q0 38 -25 63.5t-63 25.5q-37 0 -62.5 -25.5t-25.5 -63.5q0 -40 25.5 -65t62.5 -25z" />
    <glyph glyph-name="quotedbl" unicode="&#x22;" horiz-adv-x="531" 
d="M335 435h131l37 265h-131zM119 435h132l37 265h-132z" />
    <glyph glyph-name="numbersign" unicode="#" horiz-adv-x="643" 
d="M77 0h103l64 205h95l-64 -205h104l64 205h161l15 106h-143l25 77h129l15 106h-112l63 206h-104l-64 -206h-94l62 206h-103l-63 -206h-160l-14 -106h143l-25 -77h-130l-15 -106h112zM267 305l29 90h110l-29 -90h-110z" />
    <glyph glyph-name="dollar" unicode="$" horiz-adv-x="625" 
d="M333 -5q72 4 120 24.5t76.5 51t40.5 68t12 75.5q0 40 -17 70t-44 53t-61.5 40t-68.5 32l24 170q33 -5 67.5 -15t68.5 -27l57 116q-18 10 -62 25t-114 23l12 83h-95l-11 -79q-53 -1 -97.5 -13.5t-77 -37.5t-51 -63t-18.5 -90q0 -41 16.5 -72t43 -54.5t60 -41.5t67.5 -33
l-26 -185q-64 8 -110.5 27.5t-76.5 36.5l-64 -108q33 -23 91 -44.5t143 -29.5l-11 -81h95zM302 448q-28 15 -45 31.5t-17 39.5q0 30 19 46.5t62 18.5zM370 260q30 -16 48.5 -33t18.5 -40q0 -32 -19.5 -51t-68.5 -24z" />
    <glyph glyph-name="percent" unicode="%" horiz-adv-x="1087" 
d="M264 250q38 0 78.5 15t73.5 46.5t54.5 80t21.5 116.5q0 46 -15 83t-40.5 62t-59.5 38.5t-72 13.5t-78.5 -15.5t-73.5 -47t-54.5 -80t-21.5 -114.5q0 -47 15 -84t40.5 -62.5t59.5 -38.5t72 -13zM259 0h114l489 700h-115zM814 -6q38 0 78.5 15t73.5 46t54.5 79.5
t21.5 116.5q0 47 -15 83.5t-40.5 62t-59.5 39t-72 13.5t-78 -15.5t-73.5 -47.5t-55 -80.5t-21.5 -114.5q0 -47 15 -84t40.5 -62t59.5 -38t72 -13zM272 357q-38 0 -56.5 25.5t-18.5 66.5q0 66 28 107t70 41q39 0 57.5 -26.5t18.5 -68.5q0 -67 -27 -106t-72 -39zM822 101
q-38 0 -56 25t-18 67q0 66 27.5 106.5t69.5 40.5q39 0 58 -26.5t19 -68.5q0 -66 -27.5 -105t-72.5 -39z" />
    <glyph glyph-name="ampersand" unicode="&#x26;" horiz-adv-x="783" 
d="M603 170q38 47 73 105.5t67 130.5l-123 45l-42 -86.5t-40 -71.5l-149 280h249l19 132h-491l-4 -21l119 -223q-55 -19 -100 -46t-77.5 -62.5t-50 -78.5t-17.5 -94q0 -49 18.5 -85t50.5 -59.5t74 -35t89 -11.5q122 0 225 75l34 -64h167zM437 169q-61 -49 -141 -49
q-56 0 -81.5 23.5t-25.5 60.5q0 51 39.5 93t105.5 65z" />
    <glyph glyph-name="quoteright" unicode="&#x2019;" horiz-adv-x="347" 
d="M98 418h108l142 287h-163z" />
    <glyph glyph-name="parenleft" unicode="(" horiz-adv-x="442" 
d="M186 -84l146 40q-18 23 -37.5 55t-35 72.5t-25.5 88t-10 102.5q0 82 21.5 155t54.5 133.5t71.5 108t72.5 79.5l-136 41q-39 -35 -79.5 -86.5t-74 -117t-55 -145.5t-21.5 -172q0 -60 9.5 -113t25 -98t34.5 -81.5t39 -61.5z" />
    <glyph glyph-name="parenright" unicode=")" horiz-adv-x="442" 
d="M166 -84q39 35 79.5 86.5t74 117t55 145.5t21.5 172q0 60 -9.5 113t-25 98t-35 81t-38.5 62l-146 -40q18 -23 37.5 -55t35 -72.5t25.5 -88t10 -102.5q0 -83 -21.5 -155.5t-54.5 -133t-71.5 -108t-72.5 -79.5z" />
    <glyph glyph-name="asterisk" unicode="*" horiz-adv-x="586" 
d="M388 196l102 56l-88 159l178 29l-19 116l-177 -38l31 182l-114 17l-20 -183l-158 86l-51 -106l163 -76l-129 -130l81 -82l122 136z" />
    <glyph glyph-name="plus" unicode="+" horiz-adv-x="641" 
d="M393 283h173v127h-173v166h-144v-166h-172v-127h172v-167h144v167z" />
    <glyph glyph-name="comma" unicode="," horiz-adv-x="341" 
d="M-4 -157h119l166 326h-179z" />
    <glyph glyph-name="hyphen" unicode="-" horiz-adv-x="516" 
d="M75 227h362l18 130h-362z" />
    <glyph glyph-name="hyphen" unicode="&#xad;" horiz-adv-x="516" 
d="M75 227h362l18 130h-362z" />
    <glyph glyph-name="period" unicode="." horiz-adv-x="341" 
d="M149 -7q42 0 69.5 27.5t27.5 72.5q0 41 -27.5 68.5t-69.5 27.5q-40 0 -68 -27.5t-28 -68.5q0 -45 28 -72.5t68 -27.5z" />
    <glyph glyph-name="slash" unicode="/" horiz-adv-x="545" 
d="M-10 0h145l451 705h-146z" />
    <glyph glyph-name="zero" unicode="0" horiz-adv-x="728" 
d="M346 -6q58 0 120 23.5t113 73t83.5 125.5t32.5 182q0 73 -23 130.5t-61.5 97t-90 60t-108.5 20.5t-118.5 -24t-112.5 -73.5t-84 -125.5t-33 -180q0 -74 22.5 -131.5t61.5 -97t90 -60t108 -20.5zM358 126q-71 0 -105.5 48.5t-34.5 129.5q0 54 12 102.5t35.5 84.5t57 57.5
t76.5 21.5q72 0 106.5 -48t34.5 -127q0 -63 -13.5 -113t-37.5 -84.5t-57.5 -53t-73.5 -18.5z" />
    <glyph glyph-name="one" unicode="1" horiz-adv-x="433" 
d="M129 0h152l98 700h-270l-19 -133h119z" />
    <glyph glyph-name="two" unicode="2" horiz-adv-x="596" 
d="M-12 0h537l17 121h-275l37 35q72 65 119.5 113.5t76.5 89t41 77t12 75.5q0 51 -22 88t-61 60.5t-93 34.5t-118 11q-48 0 -92.5 -7t-73.5 -15l18 -125q24 6 61 10.5t74 4.5q84 0 117.5 -22.5t33.5 -58.5q0 -26 -10.5 -50.5t-37 -58.5t-73 -81.5l-118.5 -117.5l-167 -162z
" />
    <glyph glyph-name="three" unicode="3" horiz-adv-x="581" 
d="M134 -2q199 0 303 59.5t104 192.5q0 49 -19 86t-47 63t-58.5 42t-52.5 22l204 216l2 21h-482l-17 -125h242l-154 -162l-2 -20q49 -6 91 -17t73 -28.5t48.5 -41.5t17.5 -55q0 -68 -56 -99t-186 -31q-60 0 -130 6l-18 -124q37 -2 71 -3.5t66 -1.5z" />
    <glyph glyph-name="four" unicode="4" horiz-adv-x="673" 
d="M523 257l63 448h-107l-463 -478l-13 -89h355l-19 -138h148l19 138h132l16 119h-131zM375 257h-187l218 226z" />
    <glyph glyph-name="five" unicode="5" horiz-adv-x="597" 
d="M148 -2q198 0 302.5 59.5t104.5 192.5q0 104 -79 166t-251 76l18 83h307l17 125h-435l-63 -320q88 -2 151 -10.5t103 -24t59 -39t19 -55.5q0 -68 -55 -99t-176 -31q-38 0 -72.5 1.5t-69.5 4.5l-17 -124q37 -2 71 -3.5t66 -1.5z" />
    <glyph glyph-name="six" unicode="6" horiz-adv-x="669" 
d="M253 444q38 57 92.5 104.5t116.5 89.5l-109 79q-60 -38 -115.5 -87.5t-98 -108t-68.5 -124t-26 -135.5q0 -67 22.5 -117t62.5 -83.5t95 -50.5t121 -17q51 0 103.5 14t96 45t71 80.5t27.5 120.5q0 63 -24.5 104t-61.5 65.5t-81 34t-83 9.5q-37 0 -73 -6t-68 -17zM199 316
q29 14 68.5 23.5t84.5 9.5q29 0 54.5 -6t45 -18.5t31 -33t11.5 -49.5q0 -32 -12 -54.5t-32 -37t-45.5 -21t-51.5 -6.5q-73 0 -116.5 35t-43.5 98q0 31 6 60z" />
    <glyph glyph-name="seven" unicode="7" horiz-adv-x="571" 
d="M59 0h156l393 678l2 22h-524l-17 -125h323z" />
    <glyph glyph-name="eight" unicode="8" horiz-adv-x="695" 
d="M347 -9q66 0 120.5 16t94 45.5t61 70.5t21.5 91q0 58 -29 98.5t-81 61.5q48 17 80 58.5t32 100.5q0 39 -19 71t-54 55t-84 36t-109 13q-59 0 -106.5 -13.5t-81 -37.5t-51.5 -57t-18 -72q-1 -45 21.5 -79t58.5 -54q-33 -8 -62.5 -25.5t-51.5 -42.5t-35 -57.5t-13 -70.5
q0 -43 20.5 -80.5t59.5 -66t96 -45t130 -16.5zM384 425q-56 0 -83.5 21t-27.5 56q0 38 29.5 63.5t80.5 25.5q54 0 84 -25t30 -59q0 -39 -31 -60.5t-82 -21.5zM347 103q-68 0 -110 26t-42 78q0 26 12 46.5t32.5 34.5t47.5 21.5t57 7.5q63 0 104.5 -28t41.5 -76
q0 -55 -40.5 -82.5t-102.5 -27.5z" />
    <glyph glyph-name="nine" unicode="9" horiz-adv-x="668" 
d="M448 254q-38 -56 -92.5 -104t-117.5 -90l109 -79q60 38 115.5 88t98 108.5t68.5 125t26 137.5q0 66 -22.5 115.5t-62.5 83t-95.5 50t-120.5 16.5q-51 0 -103.5 -14t-96 -45t-71 -81t-27.5 -121q0 -63 24.5 -104.5t62 -65.5t80.5 -33.5t81 -9.5t75 6t69 17zM501 378
q-29 -13 -68.5 -22.5t-83.5 -9.5q-63 0 -103 25.5t-40 79.5q0 33 12 56t32 37.5t45 21t52 6.5q73 0 116.5 -35.5t43.5 -98.5q0 -32 -6 -60z" />
    <glyph glyph-name="colon" unicode=":" horiz-adv-x="353" 
d="M196 286q41 0 67 26.5t26 68.5q0 40 -26 66.5t-67 26.5q-19 0 -35.5 -7t-29 -19.5t-19.5 -29.5t-7 -37q0 -42 26.5 -68.5t64.5 -26.5zM155 -7q41 0 67 26t26 69q0 39 -26 65.5t-67 26.5q-38 0 -64.5 -26.5t-26.5 -65.5q0 -43 26.5 -69t64.5 -26z" />
    <glyph glyph-name="semicolon" unicode=";" horiz-adv-x="353" 
d="M196 286q41 0 67 26.5t26 68.5q0 40 -26 66.5t-67 26.5q-19 0 -35.5 -7t-29 -19.5t-19.5 -29.5t-7 -37q0 -42 26.5 -68.5t64.5 -26.5zM-9 -150h115l159 312h-172z" />
    <glyph glyph-name="semicolon" unicode="&#x37e;" horiz-adv-x="353" 
d="M196 286q41 0 67 26.5t26 68.5q0 40 -26 66.5t-67 26.5q-19 0 -35.5 -7t-29 -19.5t-19.5 -29.5t-7 -37q0 -42 26.5 -68.5t64.5 -26.5zM-9 -150h115l159 312h-172z" />
    <glyph glyph-name="less" unicode="&#x3c;" horiz-adv-x="499" 
d="M425 91v139l-171 119l171 121v139l-355 -242v-36z" />
    <glyph glyph-name="equal" unicode="=" horiz-adv-x="574" 
d="M90 387h418v116h-418v-116zM90 156h418v116h-418v-116z" />
    <glyph glyph-name="greater" unicode="&#x3e;" horiz-adv-x="499" 
d="M104 91l356 242v35l-356 241v-139l172 -120l-172 -120v-139z" />
    <glyph glyph-name="question" unicode="?" horiz-adv-x="651" 
d="M188 208h147l8 63q44 4 90.5 17.5t84.5 39.5t62 67.5t24 103.5q0 43 -18 75.5t-48 56.5t-69.5 39.5t-82 24.5t-86 13t-80.5 4q-21 0 -39 -1t-35 -3l-2 -129h34q42 0 90 -4.5t89.5 -16t68.5 -31.5t27 -52q0 -30 -14.5 -50.5t-44 -32.5t-75.5 -17.5t-109 -6.5zM242 -5
q38 0 63.5 25t25.5 66q0 38 -25.5 63t-63.5 25q-36 0 -62 -25t-26 -63q0 -41 26 -66t62 -25z" />
    <glyph glyph-name="at" unicode="@" horiz-adv-x="910" 
d="M556 442q-21 12 -49 21t-69 9q-52 0 -93 -18.5t-70 -51.5t-44.5 -78t-15.5 -97q0 -38 11 -72t34 -60t57 -41.5t81 -15.5q44 0 81.5 14t63.5 35q20 -23 50.5 -34t68.5 -11q102 0 154.5 57.5t52.5 167.5q0 82 -28 154.5t-80.5 126.5t-128 85.5t-170.5 31.5
q-93 0 -168.5 -31t-129 -85t-82.5 -126.5t-29 -155.5q0 -84 27 -155.5t79.5 -124.5t129 -83t175.5 -30q33 0 70 4t73 11.5t68.5 17.5t56.5 21l-19 57q-53 -20 -119 -33t-130 -13q-85 0 -148.5 24.5t-106 68t-63.5 103.5t-21 132q0 71 22.5 132t65.5 105.5t105.5 70
t143.5 25.5q82 0 145 -25.5t106 -70t65 -105.5t22 -132q0 -83 -26 -116.5t-72 -33.5q-37 0 -50 23.5t-6 70.5l36 260h-114zM513 170q-15 -6 -31.5 -9.5t-36.5 -3.5q-47 0 -70 23t-23 59q0 51 30 80t86 29q19 0 33 -2.5t30 -7.5l-16 -113q-5 -32 -2 -55z" />
    <glyph glyph-name="A" unicode="A" horiz-adv-x="761" 
d="M202 105h318l34 -105h160l-247 714h-49l-438 -714h160zM479 228h-205l132 223z" />
    <glyph glyph-name="B" unicode="B" horiz-adv-x="707" 
d="M50 0h213q94 0 166.5 10.5t122 34.5t75.5 64.5t26 100.5q0 36 -12 62.5t-33.5 46t-51 31.5t-63.5 18q36 4 66.5 16t53.5 32.5t36 49t13 65.5q0 93 -97 133.5t-277 40.5h-139zM263 425l21 156h29q53 0 89 -4.5t58 -13.5t31.5 -23t9.5 -34q0 -47 -41.5 -64t-136.5 -17h-60z
M219 120l26 184h19q63 0 107.5 -5t72.5 -15.5t40.5 -27t12.5 -40.5q0 -26 -10.5 -44t-35 -29.5t-65 -17t-100.5 -5.5h-67z" />
    <glyph glyph-name="C" unicode="C" horiz-adv-x="697" 
d="M407 -13q32 0 63 4t58.5 10.5t49.5 13.5t35 13l-31 130q-9 -3 -25.5 -9t-38.5 -11t-47 -9t-50 -4q-53 0 -91 15.5t-62 42t-35 62.5t-11 78q1 56 19.5 102.5t51.5 79.5t77.5 51.5t97.5 18.5q48 0 91.5 -10t85.5 -29l63 131q-11 7 -32 16t-51 17t-70 13.5t-89 5.5
q-70 0 -141 -24.5t-129 -75t-95 -128t-38 -183.5q-1 -77 24.5 -136.5t71.5 -100.5t109.5 -62.5t138.5 -21.5z" />
    <glyph glyph-name="D" unicode="D" horiz-adv-x="755" 
d="M50 0h138q115 0 213.5 19t169.5 63.5t111.5 118.5t40.5 184q0 80 -34 140t-97 100t-151.5 60t-196.5 20h-95zM226 140l59 420h7q134 0 202.5 -49t68.5 -144q0 -62 -21 -105t-60 -70t-94 -39.5t-124 -12.5h-38z" />
    <glyph glyph-name="E" unicode="E" horiz-adv-x="633" 
d="M50 0h492l19 138h-338l21 148h259l19 135h-259l20 141h328l20 143h-482z" />
    <glyph glyph-name="F" unicode="F" horiz-adv-x="601" 
d="M50 0h155l35 253h269l19 135h-269l25 174h327l20 143h-482z" />
    <glyph glyph-name="G" unicode="G" horiz-adv-x="749" 
d="M389 -11q41 0 79 5t71 13t58.5 17t41.5 18l42 295h-152l-27 -197q-16 -6 -42 -10.5t-59 -4.5q-85 0 -132 48.5t-47 136.5q0 60 17.5 109t50.5 83.5t79.5 53.5t104.5 19q51 0 97 -11t82 -28l62 134q-10 6 -31 14t-51 16t-68.5 13.5t-83.5 5.5q-73 0 -147.5 -24
t-134.5 -74.5t-98 -129t-38 -188.5q0 -77 24.5 -135.5t68 -98t103 -60t130.5 -20.5z" />
    <glyph glyph-name="H" unicode="H" horiz-adv-x="799" 
d="M50 0h156l41 287h320l-41 -287h156l99 705h-156l-38 -275h-320l38 275h-156z" />
    <glyph glyph-name="I" unicode="I" horiz-adv-x="334" 
d="M55 0h156l99 705h-156z" />
    <glyph glyph-name="J" unicode="J" horiz-adv-x="444" 
d="M135 -5q43 0 80.5 10t67 35.5t50 69t29.5 109.5l68 486h-155l-64 -451q-5 -33 -12 -56.5t-17.5 -37.5t-26.5 -20.5t-38 -6.5q-23 0 -43.5 3.5t-46.5 10.5l-31 -134q23 -6 59.5 -12t79.5 -6z" />
    <glyph glyph-name="K" unicode="K" horiz-adv-x="718" 
d="M269 450l36 255h-156l-99 -705h156l36 254l59 55l184 -309h175l-247 412l320 293h-188z" />
    <glyph glyph-name="L" unicode="L" horiz-adv-x="596" 
d="M50 0h484l19 138h-327l79 567h-156z" />
    <glyph glyph-name="M" unicode="M" horiz-adv-x="915" 
d="M29 0h148l73 355l147 -317h41l250 316l-28 -354h159l50 714h-56l-359 -456l-222 456h-52z" />
    <glyph glyph-name="N" unicode="N" horiz-adv-x="795" 
d="M635 -6h42l99 711h-149l-56 -406l-370 412h-51l-100 -711h150l59 413z" />
    <glyph glyph-name="O" unicode="O" horiz-adv-x="837" 
d="M404 -15q64 0 134.5 23t130 72t98 124t38.5 180q0 79 -29 141t-76.5 105.5t-108.5 66.5t-125 23q-65 0 -135.5 -23.5t-130 -72.5t-98 -125t-38.5 -181q0 -79 29 -141t77 -104.5t109 -65t125 -22.5zM419 125q-46 0 -82.5 15.5t-62 43t-39 64.5t-13.5 81q0 57 19.5 102.5
t51.5 77t73 48.5t84 17q46 0 82.5 -15.5t62 -42.5t39 -64t13.5 -81q0 -57 -19.5 -102.5t-51.5 -77.5t-73 -49t-84 -17z" />
    <glyph glyph-name="P" unicode="P" horiz-adv-x="694" 
d="M50 0h153l27 196h52q97 0 172.5 15.5t127.5 48.5t79 85.5t27 126.5q0 56 -24.5 99.5t-77 73t-133.5 45t-193 15.5h-111zM249 332l33 234h16q66 0 110.5 -7.5t71 -22t38 -35t11.5 -46.5q0 -29 -9.5 -52t-34.5 -38.5t-68.5 -24t-111.5 -8.5h-56z" />
    <glyph glyph-name="Q" unicode="Q" horiz-adv-x="837" 
d="M597 37q42 21 79.5 53t66 75t45.5 97.5t17 121.5q0 78 -28.5 140.5t-76 106t-108.5 66.5t-126 23t-135.5 -23.5t-130 -72.5t-98 -125t-38.5 -181q0 -79 29 -140t77 -103t109 -64t125 -22q14 0 28.5 1t29.5 3l46 -118h151zM413 121q-45 1 -80 17.5t-60 44.5t-38 65.5
t-13 80.5q0 57 19.5 102.5t51.5 77t73 48.5t84 17q46 0 82.5 -15.5t62 -42.5t39 -64t13.5 -81q0 -70 -26.5 -123.5t-71.5 -85.5l-47 125h-152z" />
    <glyph glyph-name="R" unicode="R" horiz-adv-x="717" 
d="M504 246q88 32 128 90.5t40 143.5q0 54 -24.5 96t-75 70.5t-128.5 43.5t-187 15h-108l-99 -705h153l29 213h34q46 0 87 3l126 -216h167zM251 342l31 224h13q63 0 105 -7.5t67 -21.5t35.5 -34t10.5 -45q0 -28 -11.5 -49.5t-38.5 -36.5t-70.5 -22.5t-107.5 -7.5h-34z" />
    <glyph glyph-name="S" unicode="S" horiz-adv-x="679" 
d="M309 -10q89 0 150.5 16.5t99.5 46t54.5 71t16.5 91.5q0 49 -21.5 83t-55.5 57t-75.5 39t-80.5 29q-27 9 -51 18t-42.5 19.5t-29 23t-10.5 29.5q0 20 9 32.5t24.5 20t35 10.5t40.5 3q71 0 124.5 -11.5t95.5 -26.5l59 131q-12 6 -34.5 13t-54.5 14t-73 11.5t-90 4.5
q-67 0 -121.5 -12.5t-93.5 -39t-60 -67.5t-21 -99q0 -50 22 -83.5t56 -57t75.5 -39.5t81.5 -29l51 -17.5t42 -19t28.5 -24t10.5 -30.5q0 -44 -34 -59.5t-92 -15.5q-42 0 -81.5 5.5t-74.5 14t-63 18.5t-46 18l-67 -125q19 -11 49 -22t68.5 -20t83.5 -15t95 -6z" />
    <glyph glyph-name="T" unicode="T" horiz-adv-x="677" 
d="M307 562l-79 -562h158l79 562h228l21 143h-619l-21 -143h233z" />
    <glyph glyph-name="U" unicode="U" horiz-adv-x="784" 
d="M372 -14q141 0 229 72.5t109 224.5l60 422h-150l-55 -397q-14 -96 -55.5 -139t-120.5 -43q-92 0 -123.5 48t-19.5 137l55 394h-156l-58 -415q-20 -144 54.5 -224t230.5 -80z" />
    <glyph glyph-name="V" unicode="V" horiz-adv-x="761" 
d="M325 -9h49l439 714h-163l-261 -442l-147 442h-163z" />
    <glyph glyph-name="W" unicode="W" horiz-adv-x="1041" 
d="M285 -9h41l215 404l108 -404h40l404 714h-150l-235 -413l-107 390h-39l-211 -382l-113 405h-160z" />
    <glyph glyph-name="X" unicode="X" horiz-adv-x="747" 
d="M419 477l-125 228h-171l176 -322l-299 -383h163l201 264l145 -264h171l-196 358l272 347h-164z" />
    <glyph glyph-name="Y" unicode="Y" horiz-adv-x="727" 
d="M288 249l-35 -249h155l37 262l334 443h-171l-227 -307l-136 307h-166z" />
    <glyph glyph-name="Z" unicode="Z" horiz-adv-x="685" 
d="M3 0h602l19 139h-348l424 545l3 21h-563l-20 -143h304l-418 -540z" />
    <glyph glyph-name="bracketleft" unicode="[" horiz-adv-x="446" 
d="M38 -75h310l17 116h-162l87 618h162l17 122h-310z" />
    <glyph glyph-name="backslash" unicode="\" horiz-adv-x="547" 
d="M343 0h145l-253 705h-145z" />
    <glyph glyph-name="bracketright" unicode="]" horiz-adv-x="446" 
d="M9 -75h310l121 856h-310l-17 -122h162l-87 -618h-162z" />
    <glyph glyph-name="asciicircum" unicode="^" horiz-adv-x="534" 
d="M84 282h379l16 115h-379z" />
    <glyph glyph-name="underscore" unicode="_" horiz-adv-x="523" 
d="M-72 -169h551l16 114h-551z" />
    <glyph glyph-name="quoteleft" unicode="&#x2018;" horiz-adv-x="347" 
d="M192 418h108l-7 287h-163z" />
    <glyph glyph-name="a" unicode="a" 
d="M418 434q-24 14 -56.5 25.5t-80.5 11.5q-57 0 -102.5 -20.5t-77 -57t-48.5 -85.5t-17 -106q0 -42 12 -79.5t36.5 -66t62.5 -45.5t89 -17q33 0 66.5 11t56.5 25l3 -30h127l66 471h-123zM362 136q-16 -6 -34 -9.5t-40 -3.5q-52 0 -77.5 26t-25.5 66q0 57 33.5 89t94.5 32
q23 0 39.5 -2.5t36.5 -9.5z" />
    <glyph glyph-name="b" unicode="b" horiz-adv-x="599" 
d="M175 30q26 -14 59.5 -25t81.5 -11q57 0 103 20.5t77.5 56.5t48.5 85.5t17 106.5q0 42 -12 79.5t-37 66t-63 45.5t-89 17q-29 0 -60.5 -9.5t-55.5 -21.5l39 281h-146l-101 -721h125zM228 320q17 7 37 11t44 4q52 0 77.5 -25.5t25.5 -65.5q0 -57 -33.5 -88.5t-94.5 -31.5
q-24 0 -43 2.5t-39 9.5z" />
    <glyph glyph-name="c" unicode="c" horiz-adv-x="480" 
d="M269 -6q45 0 84 9.5t62 20.5l-24 118q-18 -8 -45.5 -14.5t-54.5 -6.5q-55 0 -79.5 26t-24.5 71q0 60 35 94.5t92 34.5q29 0 55 -7t42 -16l60 121q-25 13 -63 22.5t-98 9.5q-58 0 -108 -19t-86.5 -54.5t-57.5 -85.5t-21 -113q0 -102 63 -156.5t169 -54.5z" />
    <glyph glyph-name="d" unicode="d" horiz-adv-x="599" 
d="M411 441q-24 12 -56 21t-74 9q-57 0 -102.5 -20.5t-77 -56.5t-48.5 -85.5t-17 -106.5q0 -42 12 -79.5t36.5 -66t62.5 -45.5t90 -17q33 0 69 11.5t59 25.5l3 -31h127l102 721h-147zM369 139q-35 -15 -80 -15q-53 0 -78.5 25.5t-25.5 65.5q0 57 33.5 88.5t94.5 31.5
q24 0 42.5 -2.5t38.5 -9.5z" />
    <glyph glyph-name="e" unicode="e" horiz-adv-x="549" 
d="M179 181h326q10 86 -2.5 143t-41 91t-71 48t-91.5 14q-39 0 -85.5 -14.5t-86.5 -47t-66.5 -84.5t-26.5 -126q0 -100 66 -155.5t183 -55.5q21 0 46 2.5t49 6t45 8.5t35 11l-17 109q-11 -4 -27 -8t-35 -7t-38.5 -4.5t-36.5 -1.5q-57 0 -87 18.5t-38 52.5zM186 278
q14 44 42.5 65.5t65.5 21.5q45 0 65 -20t19 -67h-192z" />
    <glyph glyph-name="f" unicode="f" horiz-adv-x="402" 
d="M128 355l-82 -548h145l83 548h121l16 116h-119l9 61q5 38 23.5 52t46.5 14q29 0 65 -11l44 120q-28 8 -58 14t-65 6t-67.5 -7.5t-59 -25.5t-45 -48.5t-25.5 -75.5l-15 -99h-91l-16 -116h90z" />
    <glyph glyph-name="g" unicode="g" horiz-adv-x="601" 
d="M352 23q-4 -28 -9.5 -48t-19 -33t-38 -18t-65.5 -3q-20 1 -41 4.5t-40.5 8t-36 9.5t-27.5 9l-39 -111q29 -10 79.5 -22.5t111.5 -16.5q68 -4 115.5 6.5t79 37t49.5 70t27 106.5l64 449h-123l-15 -37q-25 14 -59 25.5t-82 11.5q-57 0 -103 -20.5t-77.5 -56.5t-48.5 -85.5
t-17 -106.5q0 -42 12 -79.5t37 -66t63 -45.5t89 -17q29 0 59.5 9t54.5 20zM394 324l-26 -186q-17 -7 -36 -10.5t-42 -3.5q-52 0 -77.5 25.5t-25.5 65.5q0 57 33.5 88.5t94.5 31.5q23 0 41 -2.5t38 -8.5z" />
    <glyph glyph-name="h" unicode="h" horiz-adv-x="600" 
d="M227 317q18 7 39.5 12t50.5 5q28 0 44 -6t23.5 -19t7.5 -34q0 -20 -4 -48l-32 -227h146l37 263q7 48 1.5 86.5t-24 65.5t-52 41.5t-82.5 14.5q-37 0 -74 -11.5t-64 -22.5l40 284h-146l-101 -721h146z" />
    <glyph glyph-name="i" unicode="i" horiz-adv-x="297" 
d="M200 526q16 0 32 7t28 19t19.5 27t7.5 32q0 19 -7.5 36t-19.5 29t-28 19t-32 7q-35 0 -60.5 -26t-25.5 -65q0 -17 7 -32t18.5 -27t27 -19t33.5 -7zM42 0h145l67 471h-146z" />
    <glyph glyph-name="j" unicode="j" horiz-adv-x="297" 
d="M200 526q16 0 32 7t28 19t19.5 27t7.5 32q0 19 -7.5 36t-19.5 29t-28 19t-32 7q-35 0 -60.5 -26t-25.5 -65q0 -17 7 -32t18.5 -27t27 -19t33.5 -7zM13 -193h145l96 664h-146z" />
    <glyph glyph-name="k" unicode="k" horiz-adv-x="552" 
d="M206 165l34 30l107 -195h159l-161 288l205 183h-164l-157 -139l55 389h-146l-101 -721h146z" />
    <glyph glyph-name="l" unicode="l" horiz-adv-x="297" 
d="M42 0h146l101 721h-146z" />
    <glyph glyph-name="m" unicode="m" horiz-adv-x="896" 
d="M505 421q-17 24 -48 37t-79 13q-40 0 -78 -13t-64 -25v38h-133l-66 -471h146l44 317q17 7 37 12t49 5q28 0 43 -6t21.5 -19t5.5 -33.5t-5 -48.5l-32 -227h146l37 263q2 14 3 28t1 27q17 6 37.5 11t48.5 5t43 -6t21.5 -19t5.5 -33.5t-5 -48.5l-31 -227h145l37 263
q7 48 2.5 86.5t-22 65.5t-50 41.5t-81.5 14.5q-24 0 -48.5 -4.5t-48.5 -11.5t-45 -16t-37 -18z" />
    <glyph glyph-name="n" unicode="n" horiz-adv-x="600" 
d="M236 433v38h-133l-66 -471h146l44 317q18 7 39.5 12t50.5 5q28 0 44 -6t23.5 -19t7.5 -34q0 -20 -4 -48l-32 -227h146l37 263q7 48 1.5 86.5t-24 65.5t-52 41.5t-82.5 14.5q-20 0 -40.5 -3.5t-39.5 -9.5t-36 -12.5t-30 -12.5z" />
    <glyph glyph-name="o" unicode="o" horiz-adv-x="581" 
d="M270 -6q43 0 91.5 14t89 45t67.5 80.5t27 120.5q0 52 -19.5 93.5t-52.5 70.5t-76 44t-89 15q-43 0 -91 -15t-88.5 -47t-67 -82t-26.5 -120q0 -53 19.5 -93.5t52 -68.5t75 -42.5t88.5 -14.5zM283 122q-48 0 -73 28t-25 69q0 27 9 49.5t24.5 38.5t36 25t43.5 9
q46 0 71.5 -28t25.5 -70q0 -28 -9.5 -50.5t-25 -38t-36 -24t-41.5 -8.5z" />
    <glyph glyph-name="p" unicode="p" horiz-adv-x="599" 
d="M236 436v35h-133l-93 -664h146l30 217q24 -12 55.5 -21t74.5 -9q57 0 103 20.5t77.5 56.5t48.5 85.5t17 106.5q0 42 -12 79.5t-37 66t-62.5 45.5t-89.5 17q-32 0 -66.5 -10.5t-58.5 -24.5zM202 136l25 184q18 7 37.5 11t44.5 4q52 0 77.5 -25.5t25.5 -65.5
q0 -57 -33.5 -88.5t-94.5 -31.5q-24 0 -43 2.5t-39 9.5z" />
    <glyph glyph-name="q" unicode="q" horiz-adv-x="598" 
d="M351 23l-31 -216h147l93 664h-123l-14 -37q-25 14 -59.5 25.5t-82.5 11.5q-57 0 -102.5 -20.5t-77 -56.5t-48.5 -85.5t-17 -106.5q0 -42 12 -79.5t36.5 -66t62.5 -45.5t90 -17q29 0 59.5 9t54.5 20zM393 323l-26 -185q-17 -7 -36 -10.5t-42 -3.5q-53 0 -78.5 25.5
t-25.5 65.5q0 57 33.5 88.5t94.5 31.5q23 0 41.5 -2.5t38.5 -9.5z" />
    <glyph glyph-name="r" unicode="r" horiz-adv-x="393" 
d="M236 415v56h-133l-66 -471h146l40 291q29 18 63.5 31t87.5 21l19 136q-48 -8 -88.5 -26.5t-68.5 -37.5z" />
    <glyph glyph-name="s" unicode="s" horiz-adv-x="529" 
d="M235 -6q115 0 178.5 38.5t63.5 122.5q0 39 -19.5 63.5t-49 39.5t-64 23.5t-64 15t-49 14t-19.5 20.5q0 19 15 24t49 5q22 0 45.5 -2.5t46 -7t41.5 -9.5t33 -11l45 113q-32 14 -80.5 24t-121.5 10q-49 0 -89 -10.5t-68.5 -30t-44 -49t-15.5 -66.5q0 -41 19.5 -66.5
t49 -40.5t63.5 -23.5t63.5 -14.5t49 -13.5t19.5 -21.5q0 -20 -17.5 -25.5t-63.5 -5.5q-25 0 -54 3.5t-56 9t-48.5 12t-32.5 11.5l-44 -112q25 -12 81.5 -26t137.5 -14z" />
    <glyph glyph-name="t" unicode="t" horiz-adv-x="427" 
d="M115 355l-23 -163q-9 -61 0.5 -99.5t32.5 -60.5t56.5 -30t72.5 -8q32 0 60.5 3t45.5 7l3 109q-32 -3 -60 -3q-42 0 -57 17t-8 65l23 163h130l16 116h-130l21 150h-146l-21 -150h-83l-17 -116h84z" />
    <glyph glyph-name="u" unicode="u" horiz-adv-x="596" 
d="M367 143q-17 -6 -38 -11t-48 -5q-28 0 -44 6t-23.5 19t-7.5 33t4 49l33 237h-146l-38 -269q-14 -97 22.5 -152.5t135.5 -55.5q20 0 40.5 3.5t40 9.5t36.5 12.5t30 12.5l3 -32h125l67 471h-146z" />
    <glyph glyph-name="v" unicode="v" horiz-adv-x="545" 
d="M205 -6h65l302 477h-149l-151 -248l-82 248h-151z" />
    <glyph glyph-name="w" unicode="w" horiz-adv-x="795" 
d="M194 -6h46l159 253l86 -253h47l289 477h-144l-144 -241l-84 241h-29l-151 -241l-77 241h-153z" />
    <glyph glyph-name="x" unicode="x" horiz-adv-x="531" 
d="M288 343l-71 128h-153l124 -224l-205 -247h149l113 145l81 -145h154l-134 240l192 231h-150z" />
    <glyph glyph-name="y" unicode="y" horiz-adv-x="543" 
d="M163 15l-119 -208h145l381 664h-146l-161 -282l-74 282h-150z" />
    <glyph glyph-name="z" unicode="z" horiz-adv-x="533" 
d="M10 0h447l16 111h-225l262 337l3 23h-407l-16 -116h184l-261 -333z" />
    <glyph glyph-name="braceleft" unicode="{" horiz-adv-x="496" 
d="M375 -77h22l16 117q-58 0 -92 5.5t-50 19t-16 36.5q0 24 11 59l23 72q17 52 -3.5 81.5t-68.5 37.5q51 8 79 38.5t27 82.5l-2 72q-1 36 6 58t27 35t55.5 17.5t91.5 4.5l17 122h-53q-68 0 -124 -11.5t-95 -36.5t-59 -66t-17 -99l4 -96q2 -27 -18.5 -45.5t-49.5 -18.5h-66
l-16 -113h66q29 0 44 -18.5t6 -45.5l-31 -95q-34 -104 33 -158.5t233 -54.5z" />
    <glyph glyph-name="bar" unicode="|" horiz-adv-x="344" 
d="M113 -75h148v856h-148v-856z" />
    <glyph glyph-name="braceright" unicode="}" horiz-adv-x="496" 
d="M10 -77h53q68 0 124 11.5t95 36.5t59 65.5t17 99.5l-4 96q-2 27 18.5 45.5t49.5 18.5h66l16 113h-66q-29 0 -44 18.5t-6 45.5l31 95q34 104 -33 158.5t-233 54.5h-22l-17 -121q58 0 92.5 -5.5t50 -19t15.5 -37.5q0 -23 -11 -58l-23 -72q-16 -52 4 -82t68 -38
q-51 -8 -79 -38t-27 -82l2 -72q1 -36 -6 -58t-27 -35t-55.5 -17.5t-91.5 -4.5z" />
    <glyph glyph-name="asciitilde" unicode="~" horiz-adv-x="614" 
d="M256 518q11 30 22.5 42t22.5 12t24 -8l28.5 -17.5t32.5 -17.5t36 -8q28 0 48 10t36 29.5t29.5 49t27.5 68.5l-102 25q-11 -31 -21.5 -44t-24.5 -13q-11 0 -24 8t-27.5 18t-31.5 18t-36 8q-51 0 -82.5 -36.5t-58.5 -117.5z" />
    <glyph glyph-name="exclamdown" unicode="&#xa1;" horiz-adv-x="416" 
d="M235 341q37 0 62 25.5t25 62.5q0 41 -25 66t-62 25q-38 0 -63.5 -25t-25.5 -66q0 -37 25.5 -62.5t63.5 -25.5zM74 -190h147l70 493h-148z" />
    <glyph glyph-name="cent" unicode="&#xa2;" horiz-adv-x="483" 
d="M299 547l-10 -70q-55 -3 -101 -23t-79.5 -55.5t-52 -84t-18.5 -107.5q0 -44 13 -79.5t37 -62t58 -43.5t76 -24l-12 -86h83l12 83q35 3 64 11.5t49 17.5l-25 113q-14 -7 -32.5 -12.5t-38.5 -8.5l32 234q20 -3 34.5 -8.5t25.5 -11.5l54 112q-18 8 -41.5 16.5t-55.5 13.5
l11 75h-83zM271 350l-32 -229q-32 11 -47.5 36.5t-15.5 60.5q0 51 26 86t69 46z" />
    <glyph glyph-name="sterling" unicode="&#xa3;" 
d="M125 285q1 -5 1 -10v-9q0 -32 -7.5 -60.5t-23 -57t-40.5 -59.5t-60 -67l-3 -22h522l17 121h-301q15 20 32 55t17 89v10t-1 10h182l16 112h-215q-3 19 -5.5 37.5t-2.5 35.5q0 25 4.5 43.5t16.5 31t33.5 19t54.5 6.5q54 0 103.5 -8.5t78.5 -18.5l46 128q-34 14 -94.5 24
t-134.5 10q-52 0 -98.5 -13.5t-82 -40.5t-56 -68.5t-20.5 -97.5q0 -22 2 -43.5t6 -44.5h-71l-15 -112h99z" />
    <glyph glyph-name="fraction" unicode="&#x2044;" horiz-adv-x="514" 
d="M-41 0h115l511 693h-116z" />
    <glyph glyph-name="yen" unicode="&#xa5;" horiz-adv-x="705" 
d="M235 409h-144l-16 -113h213l-9 -63h-213l-16 -113h213l-17 -120h144l17 120h213l16 113h-213l9 63h213l16 113h-151l230 291h-152l-212 -292l-128 292h-155z" />
    <glyph glyph-name="florin" unicode="&#x192;" horiz-adv-x="562" 
d="M158 257l-140 -450h147l141 450h136l17 115h-117l34 109q18 57 41.5 76.5t58.5 19.5q28 0 66 -11l43 118q-26 10 -54.5 15.5t-63.5 5.5q-38 0 -72 -8.5t-62.5 -29t-50.5 -53t-37 -80.5l-51 -162h-119l-16 -115h99z" />
    <glyph glyph-name="section" unicode="&#xa7;" horiz-adv-x="589" 
d="M375 163q-35 -33 -107 -47.5t-189 -6.5l-15 -110q111 -7 200.5 6.5t152.5 47t96.5 86.5t33.5 124q0 46 -19 89t-57 79t-94.5 63.5t-131.5 43.5q37 33 112 47.5t201 6.5l15 110q-118 7 -210.5 -6.5t-157 -47t-98.5 -86.5t-34 -124q0 -47 19 -89.5t57 -78.5t94.5 -63.5
t131.5 -43.5zM205 439q100 -24 154.5 -71t54.5 -104v-2q-100 24 -154.5 71t-54.5 104v2z" />
    <glyph glyph-name="currency" unicode="&#xa4;" horiz-adv-x="742" 
d="M153 388q-5 -30 -6 -63h-106l-14 -98h130q13 -54 41.5 -97t70 -73t94.5 -45.5t115 -15.5q57 0 107 12t78 26l-31 115q-28 -10 -68.5 -18.5t-82.5 -8.5q-69 0 -111 28t-59 77h235l14 98h-263q1 17 2.5 32.5t4.5 30.5h265l14 96h-240q29 42 74.5 67t110.5 25q39 0 79 -7.5
t85 -28.5l55 119q-8 4 -26 12t-44 15.5t-61 13t-78 5.5q-60 0 -115 -14.5t-101 -43t-82.5 -69.5t-58.5 -94h-117l-14 -96h103z" />
    <glyph glyph-name="quotesingle" unicode="'" horiz-adv-x="330" 
d="M119 435h147l37 265h-147z" />
    <glyph glyph-name="quotedblleft" unicode="&#x201c;" horiz-adv-x="558" 
d="M410 418h101l-7 287h-156zM191 418h102l-8 287h-155z" />
    <glyph glyph-name="guillemotleft" unicode="&#xab;" horiz-adv-x="681" 
d="M428 0h146l-97 236l163 235h-146l-164 -235zM157 0h147l-98 236l164 235h-147l-163 -235z" />
    <glyph glyph-name="guilsinglleft" unicode="&#x2039;" horiz-adv-x="414" 
d="M157 0h150l-98 236l164 235h-150l-163 -235z" />
    <glyph glyph-name="guilsinglright" unicode="&#x203a;" horiz-adv-x="414" 
d="M40 0h150l162 236l-96 235h-150l97 -235z" />
    <glyph glyph-name="fi" unicode="&#xfb01;" horiz-adv-x="653" 
d="M275 355h173l-50 -355h146l66 471h-318l5 33q3 23 8 40t16 28t29.5 16.5t50.5 5.5q48 0 91 -9t72 -19l46 120q-15 6 -38 12.5t-51 12.5t-59.5 10t-64.5 4q-60 0 -102.5 -12t-71.5 -38t-45.5 -67t-25.5 -99l-6 -38h-92l-16 -116h91l-83 -548h146z" />
    <glyph glyph-name="fl" unicode="&#xfb02;" horiz-adv-x="654" 
d="M292 471l6 40q4 23 9 40t16 28.5t29.5 17t50.5 5.5q20 0 40 -2t39 -5l-84 -595h146l100 716h-128q-23 4 -52 6.5t-67 2.5q-60 0 -102.5 -12t-71.5 -38t-45.5 -67t-25.5 -99l-6 -38h-92l-16 -116h91l-83 -548h146l83 548h97l17 116h-97z" />
    <glyph glyph-name="endash" unicode="&#x2013;" horiz-adv-x="763" 
d="M85 235h592l15 114h-591z" />
    <glyph glyph-name="dagger" unicode="&#x2020;" horiz-adv-x="624" 
d="M267 444l-73 -519h146l73 519h174l16 116h-173l31 221h-146l-31 -221h-172l-16 -116h171z" />
    <glyph glyph-name="daggerdbl" unicode="&#x2021;" horiz-adv-x="624" 
d="M267 444l-26 -182h-171l-16 -116h171l-31 -221h146l31 221h174l16 116h-173l26 182h173l16 116h-173l31 221h-146l-32 -221h-171l-16 -116h171z" />
    <glyph glyph-name="periodcentered" unicode="&#xb7;" horiz-adv-x="319" 
d="M173 246q42 0 70 27.5t28 72.5q0 20 -7.5 38t-20.5 31t-31 20.5t-39 7.5q-40 0 -67.5 -28t-27.5 -69q0 -45 27.5 -72.5t67.5 -27.5z" />
    <glyph glyph-name="periodcentered" unicode="&#x22c5;" horiz-adv-x="319" 
d="M173 246q42 0 70 27.5t28 72.5q0 20 -7.5 38t-20.5 31t-31 20.5t-39 7.5q-40 0 -67.5 -28t-27.5 -69q0 -45 27.5 -72.5t67.5 -27.5z" />
    <glyph glyph-name="paragraph" unicode="&#xb6;" horiz-adv-x="612" 
d="M315 249q14 -1 28.5 -1.5t30.5 -0.5h15l-35 -247h148l98 700h-179q-104 0 -173.5 -19.5t-111 -52.5t-58.5 -75.5t-17 -88.5q0 -24 6 -49t19.5 -48.5t35 -44.5t53.5 -37l-40 -285h145zM406 363q-102 0 -147.5 25t-43.5 78q0 65 55.5 91t165.5 26z" />
    <glyph glyph-name="bullet" unicode="&#x2022;" horiz-adv-x="489" 
d="M256 142q34 0 63.5 13.5t51.5 37.5t34.5 57.5t12.5 72.5t-12.5 72t-34.5 57.5t-51.5 38t-63.5 13.5q-33 0 -62.5 -13.5t-51.5 -38t-35 -58t-13 -73.5q0 -39 13 -71.5t35 -56.5t51.5 -37.5t62.5 -13.5z" />
    <glyph glyph-name="quotesinglbase" unicode="&#x201a;" horiz-adv-x="347" 
d="M18 -159h108l141 287h-162z" />
    <glyph glyph-name="quotedblbase" unicode="&#x201e;" horiz-adv-x="558" 
d="M236 -159h102l141 287h-155zM18 -159h101l142 287h-156z" />
    <glyph glyph-name="quotedblright" unicode="&#x201d;" horiz-adv-x="558" 
d="M316 418h102l141 287h-155zM98 418h101l142 287h-156z" />
    <glyph glyph-name="guillemotright" unicode="&#xbb;" horiz-adv-x="681" 
d="M311 0h146l163 236l-97 235h-146l96 -235zM40 0h147l162 236l-96 235h-147l97 -235z" />
    <glyph glyph-name="ellipsis" unicode="&#x2026;" horiz-adv-x="878" 
d="M686 -7q41 0 68.5 27t27.5 71q0 41 -27.5 68.5t-68.5 27.5q-20 0 -37 -7.5t-29.5 -20.5t-20 -30.5t-7.5 -37.5q0 -44 27.5 -71t66.5 -27zM417 -7q41 0 68.5 27t27.5 71q0 41 -27.5 68.5t-68.5 27.5q-20 0 -37 -7.5t-29.5 -20.5t-20 -30.5t-7.5 -37.5q0 -44 27.5 -71
t66.5 -27zM148 -7q42 0 69 27t27 71q0 41 -27 68.5t-69 27.5q-20 0 -37 -7.5t-29.5 -20.5t-20 -30.5t-7.5 -37.5q0 -44 27.5 -71t66.5 -27z" />
    <glyph glyph-name="perthousand" unicode="&#x2030;" horiz-adv-x="1544" 
d="M264 250q38 0 78.5 15t73.5 46.5t54.5 80t21.5 116.5q0 46 -15 83t-40.5 62t-59.5 38.5t-72 13.5t-78.5 -15.5t-73.5 -47t-54.5 -80t-21.5 -114.5q0 -47 15 -84t40.5 -62.5t59.5 -38.5t72 -13zM259 0h114l489 700h-115zM1270 -6q38 0 78.5 15t73.5 46t54.5 79.5
t21.5 116.5q0 47 -15 83.5t-40.5 62t-59.5 39t-72 13.5t-78.5 -15.5t-73.5 -47.5t-54.5 -80.5t-21.5 -114.5q0 -47 15 -84t40.5 -62t59.5 -38t72 -13zM814 -6q38 0 78.5 15t73.5 46t54.5 79.5t21.5 116.5q0 47 -15 83.5t-40.5 62t-59.5 39t-72 13.5t-78 -15.5t-73.5 -47.5
t-55 -80.5t-21.5 -114.5q0 -47 15 -84t40.5 -62t59.5 -38t72 -13zM272 357q-38 0 -56.5 25.5t-18.5 66.5q0 66 28 107t70 41q39 0 57.5 -26.5t18.5 -68.5q0 -67 -27 -106t-72 -39zM1278 101q-38 0 -56.5 25t-18.5 67q0 66 28 106.5t70 40.5q39 0 57.5 -26.5t18.5 -68.5
q0 -66 -27 -105t-72 -39zM822 101q-38 0 -56 25t-18 67q0 66 27.5 106.5t69.5 40.5q39 0 58 -26.5t19 -68.5q0 -66 -27.5 -105t-72.5 -39z" />
    <glyph glyph-name="questiondown" unicode="&#xbf;" horiz-adv-x="651" 
d="M414 341q36 0 62 25t26 63q0 41 -26 66t-62 25q-38 0 -63.5 -25t-25.5 -66q0 -38 25.5 -63t63.5 -25zM436 -197q21 0 39 1t35 3l2 129h-34q-42 0 -90 4.5t-89.5 16t-68.5 31.5t-27 52q0 30 14.5 50.5t44 32.5t75.5 17.5t109 6.5l22 160h-147l-8 -63q-44 -5 -90.5 -18
t-84.5 -39t-62 -67.5t-24 -102.5q0 -44 18 -76.5t48 -56.5t69.5 -39.5t82 -24.5t85.5 -13t81 -4z" />
    <glyph glyph-name="grave" unicode="`" horiz-adv-x="618" 
d="M310 519h118l-71 182h-161z" />
    <glyph glyph-name="acute" unicode="&#xb4;" horiz-adv-x="619" 
d="M265 519h126l165 182h-169z" />
    <glyph glyph-name="circumflex" unicode="&#x2c6;" horiz-adv-x="614" 
d="M155 519h114l87 63l69 -63h112l-148 203h-29z" />
    <glyph glyph-name="tilde" unicode="&#x2dc;" horiz-adv-x="614" 
d="M256 518q11 30 22.5 42t22.5 12t24 -8l28.5 -17.5t32.5 -17.5t36 -8q28 0 48 10t36 29.5t29.5 49t27.5 68.5l-102 25q-11 -31 -21.5 -44t-24.5 -13q-11 0 -24 8t-27.5 18t-31.5 18t-36 8q-51 0 -82.5 -36.5t-58.5 -117.5z" />
    <glyph glyph-name="macron" unicode="&#xaf;" horiz-adv-x="614" 
d="M199 525h296l16 113h-297z" />
    <glyph glyph-name="macron" unicode="&#x2c9;" horiz-adv-x="614" 
d="M199 525h296l16 113h-297z" />
    <glyph glyph-name="breve" unicode="&#x2d8;" horiz-adv-x="614" 
d="M357 517q54 0 90.5 19t60.5 48t36 63.5t16 65.5h-126q-6 -45 -22.5 -72.5t-47.5 -27.5q-37 0 -48 27.5t-4 72.5h-125q-5 -30 -1.5 -64.5t21.5 -64t54 -48.5t96 -19z" />
    <glyph glyph-name="dotaccent" unicode="&#x2d9;" horiz-adv-x="619" 
d="M362 522q17 0 32.5 7t27.5 19.5t19.5 28.5t7.5 34q0 19 -7.5 36t-19.5 30t-27.5 20t-32.5 7q-18 0 -33.5 -7t-27.5 -20t-19 -30t-7 -36q0 -18 7 -34t19 -28.5t27.5 -19.5t33.5 -7z" />
    <glyph glyph-name="dieresis" unicode="&#xa8;" horiz-adv-x="614" 
d="M457 528q31 0 55 23t24 54q0 35 -24 58.5t-55 23.5q-32 0 -55.5 -23.5t-23.5 -58.5q0 -31 23.5 -54t55.5 -23zM260 528q31 0 54.5 23t23.5 54q0 35 -23.5 58.5t-54.5 23.5q-16 0 -30.5 -6.5t-25.5 -17.5t-17.5 -26t-6.5 -32q0 -15 6.5 -29t17.5 -24.5t25.5 -17t30.5 -6.5
z" />
    <glyph glyph-name="ring" unicode="&#x2da;" horiz-adv-x="619" 
d="M365 517q25 0 46.5 9.5t38 25.5t26 37.5t9.5 46.5q0 26 -9.5 48t-25.5 38.5t-38 26t-47 9.5q-24 0 -46 -9.5t-38 -26t-25.5 -38.5t-9.5 -48q0 -25 9.5 -46.5t26 -37.5t38 -25.5t45.5 -9.5zM365 576q-24 0 -40.5 17.5t-16.5 42.5q0 27 16.5 45.5t40.5 18.5
q25 0 41.5 -18.5t16.5 -45.5q0 -25 -16.5 -42.5t-41.5 -17.5z" />
    <glyph glyph-name="cedilla" unicode="&#xb8;" horiz-adv-x="619" 
d="M150 -153h155l71 164h-113z" />
    <glyph glyph-name="hungarumlaut" unicode="&#x2dd;" horiz-adv-x="619" 
d="M327 519h112l160 170h-143zM121 519h114l160 170h-144z" />
    <glyph glyph-name="ogonek" unicode="&#x2db;" horiz-adv-x="618" 
d="M183 -153h154l-66 164h-112z" />
    <glyph glyph-name="caron" unicode="&#x2c7;" horiz-adv-x="614" 
d="M331 516h30l204 202h-113l-87 -63l-69 63h-112z" />
    <glyph glyph-name="emdash" unicode="&#x2014;" horiz-adv-x="974" 
d="M85 235h802l15 114h-801z" />
    <glyph glyph-name="AE" unicode="&#xc6;" horiz-adv-x="1030" 
d="M-34 0h167l107 141h230l-20 -141h490l19 138h-337l20 148h259l20 135h-259l19 141h328l20 143h-516zM327 258l196 257l-37 -257h-159z" />
    <glyph glyph-name="ordfeminine" unicode="&#xaa;" horiz-adv-x="504" 
d="M385 676q-19 12 -44 21t-63 9q-45 0 -81.5 -16.5t-61.5 -45.5t-38.5 -68t-13.5 -85q0 -33 9.5 -63t29 -52.5t50 -36t71.5 -13.5q25 0 51 8.5t45 19.5l2 -23h104l53 375h-101zM69 188h356l14 100h-356zM340 437q-24 -10 -56 -10q-39 0 -58.5 22t-19.5 53q0 44 26 71t72 27
q18 0 31 -2t27 -7z" />
    <glyph glyph-name="Lslash" unicode="&#x141;" horiz-adv-x="595" 
d="M86 265l-37 -265h484l19 139h-327l24 169l161 43l17 117l-162 -43l40 280h-157l-46 -323l-89 -24l-17 -117z" />
    <glyph glyph-name="Oslash" unicode="&#xd8;" horiz-adv-x="837" 
d="M702 628l101 131h-110l-62 -81q-38 21 -80 31.5t-85 10.5q-42 0 -87.5 -10.5t-90.5 -31.5t-85.5 -53.5t-71 -77.5t-49 -102t-18.5 -127q0 -78 28 -139t74 -103l-99 -129h109l61 79q38 -20 80.5 -30.5t86.5 -10.5q41 0 87 10t90.5 31.5t85 53.5t71.5 76.5t49 101t18 126.5
q0 78 -28 139.5t-75 104.5zM259 196q-41 53 -41 133q0 58 20 104t52.5 78.5t74 49.5t85.5 17q51 0 90 -18zM608 506q43 -54 43 -135q0 -58 -20 -104.5t-52.5 -78.5t-74.5 -49.5t-85 -17.5q-53 0 -93 20z" />
    <glyph glyph-name="OE" unicode="&#x152;" horiz-adv-x="1061" 
d="M534 0h437l20 138h-338l21 148h259l19 135h-259l20 141h327l20 143h-462q-116 0 -214 -20.5t-169 -66t-111.5 -120t-40.5 -182.5q0 -80 33 -139.5t94 -98.5t148.5 -58.5t195.5 -19.5zM494 140q-134 0 -202.5 47t-68.5 142q0 60 21 103.5t59.5 72t93.5 42t124 13.5h39
l-60 -420h-6z" />
    <glyph glyph-name="ordmasculine" unicode="&#xba;" horiz-adv-x="514" 
d="M280 320q34 0 72.5 11t71 36t54 64.5t21.5 95.5q0 42 -15.5 75t-42 56t-60.5 35t-70 12q-34 0 -72.5 -12t-71 -37.5t-54 -65t-21.5 -95.5q0 -42 15.5 -74.5t41.5 -55t60 -34t71 -11.5zM68 188h364l14 101h-364zM291 420q-39 0 -57 24.5t-18 55.5q0 42 24 71t62 29
q37 0 55.5 -25t18.5 -57q0 -21 -7 -39t-18.5 -31t-27 -20.5t-32.5 -7.5z" />
    <glyph glyph-name="ae" unicode="&#xe6;" horiz-adv-x="856" 
d="M353 288q-77 3 -138 -4t-104 -27t-66 -53.5t-23 -83.5q0 -26 10 -49t29.5 -40t48.5 -27t67 -10q35 0 68 7t61.5 17t51 22t37.5 23q64 -69 195 -69q21 0 46 2.5t49 6t45 8.5t35 11l-17 109q-11 -4 -27 -8t-35 -7t-38.5 -4.5t-36.5 -1.5q-57 0 -87 18.5t-38 52.5h326
q10 86 -2.5 143t-41 91t-71 48t-91.5 14q-35 0 -75 -13.5t-77 -40.5q-23 27 -64.5 37.5t-103.5 10.5q-56 0 -101 -6t-69 -14l11 -112q28 6 68 11t77 5q27 0 44 -4t25.5 -12.5t10.5 -21t1 -29.5zM493 278q14 44 42.5 65.5t65.5 21.5q45 0 65 -20t19 -67h-192zM345 204
q0 -30 6 -55q-30 -17 -60 -30.5t-65 -13.5q-27 0 -40.5 10t-13.5 27q0 15 8.5 27.5t28.5 20.5t53 12t83 2z" />
    <glyph glyph-name="dotlessi" unicode="&#x131;" horiz-adv-x="297" 
d="M42 0h146l66 471h-146z" />
    <glyph glyph-name="lslash" unicode="&#x142;" horiz-adv-x="334" 
d="M98 271l-38 -271h147l44 314l80 23l17 118l-80 -23l41 293h-147l-47 -336l-80 -23l-17 -118z" />
    <glyph glyph-name="oslash" unicode="&#xf8;" horiz-adv-x="581" 
d="M477 415l87 112h-96l-56 -71q-48 21 -104 21q-43 0 -91 -15t-88.5 -47t-67 -82t-26.5 -120q0 -51 18 -90.5t49 -67.5l-86 -110h97l54 69q48 -20 103 -20q43 0 91.5 14t89 45t67.5 80.5t27 120.5q0 51 -18.5 91.5t-49.5 69.5zM187 165q-14 25 -14 54q0 28 10 51.5t27 40
t39.5 26t48.5 9.5q15 0 27 -3zM389 302q18 -26 18 -59q0 -29 -10.5 -52t-28 -39.5t-40 -25t-45.5 -8.5q-20 0 -33 4z" />
    <glyph glyph-name="oe" unicode="&#x153;" horiz-adv-x="903" 
d="M451 60q61 -66 188 -66q21 0 46 2.5t49 6t44.5 8.5t34.5 11l-17 109q-11 -4 -27.5 -8t-35.5 -7t-39 -4.5t-37 -1.5q-57 0 -86 18.5t-37 52.5h326q10 86 -3.5 143t-43.5 91t-73 48t-93 14q-42 0 -87.5 -16.5t-83.5 -53.5q-30 34 -73 52t-94 18q-43 0 -91 -15t-88.5 -47
t-67 -82t-26.5 -120q0 -53 19.5 -93.5t52 -68.5t75 -42.5t88.5 -14.5q45 0 93 15.5t87 50.5zM541 278q14 43 42.5 64t65.5 21q45 0 65 -19t19 -66h-192zM284 122q-48 0 -73 28t-25 69q0 27 9 49.5t24 38.5t35.5 25t43.5 9q46 0 72 -28t26 -70q0 -28 -9.5 -50.5t-25 -38
t-36 -24t-41.5 -8.5z" />
    <glyph glyph-name="germandbls" unicode="&#xdf;" horiz-adv-x="619" 
d="M233 355h151l-118 -154l-3 -21q75 -11 116 -40.5t41 -79.5q0 -33 -13.5 -59.5t-43.5 -44.5t-78.5 -27t-118.5 -7l-7 -115q93 -4 167.5 9.5t127.5 45t81.5 80.5t28.5 115q0 37 -11 66.5t-29 52t-41.5 38.5t-49.5 26l165 210l3 21h-352l9 61q5 38 22.5 52.5t44.5 13.5
q30 0 66 -11l42 120q-28 8 -58 14t-65 6t-67 -7.5t-58 -25.5t-44 -48.5t-24 -75.5l-80 -570h146z" />
    <glyph glyph-name="Scaron" unicode="&#x160;" horiz-adv-x="679" 
d="M309 -10q89 0 150.5 16.5t99.5 46t54.5 71t16.5 91.5q0 49 -21.5 83t-55.5 57t-75.5 39t-80.5 29q-27 9 -51 18t-42.5 19.5t-29 23t-10.5 29.5q0 20 9 32.5t24.5 20t35 10.5t40.5 3q71 0 124.5 -11.5t95.5 -26.5l59 131q-12 6 -34.5 13t-54.5 14t-73 11.5t-90 4.5
q-67 0 -121.5 -12.5t-93.5 -39t-60 -67.5t-21 -99q0 -50 22 -83.5t56 -57t75.5 -39.5t81.5 -29l51 -17.5t42 -19t28.5 -24t10.5 -30.5q0 -44 -34 -59.5t-92 -15.5q-42 0 -81.5 5.5t-74.5 14t-63 18.5t-46 18l-67 -125q19 -11 49 -22t68.5 -20t83.5 -15t95 -6zM397 735h30
l204 202h-113l-87 -63l-69 63h-112z" />
    <glyph glyph-name="scaron" unicode="&#x161;" horiz-adv-x="529" 
d="M235 -6q115 0 178.5 38.5t63.5 122.5q0 39 -19.5 63.5t-49 39.5t-64 23.5t-64 15t-49 14t-19.5 20.5q0 19 15 24t49 5q22 0 45.5 -2.5t46 -7t41.5 -9.5t33 -11l45 113q-32 14 -80.5 24t-121.5 10q-49 0 -89 -10.5t-68.5 -30t-44 -49t-15.5 -66.5q0 -41 19.5 -66.5
t49 -40.5t63.5 -23.5t63.5 -14.5t49 -13.5t19.5 -21.5q0 -20 -17.5 -25.5t-63.5 -5.5q-25 0 -54 3.5t-56 9t-48.5 12t-32.5 11.5l-44 -112q25 -12 81.5 -26t137.5 -14zM290 516h30l204 202h-113l-87 -63l-69 63h-112z" />
    <glyph glyph-name="Yacute" unicode="&#xdd;" horiz-adv-x="727" 
d="M288 249l-35 -249h155l37 262l334 443h-171l-227 -307l-136 307h-166zM353 738h126l165 182h-169z" />
    <glyph glyph-name="yacute" unicode="&#xfd;" horiz-adv-x="543" 
d="M163 15l-119 -208h145l381 664h-146l-161 -282l-74 282h-150zM239 519h126l165 182h-169z" />
    <glyph glyph-name="Thorn" unicode="&#xde;" horiz-adv-x="694" 
d="M50 0h152l15 110h51q97 0 173 15t127.5 48t78.5 85.5t27 127.5q0 52 -21 94.5t-66 73t-115 47.5t-167 17h-16l12 87h-153zM236 246l33 234h16q65 0 109.5 -7.5t71.5 -22t38.5 -35.5t11.5 -47q0 -29 -9.5 -51.5t-35 -38t-69 -24t-110.5 -8.5h-56z" />
    <glyph glyph-name="thorn" unicode="&#xfe;" horiz-adv-x="599" 
d="M185 25q25 -13 56.5 -22t74.5 -9q57 0 102.5 20.5t77.5 56.5t49 85.5t17 106.5q0 42 -12 79.5t-37 66t-63 45.5t-89 17q-29 0 -61 -9.5t-56 -21.5l39 281h-145l-128 -914h145zM227 320q18 7 37.5 11t43.5 4q52 0 77.5 -25.5t25.5 -65.5q0 -57 -33.5 -88.5t-93.5 -31.5
q-25 0 -43.5 2.5t-39.5 9.5z" />
    <glyph glyph-name="Zcaron" unicode="&#x17d;" horiz-adv-x="685" 
d="M3 0h602l19 139h-348l424 545l3 21h-563l-20 -143h304l-418 -540zM400 735h30l204 202h-113l-87 -63l-69 63h-112z" />
    <glyph glyph-name="zcaron" unicode="&#x17e;" horiz-adv-x="533" 
d="M10 0h447l16 111h-225l262 337l3 23h-407l-16 -116h184l-261 -333zM290 516h30l204 202h-113l-87 -63l-69 63h-112z" />
    <glyph glyph-name="onehalf" unicode="&#xbd;" horiz-adv-x="923" 
d="M113 252h118l63 448h-190l-15 -107h72zM118 0h114l489 700h-115zM509 0h350l14 101h-143l14 12q70 62 101.5 110t31.5 98q0 67 -52.5 98.5t-136.5 31.5q-29 0 -59 -4.5t-56 -11.5l15 -104q48 13 92 13q41 0 59 -8.5t18 -26.5q0 -15 -6 -29t-21.5 -33t-42 -46l-68.5 -67
l-105 -100z" />
    <glyph glyph-name="onequarter" unicode="&#xbc;" horiz-adv-x="875" 
d="M113 252h119l63 448h-190l-14 -107h70zM123 0h115l488 700h-115zM767 182l38 269h-81l-295 -295l-10 -74h221l-12 -82h113l12 82h78l14 100h-78zM654 182h-82l95 94z" />
    <glyph glyph-name="onesuperior" unicode="&#xb9;" horiz-adv-x="311" 
d="M112 252h119l62 448h-189l-15 -107h71z" />
    <glyph glyph-name="threequarters" unicode="&#xbe;" horiz-adv-x="984" 
d="M159 249q128 0 193 41t65 126q0 28 -9.5 49.5t-24.5 37t-32.5 26.5t-32.5 18l113 122l4 31h-316l-13 -103h135l-72 -76l-4 -30q28 -4 52.5 -9.5t42 -14t27.5 -21t10 -28.5q0 -37 -31.5 -52t-100.5 -15q-17 0 -38 1t-55 3l-9 -102q32 -2 54 -3t42 -1zM231 0h114l489 700
h-115zM874 182l38 269h-81l-294 -295l-11 -74h221l-12 -82h113l12 82h79l13 100h-78zM761 182h-81l94 94z" />
    <glyph glyph-name="threesuperior" unicode="&#xb3;" horiz-adv-x="450" 
d="M159 249q128 0 193 41t65 126q0 28 -9.5 49.5t-24.5 37t-32.5 26.5t-32.5 18l113 122l4 31h-316l-13 -103h135l-72 -76l-4 -30q28 -4 52.5 -9.5t42 -14t27.5 -21t10 -28.5q0 -37 -31.5 -52t-100.5 -15q-17 0 -38 1t-55 3l-9 -102q32 -2 54 -3t42 -1z" />
    <glyph glyph-name="twosuperior" unicode="&#xb2;" horiz-adv-x="494" 
d="M69 254h350l14 101h-144l14 13q70 61 102 109.5t32 98.5q0 33 -14 57.5t-39 40.5t-60 23.5t-77 7.5q-29 0 -58.5 -4t-55.5 -12l15 -103q49 12 91 12t60 -8t18 -26q0 -15 -6 -29t-21.5 -33t-42.5 -46l-69 -67l-104 -100z" />
    <glyph glyph-name="brokenbar" unicode="&#xa6;" horiz-adv-x="344" 
d="M113 439h148v342h-148v-342zM113 -75h148v342h-148v-342z" />
    <glyph glyph-name="minus" unicode="&#x2212;" horiz-adv-x="641" 
d="M90 275h489v128h-489v-128z" />
    <glyph glyph-name="multiply" unicode="&#xd7;" horiz-adv-x="641" 
d="M336 254l136 -136l88 88l-136 136l136 136l-88 89l-137 -137l-137 137l-88 -88l137 -137l-136 -136l88 -88z" />
    <glyph glyph-name="eth" unicode="&#xf0;" horiz-adv-x="604" 
d="M404 512q13 -34 20 -67t7 -62q-18 31 -60.5 52t-99.5 21q-41 0 -82.5 -14t-75 -44.5t-55 -78.5t-21.5 -116q0 -50 17 -89t49 -65.5t77.5 -40.5t101.5 -14q55 0 108 17.5t94.5 58.5t67 107.5t25.5 165.5q0 51 -7 98.5t-19 91.5l73 11l11 81l-111 -16q-34 77 -81 121
l-125 -78q14 -14 26.5 -30.5t23.5 -35.5l-92 -13l-12 -82zM292 122q-51 0 -78 26.5t-27 68.5q0 28 9.5 51.5t25 40.5t36.5 26t45 9q54 0 80.5 -29.5t26.5 -73.5q0 -29 -10 -51t-26.5 -37t-37.5 -23t-44 -8z" />
    <glyph glyph-name="Adieresis" unicode="&#xc4;" horiz-adv-x="761" 
d="M647 546q15 0 29 6.5t25.5 17t18 24.5t6.5 29q0 17 -6.5 32t-18 26t-25.5 17.5t-29 6.5q-16 0 -30.5 -6.5t-25.5 -17.5t-17.5 -26t-6.5 -32q0 -15 6.5 -29t17.5 -24.5t25.5 -17t30.5 -6.5zM197 546q31 0 54.5 23t23.5 54q0 35 -23.5 58.5t-54.5 23.5q-16 0 -30.5 -6.5
t-25.5 -17.5t-17.5 -26t-6.5 -32q0 -15 6.5 -29t17.5 -24.5t25.5 -17t30.5 -6.5zM202 105h318l34 -105h160l-247 714h-49l-438 -714h160zM479 228h-205l132 223z" />
    <glyph glyph-name="Aring" unicode="&#xc5;" horiz-adv-x="761" 
d="M202 105h318l34 -105h160l-230 664q36 11 59.5 42t23.5 71q0 26 -9.5 48t-25.5 38.5t-38 26t-47 9.5q-24 0 -46 -9.5t-38 -26t-25.5 -38.5t-9.5 -48q0 -35 17.5 -62.5t46.5 -42.5l-412 -672h160zM447 717q-24 0 -40.5 17.5t-16.5 42.5q0 27 16.5 45.5t40.5 18.5
q25 0 41.5 -18.5t16.5 -45.5q0 -25 -16.5 -42.5t-41.5 -17.5zM479 228h-205l132 223z" />
    <glyph glyph-name="Ccedilla" unicode="&#xc7;" horiz-adv-x="697" 
d="M296 0l-105 -153h155l61 140q32 0 63 4t58.5 10.5t49.5 13.5t35 13l-31 130q-9 -3 -25.5 -9t-38.5 -11t-47 -9t-50 -4q-53 0 -91 15.5t-62 42t-35 62.5t-11 78q1 56 19.5 102.5t51.5 79.5t77.5 51.5t97.5 18.5q48 0 91.5 -10t85.5 -29l63 131q-11 7 -32 16t-51 17
t-70 13.5t-89 5.5q-70 0 -141 -24.5t-129 -75t-95 -128t-38 -183.5q-1 -62 15.5 -112.5t47.5 -89.5t74 -66t96 -40z" />
    <glyph glyph-name="Eacute" unicode="&#xc9;" horiz-adv-x="633" 
d="M50 0h492l19 138h-338l21 148h259l19 135h-259l20 141h328l20 143h-482zM305 738h126l165 182h-169z" />
    <glyph glyph-name="Ntilde" unicode="&#xd1;" horiz-adv-x="795" 
d="M635 -6h42l99 711h-149l-56 -406l-370 412h-51l-100 -711h150l59 413zM380 737q11 30 22.5 42t22.5 12t24 -8l28.5 -17.5t32.5 -17.5t36 -8q28 0 48 10t36 29.5t29.5 49t27.5 68.5l-102 25q-11 -31 -21.5 -44t-24.5 -13q-11 0 -24 8t-27.5 18t-31.5 18t-36 8
q-51 0 -82.5 -36.5t-58.5 -117.5z" />
    <glyph glyph-name="Odieresis" unicode="&#xd6;" horiz-adv-x="837" 
d="M404 -15q64 0 134.5 23t130 72t98 124t38.5 180q0 79 -29 141t-76.5 105.5t-108.5 66.5t-125 23q-65 0 -135.5 -23.5t-130 -72.5t-98 -125t-38.5 -181q0 -79 29 -141t77 -104.5t109 -65t125 -22.5zM419 125q-46 0 -82.5 15.5t-62 43t-39 64.5t-13.5 81q0 57 19.5 102.5
t51.5 77t73 48.5t84 17q46 0 82.5 -15.5t62 -42.5t39 -64t13.5 -81q0 -57 -19.5 -102.5t-51.5 -77.5t-73 -49t-84 -17zM601 747q31 0 55 23t24 54q0 35 -24 58.5t-55 23.5q-32 0 -55.5 -23.5t-23.5 -58.5q0 -31 23.5 -54t55.5 -23zM404 747q31 0 54.5 23t23.5 54
q0 35 -23.5 58.5t-54.5 23.5q-16 0 -30.5 -6.5t-25.5 -17.5t-17.5 -26t-6.5 -32q0 -15 6.5 -29t17.5 -24.5t25.5 -17t30.5 -6.5z" />
    <glyph glyph-name="Udieresis" unicode="&#xdc;" horiz-adv-x="784" 
d="M372 -14q141 0 229 72.5t109 224.5l60 422h-150l-55 -397q-14 -96 -55.5 -139t-120.5 -43q-92 0 -123.5 48t-19.5 137l55 394h-156l-58 -415q-20 -144 54.5 -224t230.5 -80zM575 747q31 0 55 23t24 54q0 35 -24 58.5t-55 23.5q-32 0 -55.5 -23.5t-23.5 -58.5
q0 -31 23.5 -54t55.5 -23zM378 747q31 0 54.5 23t23.5 54q0 35 -23.5 58.5t-54.5 23.5q-16 0 -30.5 -6.5t-25.5 -17.5t-17.5 -26t-6.5 -32q0 -15 6.5 -29t17.5 -24.5t25.5 -17t30.5 -6.5z" />
    <glyph glyph-name="aacute" unicode="&#xe1;" 
d="M418 434q-24 14 -56.5 25.5t-80.5 11.5q-57 0 -102.5 -20.5t-77 -57t-48.5 -85.5t-17 -106q0 -42 12 -79.5t36.5 -66t62.5 -45.5t89 -17q33 0 66.5 11t56.5 25l3 -30h127l66 471h-123zM362 136q-16 -6 -34 -9.5t-40 -3.5q-52 0 -77.5 26t-25.5 66q0 57 33.5 89t94.5 32
q23 0 39.5 -2.5t36.5 -9.5zM233 519h126l165 182h-169z" />
    <glyph glyph-name="agrave" unicode="&#xe0;" 
d="M418 434q-24 14 -56.5 25.5t-80.5 11.5q-57 0 -102.5 -20.5t-77 -57t-48.5 -85.5t-17 -106q0 -42 12 -79.5t36.5 -66t62.5 -45.5t89 -17q33 0 66.5 11t56.5 25l3 -30h127l66 471h-123zM362 136q-16 -6 -34 -9.5t-40 -3.5q-52 0 -77.5 26t-25.5 66q0 57 33.5 89t94.5 32
q23 0 39.5 -2.5t36.5 -9.5zM299 519h118l-71 182h-161z" />
    <glyph glyph-name="acircumflex" unicode="&#xe2;" 
d="M418 434q-24 14 -56.5 25.5t-80.5 11.5q-57 0 -102.5 -20.5t-77 -57t-48.5 -85.5t-17 -106q0 -42 12 -79.5t36.5 -66t62.5 -45.5t89 -17q33 0 66.5 11t56.5 25l3 -30h127l66 471h-123zM362 136q-16 -6 -34 -9.5t-40 -3.5q-52 0 -77.5 26t-25.5 66q0 57 33.5 89t94.5 32
q23 0 39.5 -2.5t36.5 -9.5zM146 519h114l87 63l69 -63h112l-148 203h-29z" />
    <glyph glyph-name="adieresis" unicode="&#xe4;" 
d="M418 434q-24 14 -56.5 25.5t-80.5 11.5q-57 0 -102.5 -20.5t-77 -57t-48.5 -85.5t-17 -106q0 -42 12 -79.5t36.5 -66t62.5 -45.5t89 -17q33 0 66.5 11t56.5 25l3 -30h127l66 471h-123zM362 136q-16 -6 -34 -9.5t-40 -3.5q-52 0 -77.5 26t-25.5 66q0 57 33.5 89t94.5 32
q23 0 39.5 -2.5t36.5 -9.5zM448 528q31 0 55 23t24 54q0 35 -24 58.5t-55 23.5q-32 0 -55.5 -23.5t-23.5 -58.5q0 -31 23.5 -54t55.5 -23zM251 528q31 0 54.5 23t23.5 54q0 35 -23.5 58.5t-54.5 23.5q-16 0 -30.5 -6.5t-25.5 -17.5t-17.5 -26t-6.5 -32q0 -15 6.5 -29
t17.5 -24.5t25.5 -17t30.5 -6.5z" />
    <glyph glyph-name="atilde" unicode="&#xe3;" 
d="M418 434q-24 14 -56.5 25.5t-80.5 11.5q-57 0 -102.5 -20.5t-77 -57t-48.5 -85.5t-17 -106q0 -42 12 -79.5t36.5 -66t62.5 -45.5t89 -17q33 0 66.5 11t56.5 25l3 -30h127l66 471h-123zM362 136q-16 -6 -34 -9.5t-40 -3.5q-52 0 -77.5 26t-25.5 66q0 57 33.5 89t94.5 32
q23 0 39.5 -2.5t36.5 -9.5zM247 518q11 30 22.5 42t22.5 12t24 -8l28.5 -17.5t32.5 -17.5t36 -8q28 0 48 10t36 29.5t29.5 49t27.5 68.5l-102 25q-11 -31 -21.5 -44t-24.5 -13q-11 0 -24 8t-27.5 18t-31.5 18t-36 8q-51 0 -82.5 -36.5t-58.5 -117.5z" />
    <glyph glyph-name="aring" unicode="&#xe5;" 
d="M418 434q-24 14 -56.5 25.5t-80.5 11.5q-57 0 -102.5 -20.5t-77 -57t-48.5 -85.5t-17 -106q0 -42 12 -79.5t36.5 -66t62.5 -45.5t89 -17q33 0 66.5 11t56.5 25l3 -30h127l66 471h-123zM362 136q-16 -6 -34 -9.5t-40 -3.5q-52 0 -77.5 26t-25.5 66q0 57 33.5 89t94.5 32
q23 0 39.5 -2.5t36.5 -9.5zM353 517q25 0 46.5 9.5t38 25.5t26 37.5t9.5 46.5q0 26 -9.5 48t-25.5 38.5t-38 26t-47 9.5q-24 0 -46 -9.5t-38 -26t-25.5 -38.5t-9.5 -48q0 -25 9.5 -46.5t26 -37.5t38 -25.5t45.5 -9.5zM353 576q-24 0 -40.5 17.5t-16.5 42.5q0 27 16.5 45.5
t40.5 18.5q25 0 41.5 -18.5t16.5 -45.5q0 -25 -16.5 -42.5t-41.5 -17.5z" />
    <glyph glyph-name="ccedilla" unicode="&#xe7;" horiz-adv-x="480" 
d="M189 3l-108 -156h155l64 148q36 4 65.5 12t49.5 17l-24 118q-18 -8 -45.5 -14.5t-54.5 -6.5q-55 0 -79.5 26t-24.5 71q0 60 35 94.5t92 34.5q29 0 55 -7t42 -16l60 121q-25 13 -63 22.5t-98 9.5q-58 0 -108 -19t-86.5 -54.5t-57.5 -85.5t-21 -113q0 -81 40 -132t112 -70z
" />
    <glyph glyph-name="eacute" unicode="&#xe9;" horiz-adv-x="549" 
d="M179 181h326q10 86 -2.5 143t-41 91t-71 48t-91.5 14q-39 0 -85.5 -14.5t-86.5 -47t-66.5 -84.5t-26.5 -126q0 -100 66 -155.5t183 -55.5q21 0 46 2.5t49 6t45 8.5t35 11l-17 109q-11 -4 -27 -8t-35 -7t-38.5 -4.5t-36.5 -1.5q-57 0 -87 18.5t-38 52.5zM186 278
q14 44 42.5 65.5t65.5 21.5q45 0 65 -20t19 -67h-192zM208 519h126l165 182h-169z" />
    <glyph glyph-name="egrave" unicode="&#xe8;" horiz-adv-x="549" 
d="M179 181h326q10 86 -2.5 143t-41 91t-71 48t-91.5 14q-39 0 -85.5 -14.5t-86.5 -47t-66.5 -84.5t-26.5 -126q0 -100 66 -155.5t183 -55.5q21 0 46 2.5t49 6t45 8.5t35 11l-17 109q-11 -4 -27 -8t-35 -7t-38.5 -4.5t-36.5 -1.5q-57 0 -87 18.5t-38 52.5zM186 278
q14 44 42.5 65.5t65.5 21.5q45 0 65 -20t19 -67h-192zM281 519h118l-71 182h-161z" />
    <glyph glyph-name="ecircumflex" unicode="&#xea;" horiz-adv-x="549" 
d="M179 181h326q10 86 -2.5 143t-41 91t-71 48t-91.5 14q-39 0 -85.5 -14.5t-86.5 -47t-66.5 -84.5t-26.5 -126q0 -100 66 -155.5t183 -55.5q21 0 46 2.5t49 6t45 8.5t35 11l-17 109q-11 -4 -27 -8t-35 -7t-38.5 -4.5t-36.5 -1.5q-57 0 -87 18.5t-38 52.5zM186 278
q14 44 42.5 65.5t65.5 21.5q45 0 65 -20t19 -67h-192zM120 519h114l87 63l69 -63h112l-148 203h-29z" />
    <glyph glyph-name="edieresis" unicode="&#xeb;" horiz-adv-x="549" 
d="M179 181h326q10 86 -2.5 143t-41 91t-71 48t-91.5 14q-39 0 -85.5 -14.5t-86.5 -47t-66.5 -84.5t-26.5 -126q0 -100 66 -155.5t183 -55.5q21 0 46 2.5t49 6t45 8.5t35 11l-17 109q-11 -4 -27 -8t-35 -7t-38.5 -4.5t-36.5 -1.5q-57 0 -87 18.5t-38 52.5zM186 278
q14 44 42.5 65.5t65.5 21.5q45 0 65 -20t19 -67h-192zM422 528q31 0 55 23t24 54q0 35 -24 58.5t-55 23.5q-32 0 -55.5 -23.5t-23.5 -58.5q0 -31 23.5 -54t55.5 -23zM225 528q31 0 54.5 23t23.5 54q0 35 -23.5 58.5t-54.5 23.5q-16 0 -30.5 -6.5t-25.5 -17.5t-17.5 -26
t-6.5 -32q0 -15 6.5 -29t17.5 -24.5t25.5 -17t30.5 -6.5z" />
    <glyph glyph-name="iacute" unicode="&#xed;" horiz-adv-x="297" 
d="M42 0h146l66 471h-146zM115 519h126l165 182h-169z" />
    <glyph glyph-name="igrave" unicode="&#xec;" horiz-adv-x="297" 
d="M42 0h146l66 471h-146zM140 519h118l-71 182h-161z" />
    <glyph glyph-name="icircumflex" unicode="&#xee;" horiz-adv-x="297" 
d="M42 0h146l66 471h-146zM-4 519h114l87 63l69 -63h112l-148 203h-29z" />
    <glyph glyph-name="idieresis" unicode="&#xef;" horiz-adv-x="297" 
d="M42 0h146l66 471h-146zM298 528q31 0 55 23t24 54q0 35 -24 58.5t-55 23.5q-32 0 -55.5 -23.5t-23.5 -58.5q0 -31 23.5 -54t55.5 -23zM101 528q31 0 54.5 23t23.5 54q0 35 -23.5 58.5t-54.5 23.5q-16 0 -30.5 -6.5t-25.5 -17.5t-17.5 -26t-6.5 -32q0 -15 6.5 -29
t17.5 -24.5t25.5 -17t30.5 -6.5z" />
    <glyph glyph-name="ntilde" unicode="&#xf1;" horiz-adv-x="600" 
d="M236 433v38h-133l-66 -471h146l44 317q18 7 39.5 12t50.5 5q28 0 44 -6t23.5 -19t7.5 -34q0 -20 -4 -48l-32 -227h146l37 263q7 48 1.5 86.5t-24 65.5t-52 41.5t-82.5 14.5q-20 0 -40.5 -3.5t-39.5 -9.5t-36 -12.5t-30 -12.5zM248 518q11 30 22.5 42t22.5 12t24 -8
l28.5 -17.5t32.5 -17.5t36 -8q28 0 48 10t36 29.5t29.5 49t27.5 68.5l-102 25q-11 -31 -21.5 -44t-24.5 -13q-11 0 -24 8t-27.5 18t-31.5 18t-36 8q-51 0 -82.5 -36.5t-58.5 -117.5z" />
    <glyph glyph-name="oacute" unicode="&#xf3;" horiz-adv-x="581" 
d="M270 -6q43 0 91.5 14t89 45t67.5 80.5t27 120.5q0 52 -19.5 93.5t-52.5 70.5t-76 44t-89 15q-43 0 -91 -15t-88.5 -47t-67 -82t-26.5 -120q0 -53 19.5 -93.5t52 -68.5t75 -42.5t88.5 -14.5zM283 122q-48 0 -73 28t-25 69q0 27 9 49.5t24.5 38.5t36 25t43.5 9
q46 0 71.5 -28t25.5 -70q0 -28 -9.5 -50.5t-25 -38t-36 -24t-41.5 -8.5zM227 519h126l165 182h-169z" />
    <glyph glyph-name="ograve" unicode="&#xf2;" horiz-adv-x="581" 
d="M270 -6q43 0 91.5 14t89 45t67.5 80.5t27 120.5q0 52 -19.5 93.5t-52.5 70.5t-76 44t-89 15q-43 0 -91 -15t-88.5 -47t-67 -82t-26.5 -120q0 -53 19.5 -93.5t52 -68.5t75 -42.5t88.5 -14.5zM283 122q-48 0 -73 28t-25 69q0 27 9 49.5t24.5 38.5t36 25t43.5 9
q46 0 71.5 -28t25.5 -70q0 -28 -9.5 -50.5t-25 -38t-36 -24t-41.5 -8.5zM291 519h118l-71 182h-161z" />
    <glyph glyph-name="ocircumflex" unicode="&#xf4;" horiz-adv-x="581" 
d="M270 -6q43 0 91.5 14t89 45t67.5 80.5t27 120.5q0 52 -19.5 93.5t-52.5 70.5t-76 44t-89 15q-43 0 -91 -15t-88.5 -47t-67 -82t-26.5 -120q0 -53 19.5 -93.5t52 -68.5t75 -42.5t88.5 -14.5zM283 122q-48 0 -73 28t-25 69q0 27 9 49.5t24.5 38.5t36 25t43.5 9
q46 0 71.5 -28t25.5 -70q0 -28 -9.5 -50.5t-25 -38t-36 -24t-41.5 -8.5zM140 519h114l87 63l69 -63h112l-148 203h-29z" />
    <glyph glyph-name="odieresis" unicode="&#xf6;" horiz-adv-x="581" 
d="M270 -6q43 0 91.5 14t89 45t67.5 80.5t27 120.5q0 52 -19.5 93.5t-52.5 70.5t-76 44t-89 15q-43 0 -91 -15t-88.5 -47t-67 -82t-26.5 -120q0 -53 19.5 -93.5t52 -68.5t75 -42.5t88.5 -14.5zM283 122q-48 0 -73 28t-25 69q0 27 9 49.5t24.5 38.5t36 25t43.5 9
q46 0 71.5 -28t25.5 -70q0 -28 -9.5 -50.5t-25 -38t-36 -24t-41.5 -8.5zM442 528q31 0 55 23t24 54q0 35 -24 58.5t-55 23.5q-32 0 -55.5 -23.5t-23.5 -58.5q0 -31 23.5 -54t55.5 -23zM245 528q31 0 54.5 23t23.5 54q0 35 -23.5 58.5t-54.5 23.5q-16 0 -30.5 -6.5
t-25.5 -17.5t-17.5 -26t-6.5 -32q0 -15 6.5 -29t17.5 -24.5t25.5 -17t30.5 -6.5z" />
    <glyph glyph-name="otilde" unicode="&#xf5;" horiz-adv-x="581" 
d="M270 -6q43 0 91.5 14t89 45t67.5 80.5t27 120.5q0 52 -19.5 93.5t-52.5 70.5t-76 44t-89 15q-43 0 -91 -15t-88.5 -47t-67 -82t-26.5 -120q0 -53 19.5 -93.5t52 -68.5t75 -42.5t88.5 -14.5zM283 122q-48 0 -73 28t-25 69q0 27 9 49.5t24.5 38.5t36 25t43.5 9
q46 0 71.5 -28t25.5 -70q0 -28 -9.5 -50.5t-25 -38t-36 -24t-41.5 -8.5zM241 518q11 30 22.5 42t22.5 12t24 -8l28.5 -17.5t32.5 -17.5t36 -8q28 0 48 10t36 29.5t29.5 49t27.5 68.5l-102 25q-11 -31 -21.5 -44t-24.5 -13q-11 0 -24 8t-27.5 18t-31.5 18t-36 8
q-51 0 -82.5 -36.5t-58.5 -117.5z" />
    <glyph glyph-name="uacute" unicode="&#xfa;" horiz-adv-x="596" 
d="M367 143q-17 -6 -38 -11t-48 -5q-28 0 -44 6t-23.5 19t-7.5 33t4 49l33 237h-146l-38 -269q-14 -97 22.5 -152.5t135.5 -55.5q20 0 40.5 3.5t40 9.5t36.5 12.5t30 12.5l3 -32h125l67 471h-146zM253 519h126l165 182h-169z" />
    <glyph glyph-name="ugrave" unicode="&#xf9;" horiz-adv-x="596" 
d="M367 143q-17 -6 -38 -11t-48 -5q-28 0 -44 6t-23.5 19t-7.5 33t4 49l33 237h-146l-38 -269q-14 -97 22.5 -152.5t135.5 -55.5q20 0 40.5 3.5t40 9.5t36.5 12.5t30 12.5l3 -32h125l67 471h-146zM299 519h118l-71 182h-161z" />
    <glyph glyph-name="ucircumflex" unicode="&#xfb;" horiz-adv-x="596" 
d="M367 143q-17 -6 -38 -11t-48 -5q-28 0 -44 6t-23.5 19t-7.5 33t4 49l33 237h-146l-38 -269q-14 -97 22.5 -152.5t135.5 -55.5q20 0 40.5 3.5t40 9.5t36.5 12.5t30 12.5l3 -32h125l67 471h-146zM146 519h114l87 63l69 -63h112l-148 203h-29z" />
    <glyph glyph-name="udieresis" unicode="&#xfc;" horiz-adv-x="596" 
d="M367 143q-17 -6 -38 -11t-48 -5q-28 0 -44 6t-23.5 19t-7.5 33t4 49l33 237h-146l-38 -269q-14 -97 22.5 -152.5t135.5 -55.5q20 0 40.5 3.5t40 9.5t36.5 12.5t30 12.5l3 -32h125l67 471h-146zM448 528q31 0 55 23t24 54q0 35 -24 58.5t-55 23.5q-32 0 -55.5 -23.5
t-23.5 -58.5q0 -31 23.5 -54t55.5 -23zM251 528q31 0 54.5 23t23.5 54q0 35 -23.5 58.5t-54.5 23.5q-16 0 -30.5 -6.5t-25.5 -17.5t-17.5 -26t-6.5 -32q0 -15 6.5 -29t17.5 -24.5t25.5 -17t30.5 -6.5z" />
    <glyph glyph-name="degree" unicode="&#xb0;" horiz-adv-x="531" 
d="M295 273q42 0 80.5 17t67 46.5t45.5 70t17 87.5q0 43 -15.5 81.5t-42.5 67.5t-64 45.5t-80 16.5t-81 -17t-67 -46.5t-46 -70t-17 -86.5q0 -44 15.5 -82.5t42.5 -67.5t64 -45.5t81 -16.5zM295 370q-24 0 -43 9t-32.5 25t-20.5 37t-7 44q0 25 8.5 47.5t23 39.5t35 26.5
t44.5 9.5q23 0 42 -9t32.5 -24.5t20.5 -36.5t7 -44q0 -26 -8.5 -48.5t-23 -39t-34.5 -26.5t-44 -10z" />
    <glyph glyph-name="registered" unicode="&#xae;" horiz-adv-x="817" 
d="M424 -7q69 0 134 24t114.5 70.5t79.5 113.5t30 153t-30 153t-79.5 113.5t-114.5 70.5t-134 24t-133.5 -24t-114 -70.5t-79 -113.5t-29.5 -153t29.5 -153t79 -113.5t114 -70.5t133.5 -24zM424 56q-60 0 -112.5 22t-91 62t-61 94.5t-22.5 119.5t22.5 119.5t61 94.5t91 62
t112.5 22t112.5 -22t91.5 -62t61.5 -94.5t22.5 -119.5t-22.5 -119.5t-61.5 -94.5t-91.5 -62t-112.5 -22zM516 306q81 35 81 118q0 76 -60 109.5t-190 33.5h-85v-408h94v123h14q29 0 55 3l91 -126h106zM356 357v128h15q74 0 103 -15.5t29 -48.5q0 -32 -28.5 -48t-103.5 -16
h-15z" />
    <glyph glyph-name="copyright" unicode="&#xa9;" horiz-adv-x="817" 
d="M424 -7q69 0 134 24t114.5 70.5t79.5 113.5t30 153t-30 153t-79.5 113.5t-114.5 70.5t-134 24t-133.5 -24t-114 -70.5t-79 -113.5t-29.5 -153t29.5 -153t79 -113.5t114 -70.5t133.5 -24zM424 56q-60 0 -112.5 22t-91 62t-61 94.5t-22.5 119.5t22.5 119.5t61 94.5t91 62
t112.5 22t112.5 -22t91.5 -62t61.5 -94.5t22.5 -119.5t-22.5 -119.5t-61.5 -94.5t-91.5 -62t-112.5 -22zM447 131q39 0 74.5 8.5t60.5 22.5l-36 84q-11 -5 -37 -14.5t-60 -9.5q-60 0 -94 35t-34 93q0 57 33.5 93t96.5 36q18 0 42.5 -4t53.5 -17l34 90q-13 6 -51 16t-86 10
q-45 0 -86.5 -13.5t-73.5 -41t-51 -69.5t-19 -99t19 -98.5t51.5 -68.5t74.5 -40t88 -13z" />
    <glyph glyph-name="trademark" unicode="&#x2122;" horiz-adv-x="1117" 
d="M755 244h20l148 185l-20 -199h135l45 476h-47l-238 -278l-160 278h-46l-89 -476h128l36 199zM245 595l-51 -365h135l51 365h147l15 110h-432l-16 -110h151z" />
    <glyph glyph-name="notequal" unicode="&#x2260;" horiz-adv-x="722" 
d="M448 355l-82 -548h146l82 548h122l16 116h-120l9 61q6 38 24.5 52t45.5 14q29 0 65 -11l44 120q-27 8 -57.5 14t-65.5 6t-67.5 -7.5t-59 -25.5t-45 -48.5t-25.5 -75.5l-15 -99h-173l5 34q5 39 20 53t38 14q14 0 26 -1.5t25 -4.5l38 119q-20 7 -48 11.5t-63 4.5
q-30 0 -59.5 -8.5t-53.5 -28t-41 -52t-24 -79.5l-9 -62h-92l-16 -116h90l-82 -548h145l83 548h174z" />
    <glyph glyph-name="infinity" unicode="&#x221e;" horiz-adv-x="973" 
d="M595 355h173l-50 -355h146l66 471h-318l5 33q3 23 8 40t16 28t29.5 16.5t50.5 5.5q48 0 91 -9t72 -19l46 120q-15 6 -38 12.5t-51 12.5t-59.5 10t-64.5 4q-60 0 -102.5 -12t-71.5 -38t-45.5 -67t-25.5 -99l-6 -38h-174l5 34q5 39 20 53t38 14q14 0 26 -1.5t25 -4.5
l38 119q-20 7 -48 11.5t-63 4.5q-30 0 -59.5 -8.5t-53.5 -28t-41 -52t-24 -79.5l-9 -62h-92l-16 -116h90l-82 -548h145l83 548h175l-83 -548h146z" />
    <glyph glyph-name="plusminus" unicode="&#xb1;" horiz-adv-x="970" 
d="M611 471l6 40q4 23 9 40t16 28.5t29.5 17t50.5 5.5q20 0 40 -2t39 -5l-84 -595h146l101 716h-128q-23 4 -52.5 6.5t-67.5 2.5q-60 0 -102.5 -12t-71.5 -38t-45.5 -67t-25.5 -99l-6 -38h-173l5 34q5 39 20 53t38 14q14 0 26 -1.5t25 -4.5l38 119q-20 7 -48 11.5t-63 4.5
q-30 0 -59.5 -8.5t-53.5 -28t-41 -52t-24 -79.5l-9 -62h-92l-16 -116h90l-82 -548h145l83 548h174l-82 -548h145l83 548h98l16 116h-97z" />
    <glyph glyph-name="lessequal" unicode="&#x2264;" horiz-adv-x="603" 
d="M409 465q-44 12 -94 12q-38 0 -79 -7.5t-75.5 -26.5t-57 -51.5t-22.5 -81.5q0 -55 37 -90q-32 -16 -52.5 -43t-20.5 -59q0 -23 8.5 -39t23.5 -28q-33 -20 -57 -50t-24 -73q0 -29 13.5 -52.5t45.5 -40t86 -25t135 -8.5q132 0 206.5 38t74.5 125q0 43 -21 69t-55.5 41
t-80 22t-93.5 13q-38 4 -63.5 7.5t-40.5 7t-21.5 8.5t-6.5 14q0 15 15 29q57 -20 129 -20q41 0 82 8t74 26.5t53.5 49t20.5 76.5q1 33 -13 60t-39 47l120 90h-160zM316 243q-45 0 -65.5 17.5t-20.5 46.5q0 35 24 53t57 18q45 0 65.5 -18.5t20.5 -47.5q0 -37 -23.5 -53
t-57.5 -16zM174 16q26 -5 53 -7.5t53 -6.5q70 -9 100 -18.5t30 -35.5q0 -29 -32.5 -41t-96.5 -12q-84 0 -115 13t-31 37q0 18 10 37t29 34z" />
    <glyph glyph-name="greaterequal" unicode="&#x2265;" horiz-adv-x="556" 
d="M353 288q-77 3 -138 -4t-104 -27t-66 -53.5t-23 -83.5q0 -26 10 -49t29.5 -40t48.5 -27t67 -10q40 0 78 13t70 32v-39h134l34 242q10 69 2 113t-34.5 70t-70.5 36t-104 10q-56 0 -101 -6t-69 -14l11 -112q28 6 68 11t77 5q27 0 44 -4t25.5 -12.5t10.5 -21t1 -29.5z
M333 140q-23 -14 -49.5 -24.5t-57.5 -10.5q-27 0 -40.5 10t-13.5 27q0 15 8 27.5t27.5 20.5t52.5 12t82 2z" />
    <glyph glyph-name="mu" unicode="&#xb5;" horiz-adv-x="819" 
d="M356 471h-304l238 -188l-105 -298l247 185l234 -185l-84 298l251 188h-304l-77 273z" />
    <glyph glyph-name="mu" unicode="&#x3bc;" horiz-adv-x="819" 
d="M356 471h-304l238 -188l-105 -298l247 185l234 -185l-84 298l251 188h-304l-77 273z" />
    <glyph glyph-name="partialdiff" unicode="&#x2202;" horiz-adv-x="819" 
d="M356 471h-304l238 -188l-105 -298l247 185l234 -185l-84 298l251 188h-304l-77 273z" />
    <glyph glyph-name="summation" unicode="&#x2211;" horiz-adv-x="819" 
d="M356 471h-304l238 -188l-105 -298l247 185l234 -185l-84 298l251 188h-304l-77 273z" />
    <glyph glyph-name="product" unicode="&#x220f;" horiz-adv-x="819" 
d="M356 471h-304l238 -188l-105 -298l247 185l234 -185l-84 298l251 188h-304l-77 273z" />
    <glyph glyph-name="pi" unicode="&#x3c0;" horiz-adv-x="817" 
d="M424 -7q69 0 134 24t114.5 70.5t79.5 113.5t30 153t-30 153t-79.5 113.5t-114.5 70.5t-134 24t-133.5 -24t-114 -70.5t-79 -113.5t-29.5 -153t29.5 -153t79 -113.5t114 -70.5t133.5 -24zM424 56q-60 0 -112.5 22t-91 62t-61 94.5t-22.5 119.5t22.5 119.5t61 94.5t91 62
t112.5 22t112.5 -22t91.5 -62t61.5 -94.5t22.5 -119.5t-22.5 -119.5t-61.5 -94.5t-91.5 -62t-112.5 -22zM275 140h99v118h20q240 0 240 153q0 80 -64 117t-199 37h-96v-425zM374 341v139h22q78 0 108 -17.5t30 -52.5t-30 -52t-108 -17h-22z" />
    <glyph glyph-name="integral" unicode="&#x222b;" horiz-adv-x="819" 
d="M356 471h-304l238 -188l-105 -298l247 185l234 -185l-84 298l251 188h-304l-77 273z" />
    <glyph glyph-name="Omega" unicode="&#x2126;" horiz-adv-x="698" 
d="M281 355h183l-118 -154l-4 -21q76 -11 116.5 -40.5t40.5 -79.5q0 -33 -13.5 -59.5t-43.5 -44.5t-78.5 -27t-118.5 -7l-6 -115q92 -4 167 9.5t128 45t81.5 80.5t28.5 115q0 37 -11 66.5t-29 52t-42 38.5t-50 26l165 210l3 21h-383l27 193h-147l-27 -193h-96l-16 -116h96
l-50 -355h147z" />
    <glyph glyph-name="logicalnot" unicode="&#xac;" horiz-adv-x="819" 
d="M356 471h-304l238 -188l-105 -298l247 185l234 -185l-84 298l251 188h-304l-77 273z" />
    <glyph glyph-name="radical" unicode="&#x221a;" horiz-adv-x="663" 
d="M218 -6h62l431 712h-144l-282 -488l-79 261h-154z" />
    <glyph glyph-name="approxequal" unicode="&#x2248;" horiz-adv-x="819" 
d="M356 471h-304l238 -188l-105 -298l247 185l234 -185l-84 298l251 188h-304l-77 273z" />
    <glyph glyph-name="Delta" unicode="&#x2206;" horiz-adv-x="653" 
d="M275 355h173l-79 -548h146l95 664h-319l5 33q3 24 7.5 41t15.5 28t29.5 16t50.5 5q48 0 91.5 -9t72.5 -19l44 120q-15 6 -38 12.5t-51 12.5t-59.5 10t-64.5 4q-60 0 -102.5 -12t-71 -38t-45 -67t-24.5 -99l-5 -38h-92l-16 -116h91l-51 -355h146z" />
    <glyph glyph-name="nonbreakingspace" unicode="&#xa0;" horiz-adv-x="152" 
 />
    <glyph glyph-name="Agrave" unicode="&#xc0;" horiz-adv-x="761" 
d="M202 105h318l34 -105h160l-247 714h-49l-438 -714h160zM479 228h-205l132 223zM410 738h118l-71 182h-161z" />
    <glyph glyph-name="Atilde" unicode="&#xc3;" horiz-adv-x="761" 
d="M202 105h318l34 -105h160l-247 714h-49l-438 -714h160zM479 228h-205l132 223zM363 737q11 30 22.5 42t22.5 12t24 -8l28.5 -17.5t32.5 -17.5t36 -8q28 0 48 10t36 29.5t29.5 49t27.5 68.5l-102 25q-11 -31 -21.5 -44t-24.5 -13q-11 0 -24 8t-27.5 18t-31.5 18t-36 8
q-51 0 -82.5 -36.5t-58.5 -117.5z" />
    <glyph glyph-name="Otilde" unicode="&#xd5;" horiz-adv-x="837" 
d="M404 -15q64 0 134.5 23t130 72t98 124t38.5 180q0 79 -29 141t-76.5 105.5t-108.5 66.5t-125 23q-65 0 -135.5 -23.5t-130 -72.5t-98 -125t-38.5 -181q0 -79 29 -141t77 -104.5t109 -65t125 -22.5zM419 125q-46 0 -82.5 15.5t-62 43t-39 64.5t-13.5 81q0 57 19.5 102.5
t51.5 77t73 48.5t84 17q46 0 82.5 -15.5t62 -42.5t39 -64t13.5 -81q0 -57 -19.5 -102.5t-51.5 -77.5t-73 -49t-84 -17zM398 737q11 30 22.5 42t22.5 12t24 -8l28.5 -17.5t32.5 -17.5t36 -8q28 0 48 10t36 29.5t29.5 49t27.5 68.5l-102 25q-11 -31 -21.5 -44t-24.5 -13
q-11 0 -24 8t-27.5 18t-31.5 18t-36 8q-51 0 -82.5 -36.5t-58.5 -117.5z" />
    <glyph glyph-name="divide" unicode="&#xf7;" horiz-adv-x="641" 
d="M333 455q35 0 57.5 23t22.5 60q0 34 -22.5 57t-57.5 23q-33 0 -56 -23t-23 -57q0 -37 23 -60t56 -23zM91 283h489v127h-489v-127zM333 75q35 0 57.5 22.5t22.5 60.5q0 34 -22.5 56.5t-57.5 22.5q-33 0 -56 -22.5t-23 -56.5q0 -38 23 -60.5t56 -22.5z" />
    <glyph glyph-name="lozenge" unicode="&#x25ca;" horiz-adv-x="742" 
d="M430 355l-23 -163q-9 -61 0.5 -99.5t32.5 -60.5t56.5 -30t72.5 -8q32 0 60.5 3t45.5 7l2 109q-30 -3 -59 -3q-42 0 -57.5 17t-8.5 65l23 163h131l16 116h-130l17 120h-146l-17 -120h-154l9 61q5 38 20 52t38 14q14 0 26 -1.5t25 -4.5l38 120q-20 7 -47.5 11t-62.5 4
q-31 0 -60 -8.5t-53.5 -28t-41.5 -52t-24 -79.5l-13 -88h-92l-16 -116h90l-82 -548h145l83 548h156z" />
    <glyph glyph-name="ydieresis" unicode="&#xff;" horiz-adv-x="543" 
d="M163 15l-119 -208h145l381 664h-146l-161 -282l-74 282h-150zM426 528q31 0 55 23t24 54q0 35 -24 58.5t-55 23.5q-32 0 -55.5 -23.5t-23.5 -58.5q0 -31 23.5 -54t55.5 -23zM229 528q31 0 54.5 23t23.5 54q0 35 -23.5 58.5t-54.5 23.5q-16 0 -30.5 -6.5t-25.5 -17.5
t-17.5 -26t-6.5 -32q0 -15 6.5 -29t17.5 -24.5t25.5 -17t30.5 -6.5z" />
    <glyph glyph-name="Ydieresis" unicode="&#x178;" horiz-adv-x="727" 
d="M288 249l-35 -249h155l37 262l334 443h-171l-227 -307l-136 307h-166zM547 747q31 0 55 23t24 54q0 35 -24 58.5t-55 23.5q-32 0 -55.5 -23.5t-23.5 -58.5q0 -31 23.5 -54t55.5 -23zM350 747q31 0 54.5 23t23.5 54q0 35 -23.5 58.5t-54.5 23.5q-16 0 -30.5 -6.5
t-25.5 -17.5t-17.5 -26t-6.5 -32q0 -15 6.5 -29t17.5 -24.5t25.5 -17t30.5 -6.5z" />
    <glyph glyph-name="Acircumflex" unicode="&#xc2;" horiz-adv-x="761" 
d="M202 105h318l34 -105h160l-247 714h-49l-438 -714h160zM479 228h-205l132 223zM256 738h114l87 63l69 -63h112l-148 203h-29z" />
    <glyph glyph-name="Ecircumflex" unicode="&#xca;" horiz-adv-x="633" 
d="M50 0h492l19 138h-338l21 148h259l19 135h-259l20 141h328l20 143h-482zM197 738h114l87 63l69 -63h112l-148 203h-29z" />
    <glyph glyph-name="Aacute" unicode="&#xc1;" horiz-adv-x="761" 
d="M202 105h318l34 -105h160l-247 714h-49l-438 -714h160zM479 228h-205l132 223zM370 738h126l165 182h-169z" />
    <glyph glyph-name="Edieresis" unicode="&#xcb;" horiz-adv-x="633" 
d="M50 0h492l19 138h-338l21 148h259l19 135h-259l20 141h328l20 143h-482zM499 747q31 0 55 23t24 54q0 35 -24 58.5t-55 23.5q-32 0 -55.5 -23.5t-23.5 -58.5q0 -31 23.5 -54t55.5 -23zM302 747q31 0 54.5 23t23.5 54q0 35 -23.5 58.5t-54.5 23.5q-16 0 -30.5 -6.5
t-25.5 -17.5t-17.5 -26t-6.5 -32q0 -15 6.5 -29t17.5 -24.5t25.5 -17t30.5 -6.5z" />
    <glyph glyph-name="Egrave" unicode="&#xc8;" horiz-adv-x="633" 
d="M50 0h492l19 138h-338l21 148h259l19 135h-259l20 141h328l20 143h-482zM351 738h118l-71 182h-161z" />
    <glyph glyph-name="Iacute" unicode="&#xcd;" horiz-adv-x="334" 
d="M55 0h156l99 705h-156zM160 738h126l165 182h-169z" />
    <glyph glyph-name="Icircumflex" unicode="&#xce;" horiz-adv-x="334" 
d="M55 0h156l99 705h-156zM48 738h114l87 63l69 -63h112l-148 203h-29z" />
    <glyph glyph-name="Idieresis" unicode="&#xcf;" horiz-adv-x="334" 
d="M55 0h156l99 705h-156zM350 747q31 0 55 23t24 54q0 35 -24 58.5t-55 23.5q-32 0 -55.5 -23.5t-23.5 -58.5q0 -31 23.5 -54t55.5 -23zM153 747q31 0 54.5 23t23.5 54q0 35 -23.5 58.5t-54.5 23.5q-16 0 -30.5 -6.5t-25.5 -17.5t-17.5 -26t-6.5 -32q0 -15 6.5 -29
t17.5 -24.5t25.5 -17t30.5 -6.5z" />
    <glyph glyph-name="Igrave" unicode="&#xcc;" horiz-adv-x="334" 
d="M55 0h156l99 705h-156zM195 738h118l-71 182h-161z" />
    <glyph glyph-name="Oacute" unicode="&#xd3;" horiz-adv-x="837" 
d="M404 -15q64 0 134.5 23t130 72t98 124t38.5 180q0 79 -29 141t-76.5 105.5t-108.5 66.5t-125 23q-65 0 -135.5 -23.5t-130 -72.5t-98 -125t-38.5 -181q0 -79 29 -141t77 -104.5t109 -65t125 -22.5zM419 125q-46 0 -82.5 15.5t-62 43t-39 64.5t-13.5 81q0 57 19.5 102.5
t51.5 77t73 48.5t84 17q46 0 82.5 -15.5t62 -42.5t39 -64t13.5 -81q0 -57 -19.5 -102.5t-51.5 -77.5t-73 -49t-84 -17zM375 738h126l165 182h-169z" />
    <glyph glyph-name="Ocircumflex" unicode="&#xd4;" horiz-adv-x="837" 
d="M404 -15q64 0 134.5 23t130 72t98 124t38.5 180q0 79 -29 141t-76.5 105.5t-108.5 66.5t-125 23q-65 0 -135.5 -23.5t-130 -72.5t-98 -125t-38.5 -181q0 -79 29 -141t77 -104.5t109 -65t125 -22.5zM419 125q-46 0 -82.5 15.5t-62 43t-39 64.5t-13.5 81q0 57 19.5 102.5
t51.5 77t73 48.5t84 17q46 0 82.5 -15.5t62 -42.5t39 -64t13.5 -81q0 -57 -19.5 -102.5t-51.5 -77.5t-73 -49t-84 -17zM300 738h114l87 63l69 -63h112l-148 203h-29z" />
    <glyph glyph-name="apple" unicode="&#xf8ff;" horiz-adv-x="819" 
d="M356 471h-304l238 -188l-105 -298l247 185l234 -185l-84 298l251 188h-304l-77 273z" />
    <glyph glyph-name="Ograve" unicode="&#xd2;" horiz-adv-x="837" 
d="M404 -15q64 0 134.5 23t130 72t98 124t38.5 180q0 79 -29 141t-76.5 105.5t-108.5 66.5t-125 23q-65 0 -135.5 -23.5t-130 -72.5t-98 -125t-38.5 -181q0 -79 29 -141t77 -104.5t109 -65t125 -22.5zM419 125q-46 0 -82.5 15.5t-62 43t-39 64.5t-13.5 81q0 57 19.5 102.5
t51.5 77t73 48.5t84 17q46 0 82.5 -15.5t62 -42.5t39 -64t13.5 -81q0 -57 -19.5 -102.5t-51.5 -77.5t-73 -49t-84 -17zM460 738h118l-71 182h-161z" />
    <glyph glyph-name="Uacute" unicode="&#xda;" horiz-adv-x="784" 
d="M372 -14q141 0 229 72.5t109 224.5l60 422h-150l-55 -397q-14 -96 -55.5 -139t-120.5 -43q-92 0 -123.5 48t-19.5 137l55 394h-156l-58 -415q-20 -144 54.5 -224t230.5 -80zM381 738h126l165 182h-169z" />
    <glyph glyph-name="Ucircumflex" unicode="&#xdb;" horiz-adv-x="784" 
d="M372 -14q141 0 229 72.5t109 224.5l60 422h-150l-55 -397q-14 -96 -55.5 -139t-120.5 -43q-92 0 -123.5 48t-19.5 137l55 394h-156l-58 -415q-20 -144 54.5 -224t230.5 -80zM273 738h114l87 63l69 -63h112l-148 203h-29z" />
    <glyph glyph-name="Ugrave" unicode="&#xd9;" horiz-adv-x="784" 
d="M372 -14q141 0 229 72.5t109 224.5l60 422h-150l-55 -397q-14 -96 -55.5 -139t-120.5 -43q-92 0 -123.5 48t-19.5 137l55 394h-156l-58 -415q-20 -144 54.5 -224t230.5 -80zM426 738h118l-71 182h-161z" />
    <glyph glyph-name="Euro" unicode="&#x20ac;" horiz-adv-x="742" 
d="M153 388q-5 -30 -6 -63h-106l-14 -98h130q13 -54 41.5 -97t70 -73t94.5 -45.5t115 -15.5q57 0 107 12t78 26l-31 115q-28 -10 -68.5 -18.5t-82.5 -8.5q-69 0 -111 28t-59 77h235l14 98h-263q1 17 2.5 32.5t4.5 30.5h265l14 96h-240q29 42 74.5 67t110.5 25q39 0 79 -7.5
t85 -28.5l55 119q-8 4 -26 12t-44 15.5t-61 13t-78 5.5q-60 0 -115 -14.5t-101 -43t-82.5 -69.5t-58.5 -94h-117l-14 -96h103z" />
    <glyph glyph-name="NUL" horiz-adv-x="0" 
 />
    <glyph glyph-name="Eth" unicode="&#xd0;" horiz-adv-x="755" 
d="M92 296l-42 -296h138q115 0 213 19t169.5 63.5t112 118.5t40.5 184q0 80 -34 140t-97 100t-151.5 60t-196.5 20h-95l-41 -292h-85l-17 -117h86zM264 413l21 147h7q134 0 202.5 -49t68.5 -144q0 -62 -21 -105t-60 -70t-94 -39.5t-124 -12.5h-38l22 156h157l16 117h-157z
" />
    </font>
</defs>
</svg>
