<?xml version="1.0" encoding="utf-8"?>
<!-- Generator: Adobe Illustrator 23.0.0, SVG Export Plug-In . SVG Version: 6.00 Build 0)  -->
<svg version="1.1" xmlns="http://www.w3.org/2000/svg" xmlns:xlink="http://www.w3.org/1999/xlink" x="0px" y="0px"
	 viewBox="0 0 1024 768" style="enable-background:new 0 0 1024 768;" xml:space="preserve">
<style type="text/css">
	.st0{display:none;}
	.st1{display:inline;fill:url(#SVGID_1_);}
	.st2{fill:#25A9E0;stroke:#231F20;stroke-width:2.5;stroke-miterlimit:10;}
	.st3{fill:none;stroke:#FFFFFF;stroke-miterlimit:10;}
	.st4{fill:none;stroke:#231F20;stroke-width:2.5;stroke-miterlimit:10;}
	.st5{fill:#3C3CFF;stroke:#000000;stroke-width:1.2712;stroke-linecap:round;stroke-linejoin:round;}
	.st6{fill:#FFFFFF;stroke:#000000;stroke-width:1.2712;stroke-linecap:round;stroke-linejoin:round;}
</style>
<g id="Layer_2" class="st0">
	<radialGradient id="SVGID_1_" cx="206.1544" cy="377.9174" r="64.6265" gradientUnits="userSpaceOnUse">
		<stop  offset="0" style="stop-color:#3C3CFF"/>
		<stop  offset="0.1033" style="stop-color:#4545FF"/>
		<stop  offset="0.2683" style="stop-color:#5C5CFF"/>
		<stop  offset="0.4745" style="stop-color:#8282FF"/>
		<stop  offset="0.7137" style="stop-color:#B6B6FF"/>
		<stop  offset="0.978" style="stop-color:#F9F9FF"/>
		<stop  offset="1" style="stop-color:#FFFFFF"/>
	</radialGradient>
	<circle class="st1" cx="206.15" cy="377.92" r="64.63"/>
</g>
<g id="Title">
	<g>
		<circle class="st2" cx="204.27" cy="374.2" r="58.36"/>
		<path class="st3" d="M193.96,316.63c-0.02,0.24-8.55,93.62,1.81,115.31"/>
		<path class="st3" d="M227.71,320.95c0.02-0.12,14.34,43.64-0.38,106.87"/>
		<path class="st3" d="M170.71,326.38c-0.26,0.26-30.38,42.23,0,95.06"/>
		<path class="st3" d="M166.77,329.57c-0.75,0.19-31.62,42.92,1.01,90.17"/>
		<path class="st3" d="M161.71,334.82c-0.75,0.19-27.35,41.79,2.27,81.35"/>
		<path class="st3" d="M259.96,358.07c-1.41-0.35-44.6-15.84-111.94,0"/>
		<path class="st3" d="M250.4,338.95c-0.99-0.33-42.96-33.68-92.44,0"/>
		<path class="st3" d="M260.88,388.45c0.19,0.56-0.73,0.56-0.73,0.56c0.5-0.06-74.26,9.18-112.13-0.56"/>
		<path class="st3" d="M254.81,404.01c0.1-0.05-52.2,27.17-100.22,0"/>
		<circle class="st4" cx="204.46" cy="374.38" r="58.36"/>
	</g>
	<g>
		<path d="M176.38,310.13c-2.56-0.88-4.78-2.17-6.66-3.88c-1.87-1.7-3.34-3.81-4.39-6.33c-1.06-2.52-1.58-5.44-1.58-8.76
			c0-4.74,0.82-8.8,2.46-12.18c1.64-3.38,3.75-6.16,6.33-8.34c2.59-2.18,5.48-3.78,8.69-4.82c3.21-1.03,6.39-1.55,9.53-1.55
			c1.94,0,3.74,0.12,5.4,0.36c1.66,0.24,3.13,0.53,4.43,0.87c1.29,0.35,2.39,0.69,3.3,1.03c0.9,0.35,1.57,0.65,2,0.91l-4.01,8.66
			c-1.55-0.73-3.32-1.33-5.3-1.81c-1.98-0.47-4.07-0.71-6.27-0.71c-2.5,0-4.75,0.41-6.75,1.23c-2,0.82-3.72,1.97-5.14,3.46
			c-1.42,1.49-2.51,3.29-3.26,5.4c-0.75,2.11-1.13,4.46-1.13,7.04c0,3.79,1.01,6.73,3.04,8.82c2.02,2.09,4.87,3.13,8.53,3.13
			c1.42,0,2.69-0.1,3.81-0.29c1.12-0.19,2.02-0.42,2.71-0.68l1.75-12.73h9.82l-2.71,19.07c-0.69,0.39-1.58,0.78-2.68,1.16
			s-2.36,0.75-3.78,1.1s-2.95,0.62-4.59,0.84c-1.64,0.21-3.34,0.32-5.11,0.32C181.75,311.46,178.94,311.02,176.38,310.13z"/>
		<path d="M217.32,264.15h9.44l-6.53,46.6h-9.44L217.32,264.15z"/>
		<path d="M239,310.2c-1.83-0.62-3.45-1.54-4.85-2.75s-2.52-2.68-3.36-4.43s-1.26-3.76-1.26-6.04c0-3.02,0.57-5.6,1.71-7.76
			c1.14-2.15,2.58-3.92,4.33-5.3c1.75-1.38,3.65-2.39,5.72-3.04c2.07-0.65,4.03-0.97,5.88-0.97c1.98,0,3.9,0.32,5.75,0.97
			s3.49,1.59,4.91,2.84c1.42,1.25,2.55,2.77,3.39,4.56c0.84,1.79,1.26,3.8,1.26,6.04c0,3.06-0.58,5.66-1.75,7.79
			c-1.16,2.13-2.62,3.87-4.36,5.2c-1.75,1.34-3.66,2.31-5.75,2.91c-2.09,0.6-4.06,0.9-5.91,0.9
			C242.74,311.14,240.84,310.82,239,310.2z M248.25,302.31c0.88-0.37,1.66-0.88,2.33-1.55c0.67-0.67,1.21-1.49,1.62-2.46
			c0.41-0.97,0.61-2.06,0.61-3.26c0-1.81-0.55-3.32-1.65-4.52c-1.1-1.21-2.64-1.81-4.62-1.81c-0.99,0-1.93,0.19-2.81,0.58
			c-0.88,0.39-1.66,0.93-2.33,1.62c-0.67,0.69-1.2,1.52-1.58,2.49s-0.58,2.04-0.58,3.2c0,1.77,0.54,3.25,1.62,4.46
			s2.65,1.81,4.72,1.81C246.47,302.86,247.36,302.68,248.25,302.31z"/>
		<path d="M275.29,310.75h-8.08l6.53-46.6h9.44l-2.52,18.16c1.03-0.52,2.23-0.98,3.59-1.39c1.36-0.41,2.66-0.61,3.91-0.61
			c2.2,0,4.11,0.37,5.75,1.1c1.64,0.73,2.99,1.71,4.07,2.94c1.08,1.23,1.88,2.65,2.39,4.27c0.52,1.62,0.78,3.33,0.78,5.14
			c0,2.46-0.37,4.75-1.1,6.88s-1.78,3.98-3.13,5.53c-1.36,1.55-3.03,2.77-5.01,3.65c-1.98,0.88-4.2,1.33-6.66,1.33
			c-2.07,0-3.83-0.24-5.27-0.71c-1.44-0.47-2.73-1.01-3.85-1.62L275.29,310.75z M277.88,301.96c0.86,0.3,1.7,0.51,2.52,0.61
			c0.82,0.11,1.75,0.16,2.78,0.16c2.63,0,4.66-0.68,6.11-2.04c1.44-1.36,2.17-3.26,2.17-5.72c0-1.72-0.55-3.13-1.65-4.23
			c-1.1-1.1-2.77-1.65-5.01-1.65c-1.03,0-1.98,0.09-2.84,0.26c-0.86,0.17-1.66,0.41-2.39,0.71L277.88,301.96z"/>
		<path d="M331.46,280.31h7.95l-4.27,30.44h-8.21l-0.19-1.94c-0.99,0.6-2.21,1.14-3.65,1.62c-1.44,0.47-2.88,0.71-4.3,0.71
			c-2.2,0-4.12-0.37-5.75-1.1c-1.64-0.73-2.98-1.71-4.04-2.94c-1.06-1.23-1.84-2.65-2.36-4.27c-0.52-1.62-0.78-3.33-0.78-5.14
			c0-2.46,0.37-4.74,1.1-6.85c0.73-2.11,1.78-3.95,3.13-5.53c1.36-1.57,3.02-2.8,4.98-3.68c1.96-0.88,4.17-1.33,6.62-1.33
			c2.07,0,3.8,0.25,5.2,0.74c1.4,0.5,2.62,1.05,3.65,1.65L331.46,280.31z M328.74,289.87c-0.86-0.3-1.65-0.5-2.36-0.61
			c-0.71-0.11-1.56-0.16-2.55-0.16c-2.63,0-4.66,0.69-6.11,2.06c-1.44,1.37-2.17,3.28-2.17,5.73c0,1.72,0.55,3.13,1.65,4.25
			c1.1,1.12,2.77,1.67,5.01,1.67c0.95,0,1.81-0.08,2.58-0.23c0.78-0.15,1.51-0.35,2.2-0.61L328.74,289.87z"/>
		<path d="M351.11,264.15h9.44l-6.53,46.6h-9.44L351.11,264.15z"/>
		<path d="M242.69,381.52c-2.74-0.93-5.1-2.27-7.08-4.04c-1.98-1.77-3.52-3.93-4.62-6.5s-1.63-5.5-1.58-8.82
			c0.04-4.57,0.86-8.52,2.46-11.86c1.59-3.34,3.64-6.1,6.14-8.27c2.5-2.17,5.28-3.79,8.34-4.85c3.06-1.05,6.1-1.58,9.11-1.58
			c2.11,0,4.03,0.12,5.75,0.36c1.72,0.24,3.23,0.53,4.52,0.87c1.29,0.35,2.39,0.71,3.3,1.1c0.91,0.39,1.59,0.73,2.07,1.03
			l-4.07,8.47c-1.81-0.82-3.65-1.44-5.53-1.87c-1.87-0.43-3.85-0.65-5.91-0.65c-2.28,0-4.38,0.4-6.3,1.2
			c-1.92,0.8-3.59,1.91-5.01,3.33s-2.53,3.13-3.33,5.14c-0.8,2-1.22,4.21-1.26,6.63c0,1.81,0.24,3.49,0.71,5.04
			c0.47,1.55,1.23,2.9,2.26,4.04s2.37,2.05,4.01,2.71c1.64,0.67,3.6,1,5.88,1c1.08,0,2.15-0.09,3.23-0.26
			c1.08-0.17,2.09-0.37,3.04-0.58c0.95-0.21,1.78-0.45,2.49-0.71s1.26-0.45,1.65-0.58l2,8.4c-0.56,0.26-1.32,0.54-2.26,0.84
			c-0.95,0.3-2.01,0.59-3.2,0.87c-1.19,0.28-2.45,0.51-3.78,0.68c-1.34,0.17-2.69,0.26-4.07,0.26
			C248.41,382.91,245.42,382.44,242.69,381.52z"/>
		<path d="M281.46,381.52c-1.83-0.62-3.45-1.54-4.85-2.75s-2.52-2.68-3.36-4.43s-1.26-3.76-1.26-6.04c0-3.02,0.57-5.6,1.71-7.76
			c1.14-2.15,2.58-3.92,4.33-5.3c1.75-1.38,3.65-2.39,5.72-3.04c2.07-0.65,4.03-0.97,5.88-0.97c1.98,0,3.9,0.32,5.75,0.97
			s3.49,1.59,4.91,2.84c1.42,1.25,2.55,2.77,3.39,4.56c0.84,1.79,1.26,3.8,1.26,6.04c0,3.06-0.58,5.66-1.75,7.79
			c-1.16,2.13-2.62,3.87-4.36,5.2c-1.75,1.34-3.66,2.31-5.75,2.91c-2.09,0.6-4.06,0.9-5.91,0.9
			C285.2,382.45,283.3,382.14,281.46,381.52z M290.71,373.63c0.88-0.37,1.66-0.88,2.33-1.55c0.67-0.67,1.21-1.49,1.62-2.46
			c0.41-0.97,0.61-2.06,0.61-3.26c0-1.81-0.55-3.32-1.65-4.52c-1.1-1.21-2.64-1.81-4.62-1.81c-0.99,0-1.93,0.19-2.81,0.58
			c-0.88,0.39-1.66,0.93-2.33,1.62c-0.67,0.69-1.2,1.52-1.58,2.49s-0.58,2.04-0.58,3.2c0,1.77,0.54,3.25,1.62,4.46
			s2.65,1.81,4.72,1.81C288.93,374.18,289.82,374,290.71,373.63z"/>
		<path d="M324.48,353.26c0.73-0.28,1.51-0.54,2.33-0.8c0.82-0.26,1.67-0.46,2.55-0.61c0.88-0.15,1.75-0.23,2.62-0.23
			c2.11,0,3.89,0.31,5.33,0.94c1.44,0.63,2.56,1.52,3.36,2.68c0.8,1.16,1.31,2.58,1.55,4.23c0.24,1.66,0.2,3.52-0.1,5.59l-2.39,17
			h-9.44l2.07-14.71c0.17-1.21,0.26-2.25,0.26-3.11c0-0.91-0.16-1.64-0.48-2.2s-0.83-0.97-1.52-1.23c-0.69-0.26-1.64-0.39-2.84-0.39
			c-1.25,0-2.34,0.11-3.26,0.32c-0.93,0.22-1.78,0.48-2.55,0.78l-2.84,20.55h-9.44l4.27-30.44h8.6v2.44
			C323.1,353.81,323.74,353.54,324.48,353.26z"/>
		<path d="M348.07,359.12l1.1-7.5h5.36l1.36-9.69h9.44l-1.36,9.69h8.4l-1.03,7.5h-8.4l-1.49,10.54c-0.3,2.07-0.13,3.47,0.52,4.2
			c0.65,0.73,1.87,1.1,3.68,1.1c1.21,0,2.5-0.06,3.88-0.19l-0.19,7.04c-0.73,0.17-1.71,0.32-2.94,0.45
			c-1.23,0.13-2.53,0.19-3.91,0.19c-1.68,0-3.24-0.17-4.69-0.52c-1.44-0.34-2.66-0.99-3.65-1.94c-0.99-0.95-1.69-2.25-2.1-3.91
			c-0.41-1.66-0.42-3.8-0.03-6.43l1.49-10.54H348.07z"/>
		<path d="M386.97,373.76c1.29,0.8,3.17,1.2,5.62,1.2c0.73,0,1.52-0.03,2.36-0.1c0.84-0.07,1.67-0.16,2.49-0.29
			c0.82-0.13,1.57-0.28,2.26-0.45s1.27-0.34,1.75-0.52l1.1,7.04c-0.6,0.26-1.36,0.5-2.26,0.71c-0.9,0.22-1.87,0.4-2.91,0.55
			s-2.09,0.28-3.17,0.39c-1.08,0.11-2.07,0.16-2.97,0.16c-5.04,0-8.98-1.2-11.83-3.59s-4.27-5.74-4.27-10.05
			c0-3.19,0.57-5.9,1.71-8.14c1.14-2.24,2.57-4.06,4.3-5.46c1.72-1.4,3.59-2.41,5.59-3.04c2-0.62,3.85-0.94,5.53-0.94
			c2.11,0,4.08,0.3,5.91,0.91c1.83,0.6,3.36,1.64,4.59,3.1c1.23,1.47,2.11,3.43,2.65,5.88c0.54,2.46,0.59,5.54,0.16,9.24h-21.07
			C384.86,371.83,385.68,372.96,386.97,373.76z M397.38,364.1c0.04-2.02-0.37-3.47-1.23-4.33c-0.86-0.86-2.26-1.29-4.2-1.29
			c-1.59,0-3.01,0.46-4.23,1.39c-1.23,0.93-2.14,2.34-2.75,4.23H397.38z"/>
		<path d="M443.46,353.69c0.9-0.39,1.87-0.73,2.91-1.03c1.03-0.3,2.08-0.55,3.13-0.74c1.05-0.19,2.1-0.29,3.13-0.29
			c2.11,0,3.87,0.31,5.27,0.94c1.4,0.63,2.48,1.52,3.23,2.68c0.75,1.16,1.23,2.58,1.42,4.23c0.19,1.66,0.14,3.52-0.16,5.59l-2.39,17
			h-9.37l2-14.71c0.17-1.21,0.28-2.26,0.32-3.14c0.04-0.89-0.08-1.61-0.36-2.17c-0.28-0.56-0.74-0.97-1.39-1.23
			c-0.65-0.26-1.57-0.39-2.78-0.39c-1.21,0-2.25,0.11-3.13,0.32c-0.88,0.22-1.69,0.45-2.42,0.71c0,0.56-0.02,1.15-0.06,1.75
			c-0.04,0.61-0.11,1.21-0.19,1.81l-2.39,17.05h-9.44l2.07-14.71c0.17-1.21,0.28-2.26,0.32-3.14c0.04-0.89-0.08-1.61-0.36-2.17
			c-0.28-0.56-0.74-0.97-1.39-1.23c-0.65-0.26-1.57-0.39-2.78-0.39c-1.25,0-2.31,0.11-3.17,0.32c-0.86,0.22-1.66,0.48-2.39,0.78
			l-2.84,20.55h-9.44l4.27-30.44h8.6v2.44c1.12-0.51,2.5-1.05,4.14-1.6c1.64-0.55,3.32-0.83,5.04-0.83c2.07,0,3.77,0.28,5.11,0.84
			c1.33,0.56,2.37,1.36,3.1,2.39C441.76,354.47,442.56,354.08,443.46,353.69z"/>
		<path d="M485.37,352.3c1.49-0.45,2.92-0.68,4.3-0.68c2.24,0,4.17,0.37,5.78,1.1c1.62,0.73,2.96,1.71,4.04,2.94
			c1.08,1.23,1.88,2.65,2.39,4.27c0.52,1.62,0.78,3.33,0.78,5.14c0,2.46-0.37,4.75-1.1,6.88s-1.78,3.98-3.13,5.53
			c-1.36,1.55-3.03,2.77-5.01,3.65c-1.98,0.88-4.2,1.33-6.66,1.33c-1.85,0-3.46-0.19-4.82-0.58c-1.36-0.39-2.55-0.84-3.59-1.36
			l-1.94,14.02h-9.44l6.01-42.92h8.6v2.26C482.63,353.28,483.89,352.75,485.37,352.3z M481.92,373.89c0.82,0.11,1.75,0.16,2.78,0.16
			c2.63,0,4.66-0.68,6.11-2.04c1.44-1.36,2.17-3.26,2.17-5.72c0-1.72-0.55-3.13-1.65-4.23c-1.1-1.1-2.77-1.65-5.01-1.65
			c-1.08,0-2.04,0.09-2.88,0.26c-0.84,0.17-1.65,0.41-2.42,0.71l-1.62,11.89C480.26,373.58,481.1,373.78,481.92,373.89z"/>
		<path d="M516.78,381.52c-1.83-0.62-3.45-1.54-4.85-2.75s-2.52-2.68-3.36-4.43s-1.26-3.76-1.26-6.04c0-3.02,0.57-5.6,1.71-7.76
			c1.14-2.15,2.58-3.92,4.33-5.3c1.75-1.38,3.65-2.39,5.72-3.04c2.07-0.65,4.03-0.97,5.88-0.97c1.98,0,3.9,0.32,5.75,0.97
			s3.49,1.59,4.91,2.84c1.42,1.25,2.55,2.77,3.39,4.56c0.84,1.79,1.26,3.8,1.26,6.04c0,3.06-0.58,5.66-1.75,7.79
			c-1.16,2.13-2.62,3.87-4.36,5.2c-1.75,1.34-3.66,2.31-5.75,2.91c-2.09,0.6-4.06,0.9-5.91,0.9
			C520.52,382.45,518.62,382.14,516.78,381.52z M526.03,373.63c0.88-0.37,1.66-0.88,2.33-1.55c0.67-0.67,1.21-1.49,1.62-2.46
			c0.41-0.97,0.61-2.06,0.61-3.26c0-1.81-0.55-3.32-1.65-4.52c-1.1-1.21-2.64-1.81-4.62-1.81c-0.99,0-1.93,0.19-2.81,0.58
			c-0.88,0.39-1.66,0.93-2.33,1.62c-0.67,0.69-1.2,1.52-1.58,2.49s-0.58,2.04-0.58,3.2c0,1.77,0.54,3.25,1.62,4.46
			s2.65,1.81,4.72,1.81C524.25,374.18,525.14,374,526.03,373.63z"/>
		<path d="M562.28,352.82c1.75-0.8,3.65-1.37,5.72-1.71l-1.23,8.79c-2.28,0.35-4.17,0.8-5.66,1.36c-1.49,0.56-2.85,1.23-4.1,2
			l-2.59,18.81H545l4.27-30.44h8.6v3.62C559.06,354.43,560.54,353.62,562.28,352.82z"/>
		<path d="M595.21,351.62h7.95l-4.27,30.44h-8.21l-0.19-1.94c-0.99,0.6-2.21,1.14-3.65,1.62c-1.44,0.47-2.88,0.71-4.3,0.71
			c-2.2,0-4.12-0.37-5.75-1.1c-1.64-0.73-2.98-1.71-4.04-2.94c-1.06-1.23-1.84-2.65-2.36-4.27c-0.52-1.62-0.78-3.33-0.78-5.14
			c0-2.46,0.37-4.74,1.1-6.85c0.73-2.11,1.78-3.95,3.13-5.53c1.36-1.57,3.02-2.8,4.98-3.68c1.96-0.88,4.17-1.33,6.62-1.33
			c2.07,0,3.8,0.25,5.2,0.74c1.4,0.5,2.62,1.05,3.65,1.65L595.21,351.62z M592.5,361.19c-0.86-0.3-1.65-0.5-2.36-0.61
			c-0.71-0.11-1.56-0.16-2.55-0.16c-2.63,0-4.66,0.69-6.11,2.06c-1.44,1.37-2.17,3.28-2.17,5.73c0,1.72,0.55,3.13,1.65,4.25
			c1.1,1.12,2.77,1.67,5.01,1.67c0.95,0,1.81-0.08,2.58-0.23c0.78-0.15,1.51-0.35,2.2-0.61L592.5,361.19z"/>
		<path d="M625.3,352.82c1.75-0.8,3.65-1.37,5.72-1.71l-1.23,8.79c-2.28,0.35-4.17,0.8-5.66,1.36c-1.49,0.56-2.85,1.23-4.1,2
			l-2.59,18.81h-9.44l4.27-30.44h8.6v3.62C622.08,354.43,623.55,353.62,625.3,352.82z"/>
		<path d="M633.54,351.62h9.69l4.78,18.23l10.41-18.23h9.44l-24.63,42.92h-9.37l7.69-13.44L633.54,351.62z"/>
		<path d="M313.75,453.38H303.4l28.31-46.15h3.17l15.96,46.15H340.5l-2.2-6.79h-20.55L313.75,453.38z M330.94,424.23l-8.53,14.41
			h13.25L330.94,424.23z"/>
		<path d="M373.56,424.14c1.75-0.8,3.65-1.37,5.72-1.71l-1.23,8.79c-2.28,0.35-4.17,0.8-5.66,1.36c-1.49,0.56-2.85,1.23-4.1,2
			l-2.59,18.81h-9.44l4.27-30.44h8.6v3.62C370.34,425.74,371.82,424.93,373.56,424.14z"/>
		<path d="M382.58,430.44l1.1-7.5h5.36l1.36-9.69h9.44l-1.36,9.69h8.4l-1.03,7.5h-8.4l-1.49,10.54c-0.3,2.07-0.13,3.47,0.52,4.2
			c0.65,0.73,1.87,1.1,3.68,1.1c1.21,0,2.5-0.06,3.88-0.19l-0.19,7.04c-0.73,0.17-1.71,0.32-2.94,0.45
			c-1.23,0.13-2.53,0.19-3.91,0.19c-1.68,0-3.24-0.17-4.69-0.52c-1.44-0.34-2.66-0.99-3.65-1.94c-0.99-0.95-1.69-2.25-2.1-3.91
			c-0.41-1.66-0.42-3.8-0.03-6.43l1.49-10.54H382.58z"/>
		<path d="M432.6,417.06l1.36-9.24h40.01l-1.36,9.24h-14.74l-5.11,36.32h-10.21l5.11-36.32H432.6z"/>
		<path d="M476.19,452.83c-1.83-0.62-3.45-1.54-4.85-2.75s-2.52-2.68-3.36-4.43s-1.26-3.76-1.26-6.04c0-3.02,0.57-5.6,1.71-7.76
			c1.14-2.15,2.58-3.92,4.33-5.3c1.75-1.38,3.65-2.39,5.72-3.04c2.07-0.65,4.03-0.97,5.88-0.97c1.98,0,3.9,0.32,5.75,0.97
			s3.49,1.59,4.91,2.84c1.42,1.25,2.55,2.77,3.39,4.56c0.84,1.79,1.26,3.8,1.26,6.04c0,3.06-0.58,5.66-1.75,7.79
			c-1.16,2.13-2.62,3.87-4.36,5.2c-1.75,1.34-3.66,2.31-5.75,2.91c-2.09,0.6-4.06,0.9-5.91,0.9
			C479.93,453.77,478.02,453.46,476.19,452.83z M485.43,444.95c0.88-0.37,1.66-0.88,2.33-1.55c0.67-0.67,1.21-1.49,1.62-2.46
			c0.41-0.97,0.61-2.06,0.61-3.26c0-1.81-0.55-3.32-1.65-4.52c-1.1-1.21-2.64-1.81-4.62-1.81c-0.99,0-1.93,0.19-2.81,0.58
			c-0.88,0.39-1.66,0.93-2.33,1.62c-0.67,0.69-1.2,1.52-1.58,2.49s-0.58,2.04-0.58,3.2c0,1.77,0.54,3.25,1.62,4.46
			s2.65,1.81,4.72,1.81C483.66,445.5,484.55,445.31,485.43,444.95z"/>
		<path d="M528.7,422.94h9.44l-4.33,30.44h-8.08l-0.19-2.07c-0.56,0.26-1.21,0.53-1.94,0.81c-0.73,0.28-1.52,0.55-2.36,0.81
			c-0.84,0.26-1.7,0.46-2.58,0.61c-0.88,0.15-1.76,0.23-2.62,0.23c-4.27,0-7.19-1.2-8.76-3.59c-1.57-2.39-2.06-5.68-1.45-9.86
			l2.46-17.39h9.44l-2.13,15.32c-0.17,1.25-0.26,2.31-0.26,3.17c0,0.86,0.16,1.57,0.48,2.13c0.32,0.56,0.83,0.97,1.52,1.23
			c0.69,0.26,1.64,0.39,2.84,0.39c1.16,0,2.2-0.11,3.1-0.32c0.91-0.21,1.72-0.45,2.46-0.71L528.7,422.94z"/>
		<path d="M560.21,424.14c1.75-0.8,3.65-1.37,5.72-1.71l-1.23,8.79c-2.28,0.35-4.17,0.8-5.66,1.36c-1.49,0.56-2.85,1.23-4.1,2
			l-2.59,18.81h-9.44l4.27-30.44h8.6v3.62C556.99,425.74,558.47,424.93,560.21,424.14z"/>
		<path d="M571.59,452.87c-2.43-0.6-4.19-1.16-5.27-1.68l2.84-7.24c0.47,0.22,1.17,0.46,2.1,0.74c0.93,0.28,1.97,0.54,3.13,0.78
			c1.16,0.24,2.37,0.43,3.62,0.58c1.25,0.15,2.41,0.23,3.49,0.23c1.98,0,3.35-0.12,4.1-0.36c0.75-0.24,1.13-0.79,1.13-1.65
			c0-0.6-0.42-1.07-1.26-1.39s-1.9-0.61-3.17-0.87c-1.27-0.26-2.64-0.57-4.1-0.94c-1.46-0.37-2.83-0.87-4.1-1.52
			c-1.27-0.65-2.33-1.52-3.17-2.62s-1.26-2.53-1.26-4.3c0-1.59,0.33-3.03,1-4.3c0.67-1.27,1.62-2.33,2.84-3.17
			c1.23-0.84,2.7-1.49,4.43-1.94c1.72-0.45,3.64-0.68,5.75-0.68c3.14,0,5.76,0.21,7.85,0.64c2.09,0.43,3.82,0.94,5.2,1.54
			l-2.91,7.26c-0.6-0.26-1.32-0.5-2.13-0.71c-0.82-0.22-1.71-0.42-2.68-0.61c-0.97-0.19-1.96-0.34-2.97-0.45
			c-1.01-0.11-1.99-0.16-2.94-0.16c-1.46,0-2.52,0.11-3.17,0.32c-0.65,0.22-0.97,0.74-0.97,1.56c0,0.56,0.42,1,1.26,1.33
			c0.84,0.32,1.9,0.63,3.17,0.91c1.27,0.28,2.65,0.61,4.14,0.97s2.87,0.88,4.14,1.52c1.27,0.65,2.33,1.5,3.17,2.56
			c0.84,1.06,1.26,2.43,1.26,4.12c0,3.63-1.37,6.28-4.1,7.94s-6.58,2.49-11.54,2.49C576.98,453.77,574.02,453.47,571.59,452.87z"/>
		<path d="M635.83,452.77c-2.56-0.88-4.78-2.17-6.66-3.88c-1.87-1.7-3.34-3.81-4.39-6.33c-1.06-2.52-1.58-5.44-1.58-8.76
			c0-4.74,0.82-8.8,2.46-12.18c1.64-3.38,3.75-6.16,6.33-8.34c2.59-2.18,5.48-3.78,8.69-4.82c3.21-1.03,6.39-1.55,9.53-1.55
			c1.94,0,3.74,0.12,5.4,0.36c1.66,0.24,3.13,0.53,4.43,0.87c1.29,0.35,2.39,0.69,3.3,1.03c0.9,0.35,1.57,0.65,2,0.91l-4.01,8.66
			c-1.55-0.73-3.32-1.33-5.3-1.81c-1.98-0.47-4.07-0.71-6.27-0.71c-2.5,0-4.75,0.41-6.75,1.23c-2,0.82-3.72,1.97-5.14,3.46
			c-1.42,1.49-2.51,3.29-3.26,5.4c-0.75,2.11-1.13,4.46-1.13,7.04c0,3.79,1.01,6.73,3.04,8.82c2.02,2.09,4.87,3.13,8.53,3.13
			c1.42,0,2.69-0.1,3.81-0.29c1.12-0.19,2.02-0.42,2.71-0.68l1.75-12.73h9.82l-2.71,19.07c-0.69,0.39-1.58,0.78-2.68,1.16
			s-2.36,0.75-3.78,1.1s-2.95,0.62-4.59,0.84c-1.64,0.21-3.34,0.32-5.11,0.32C641.2,454.09,638.39,453.65,635.83,452.77z"/>
		<path d="M687.21,424.14c1.75-0.8,3.65-1.37,5.72-1.71l-1.23,8.79c-2.28,0.35-4.17,0.8-5.66,1.36c-1.49,0.56-2.85,1.23-4.1,2
			l-2.59,18.81h-9.44l4.27-30.44h8.6v3.62C683.99,425.74,685.47,424.93,687.21,424.14z"/>
		<path d="M703.95,452.83c-1.83-0.62-3.45-1.54-4.85-2.75s-2.52-2.68-3.36-4.43s-1.26-3.76-1.26-6.04c0-3.02,0.57-5.6,1.71-7.76
			c1.14-2.15,2.58-3.92,4.33-5.3c1.75-1.38,3.65-2.39,5.72-3.04c2.07-0.65,4.03-0.97,5.88-0.97c1.98,0,3.9,0.32,5.75,0.97
			s3.49,1.59,4.91,2.84c1.42,1.25,2.55,2.77,3.39,4.56c0.84,1.79,1.26,3.8,1.26,6.04c0,3.06-0.58,5.66-1.75,7.79
			c-1.16,2.13-2.62,3.87-4.36,5.2c-1.75,1.34-3.66,2.31-5.75,2.91c-2.09,0.6-4.06,0.9-5.91,0.9
			C707.69,453.77,705.78,453.46,703.95,452.83z M713.19,444.95c0.88-0.37,1.66-0.88,2.33-1.55c0.67-0.67,1.21-1.49,1.62-2.46
			c0.41-0.97,0.61-2.06,0.61-3.26c0-1.81-0.55-3.32-1.65-4.52c-1.1-1.21-2.64-1.81-4.62-1.81c-0.99,0-1.93,0.19-2.81,0.58
			c-0.88,0.39-1.66,0.93-2.33,1.62c-0.67,0.69-1.2,1.52-1.58,2.49s-0.58,2.04-0.58,3.2c0,1.77,0.54,3.25,1.62,4.46
			s2.65,1.81,4.72,1.81C711.41,445.5,712.31,445.31,713.19,444.95z"/>
		<path d="M756.46,422.94h9.44l-4.33,30.44h-8.08l-0.19-2.07c-0.56,0.26-1.21,0.53-1.94,0.81c-0.73,0.28-1.52,0.55-2.36,0.81
			c-0.84,0.26-1.7,0.46-2.58,0.61c-0.88,0.15-1.76,0.23-2.62,0.23c-4.27,0-7.19-1.2-8.76-3.59c-1.57-2.39-2.06-5.68-1.45-9.86
			l2.46-17.39h9.44l-2.13,15.32c-0.17,1.25-0.26,2.31-0.26,3.17c0,0.86,0.16,1.57,0.48,2.13c0.32,0.56,0.83,0.97,1.52,1.23
			c0.69,0.26,1.64,0.39,2.84,0.39c1.16,0,2.2-0.11,3.1-0.32c0.91-0.21,1.72-0.45,2.46-0.71L756.46,422.94z"/>
		<path d="M787.32,423.62c1.49-0.45,2.92-0.68,4.3-0.68c2.24,0,4.17,0.37,5.78,1.1c1.62,0.73,2.96,1.71,4.04,2.94
			c1.08,1.23,1.88,2.65,2.39,4.27c0.52,1.62,0.78,3.33,0.78,5.14c0,2.46-0.37,4.75-1.1,6.88s-1.78,3.98-3.13,5.53
			c-1.36,1.55-3.03,2.77-5.01,3.65c-1.98,0.88-4.2,1.33-6.66,1.33c-1.85,0-3.46-0.19-4.82-0.58c-1.36-0.39-2.55-0.84-3.59-1.36
			l-1.94,14.02h-9.44l6.01-42.92h8.6v2.26C784.58,424.6,785.84,424.07,787.32,423.62z M783.87,445.21c0.82,0.11,1.75,0.16,2.78,0.16
			c2.63,0,4.66-0.68,6.11-2.04c1.44-1.36,2.17-3.26,2.17-5.72c0-1.72-0.55-3.13-1.65-4.23c-1.1-1.1-2.77-1.65-5.01-1.65
			c-1.08,0-2.04,0.09-2.88,0.26c-0.84,0.17-1.65,0.41-2.42,0.71l-1.62,11.89C782.21,444.89,783.05,445.1,783.87,445.21z"/>
		<path d="M812.3,442.46h11.57l-10.73,21.07h-7.69L812.3,442.46z"/>
		<path d="M844.1,407.82h10.08l-5.11,36.65h21.13l-1.23,8.92H837.7L844.1,407.82z"/>
		<path d="M872.99,417.06l1.36-9.24h40.01l-1.36,9.24h-14.74l-5.11,36.32h-10.21l5.11-36.32H872.99z"/>
		<path d="M921.53,407.82h6.14c4.65,0,8.89,0.43,12.7,1.29c3.81,0.86,7.08,2.16,9.79,3.88c2.71,1.72,4.8,3.88,6.27,6.46
			c1.46,2.59,2.2,5.6,2.2,9.05c0,4.74-0.87,8.7-2.62,11.89c-1.75,3.19-4.15,5.74-7.21,7.66c-3.06,1.92-6.71,3.29-10.96,4.1
			c-4.24,0.82-8.84,1.23-13.8,1.23h-8.92L921.53,407.82z M929.02,444.33c2.97,0,5.64-0.27,8.01-0.81c2.37-0.54,4.39-1.39,6.08-2.55
			s2.97-2.67,3.88-4.52c0.9-1.85,1.36-4.11,1.36-6.79c0-4.09-1.48-7.2-4.43-9.31c-2.95-2.11-7.31-3.17-13.09-3.17h-0.45l-3.81,27.14
			H929.02z"/>
	</g>
	<path class="st5" d="M297,457.28c-23.18,23.18-55.21,37.52-90.59,37.52c-70.76,0-128.12-57.36-128.12-128.12
		c0-35.38,14.34-67.41,37.52-90.59l0.03-0.03c1.6-1.6,3.79-2.52,6.22-2.52c4.87,0,8.82,3.95,8.82,8.82c0,2.44-0.97,4.68-2.57,6.27
		c-21.58,21.58-34.93,51.4-34.93,84.34c0,65.87,53.4,119.27,119.27,119.27C245.6,492.25,275.42,478.87,297,457.28z"/>
	<path class="st5" d="M155.91,314.4c1.1-1.1,1.77-2.65,1.77-4.32c0-3.36-2.72-6.08-6.08-6.08c-1.68,0-3.17,0.62-4.27,1.72
		l-0.04,0.03c-15.98,15.98-25.87,38.06-25.87,62.45c0,48.78,39.54,88.32,88.32,88.32c24.39,0,46.47-9.89,62.45-25.87v0.03
		c-14.88,14.88-35.44,24.08-58.14,24.08c-45.41,0-82.23-36.81-82.23-82.23C131.83,349.84,141.03,329.28,155.91,314.4z"/>
	<path class="st6" d="M247.23,404.26c-8.78,8.78-20.91,14.21-34.32,14.21c-26.8,0-48.53-21.73-48.53-48.53
		c0-13.4,5.43-25.53,14.21-34.32l0.02-0.02c0.6-0.6,1.43-0.94,2.35-0.94c1.85,0,3.34,1.5,3.34,3.34c0,0.92-0.37,1.76-0.98,2.36
		c-8.18,8.18-13.23,19.48-13.23,31.96c0,24.95,20.23,45.18,45.18,45.18C227.76,417.5,239.05,412.43,247.23,404.26z"/>
</g>
</svg>
