<?xml version="1.0" encoding="utf-8"?>
<!-- Generator: Adobe Illustrator 23.0.0, SVG Export Plug-In . SVG Version: 6.00 Build 0)  -->
<svg version="1.1" id="Layer_1" xmlns="http://www.w3.org/2000/svg" xmlns:xlink="http://www.w3.org/1999/xlink" x="0px" y="0px"
	 viewBox="0 0 764 309.95" style="enable-background:new 0 0 764 309.95;" xml:space="preserve">
<style type="text/css">
	.st0{fill:#FFFFFF;stroke:#0000FF;stroke-width:1.6542;stroke-linecap:round;stroke-linejoin:round;}
</style>
<g id="Title">
	<path class="st0" d="M152.51,6.12c-37.19,0-74.39,14.19-102.76,42.57C-7,105.44-7,197.46,49.75,254.22
		c28.38,28.38,65.57,42.57,102.76,42.57h0.05c2.56,0,5.06-1.02,7.01-2.97c3.91-3.91,3.91-10.24,0-14.15
		c-1.95-1.95-4.53-2.97-7.09-2.97c-34.62,0-69.25-13.21-95.67-39.63c-52.84-52.84-52.84-138.5,0-191.33
		C83.24,19.3,117.89,6.12,152.51,6.12z"/>
	<path class="st0" d="M153.95,233.89c1.77,0,3.54,0.7,4.89,2.05c2.69,2.69,2.69,7.06,0,9.76c-1.35,1.35-3.04,2.04-4.81,2.04
		l-0.06,0.01c-25.64,0-51.28-9.78-70.84-29.34C44,179.28,44,115.85,83.13,76.72c19.56-19.56,45.2-29.34,70.84-29.34l-0.02-0.02
		c-23.87,0-47.74,9.11-65.95,27.32c-36.42,36.42-36.42,95.48,0,131.9C106.21,224.79,130.08,233.89,153.95,233.89z"/>
	<path class="st0" d="M155.13,88.58c-14.09,0-28.18,5.37-38.93,16.12c-21.5,21.5-21.5,56.35,0,77.85
		c10.75,10.75,24.84,16.12,38.93,16.12h0.04c0.97,0,1.9-0.39,2.64-1.13c1.48-1.48,1.48-3.88,0-5.36c-0.74-0.74-1.71-1.11-2.68-1.11
		c-13.12,0-26.24-5.02-36.24-15.03c-20.01-20.01-20.01-52.46,0-72.47C128.88,93.57,142.01,88.58,155.13,88.58z"/>
	<g>
		<path d="M214.31,195.84c-6.46-2.23-12.06-5.48-16.78-9.78c-4.72-4.29-8.42-9.61-11.08-15.97c-2.66-6.35-3.99-13.71-3.99-22.08
			c0-11.95,2.06-22.19,6.19-30.72s9.45-15.53,15.97-21.02c6.52-5.48,13.82-9.53,21.92-12.14c8.09-2.61,16.1-3.91,24.04-3.91
			c4.89,0,9.42,0.3,13.61,0.9c4.18,0.6,7.9,1.33,11.16,2.2c3.26,0.87,6.03,1.74,8.31,2.61s3.96,1.63,5.05,2.28l-10.1,21.83
			c-3.91-1.85-8.37-3.37-13.36-4.56c-5-1.19-10.27-1.79-15.81-1.79c-6.3,0-11.98,1.03-17.03,3.1c-5.05,2.06-9.37,4.97-12.95,8.72
			c-3.58,3.75-6.33,8.29-8.23,13.61c-1.9,5.32-2.85,11.24-2.85,17.76c0,9.56,2.55,16.97,7.66,22.24c5.1,5.27,12.27,7.9,21.51,7.9
			c3.58,0,6.79-0.24,9.61-0.73c2.82-0.49,5.1-1.06,6.84-1.71l4.4-32.1h24.77l-6.84,48.07c-1.74,0.98-3.99,1.96-6.76,2.93
			c-2.77,0.98-5.95,1.9-9.53,2.77s-7.44,1.57-11.57,2.12c-4.13,0.54-8.42,0.81-12.87,0.81
			C227.86,199.18,220.77,198.07,214.31,195.84z"/>
		<path d="M338.96,196.01c-6.9-2.33-12.85-5.73-17.84-10.18c-5-4.45-8.88-9.91-11.65-16.38c-2.77-6.46-4.1-13.88-3.99-22.24
			c0.11-11.51,2.17-21.48,6.19-29.9c4.02-8.42,9.18-15.37,15.48-20.86c6.3-5.48,13.31-9.56,21.02-12.22s15.37-3.99,22.98-3.99
			c5.32,0,10.16,0.3,14.5,0.9s8.15,1.33,11.41,2.2c3.26,0.87,6.03,1.79,8.31,2.77c2.28,0.98,4.02,1.85,5.21,2.61l-10.27,21.35
			c-4.56-2.06-9.21-3.64-13.93-4.73c-4.73-1.08-9.7-1.63-14.91-1.63c-5.76,0-11.06,1.01-15.89,3.01c-4.83,2.01-9.04,4.81-12.63,8.39
			c-3.58,3.58-6.38,7.9-8.39,12.95c-2.01,5.05-3.07,10.62-3.18,16.7c0,4.56,0.6,8.8,1.79,12.71s3.1,7.31,5.7,10.18
			c2.61,2.88,5.97,5.16,10.1,6.84c4.13,1.69,9.07,2.52,14.83,2.52c2.71,0,5.43-0.22,8.15-0.65c2.71-0.43,5.27-0.92,7.66-1.47
			c2.39-0.54,4.48-1.14,6.27-1.79c1.79-0.65,3.18-1.14,4.16-1.47l5.05,21.18c-1.41,0.65-3.31,1.36-5.7,2.12s-5.08,1.5-8.07,2.2
			c-2.99,0.71-6.17,1.28-9.53,1.71c-3.37,0.43-6.79,0.65-10.27,0.65C353.38,199.51,345.86,198.34,338.96,196.01z"/>
		<path d="M438.11,197.39h-26.07l71.37-116.34h7.98l40.25,116.34h-26.07l-5.54-17.11h-51.82L438.11,197.39z M481.46,123.9
			l-21.51,36.34h33.4L481.46,123.9z"/>
		<path d="M540.44,105.82l3.42-23.3h100.86l-3.42,23.3h-37.15l-12.87,91.58h-25.75l12.87-91.58H540.44z"/>
		<path d="M681.31,195.84c-6.46-2.23-12.06-5.48-16.78-9.78c-4.72-4.29-8.42-9.61-11.08-15.97c-2.66-6.35-3.99-13.71-3.99-22.08
			c0-11.95,2.06-22.19,6.19-30.72s9.45-15.53,15.97-21.02c6.52-5.48,13.82-9.53,21.92-12.14c8.09-2.61,16.1-3.91,24.04-3.91
			c4.89,0,9.42,0.3,13.61,0.9c4.18,0.6,7.9,1.33,11.16,2.2c3.26,0.87,6.03,1.74,8.31,2.61c2.28,0.87,3.96,1.63,5.05,2.28
			l-10.1,21.83c-3.91-1.85-8.37-3.37-13.36-4.56c-5-1.19-10.27-1.79-15.81-1.79c-6.3,0-11.98,1.03-17.03,3.1
			c-5.05,2.06-9.37,4.97-12.95,8.72s-6.33,8.29-8.23,13.61c-1.9,5.32-2.85,11.24-2.85,17.76c0,9.56,2.55,16.97,7.66,22.24
			c5.1,5.27,12.27,7.9,21.51,7.9c3.58,0,6.79-0.24,9.61-0.73c2.82-0.49,5.1-1.06,6.84-1.71l4.4-32.1h24.77l-6.84,48.07
			c-1.74,0.98-3.99,1.96-6.76,2.93c-2.77,0.98-5.95,1.9-9.53,2.77s-7.44,1.57-11.57,2.12c-4.13,0.54-8.42,0.81-12.87,0.81
			C694.86,199.18,687.77,198.07,681.31,195.84z"/>
	</g>
	<g>
		<path d="M272.9,256.36c-1.54-0.54-2.92-1.37-4.13-2.51s-2.18-2.57-2.91-4.31s-1.09-3.8-1.09-6.21c0-2.38,0.36-4.44,1.09-6.19
			s1.71-3.2,2.95-4.35c1.24-1.15,2.67-2,4.29-2.55s3.33-0.82,5.11-0.82c1.23,0,2.4,0.1,3.52,0.31c1.12,0.2,1.99,0.45,2.6,0.73
			l-0.96,3.06c-0.66-0.23-1.47-0.43-2.43-0.59c-0.96-0.17-1.83-0.25-2.62-0.25c-1.46,0-2.8,0.23-4.02,0.69
			c-1.23,0.46-2.29,1.14-3.2,2.03c-0.91,0.89-1.61,2-2.11,3.33s-0.75,2.86-0.75,4.6c0,1.76,0.25,3.31,0.75,4.63
			c0.5,1.33,1.17,2.44,2.03,3.33c0.86,0.89,1.86,1.56,3.01,2.01c1.15,0.45,2.38,0.67,3.68,0.67c0.77,0,1.47-0.06,2.11-0.17
			c0.64-0.11,1.17-0.24,1.61-0.36v-9.61h3.26v11.99c-1.02,0.41-2.19,0.73-3.5,0.98c-1.31,0.24-2.49,0.36-3.54,0.36
			C276.03,257.17,274.44,256.9,272.9,256.36z"/>
		<path d="M292.51,229.36h3.26v27.42h-3.26V229.36z"/>
		<path d="M307.16,256.42c-1.01-0.4-1.9-0.97-2.66-1.72c-0.77-0.75-1.38-1.69-1.84-2.81s-0.69-2.41-0.69-3.87s0.23-2.75,0.69-3.89
			s1.07-2.09,1.84-2.85c0.77-0.77,1.65-1.35,2.66-1.76s2.06-0.61,3.16-0.61s2.16,0.21,3.18,0.61c1.02,0.41,1.92,1,2.7,1.76
			c0.78,0.77,1.4,1.72,1.86,2.85c0.46,1.14,0.69,2.43,0.69,3.89c0,1.46-0.23,2.75-0.69,3.87s-1.08,2.06-1.86,2.81
			s-1.68,1.33-2.7,1.72c-1.02,0.4-2.08,0.59-3.18,0.59S308.16,256.82,307.16,256.42z M312.29,253.59c0.63-0.27,1.17-0.66,1.65-1.17
			c0.47-0.51,0.85-1.14,1.13-1.88s0.42-1.58,0.42-2.53c0-0.92-0.14-1.75-0.42-2.51c-0.28-0.75-0.66-1.4-1.13-1.93
			c-0.47-0.54-1.02-0.95-1.65-1.23s-1.28-0.42-1.97-0.42c-0.72,0-1.38,0.14-1.99,0.42s-1.15,0.69-1.61,1.23s-0.82,1.18-1.09,1.93
			s-0.4,1.59-0.4,2.51c0,0.95,0.13,1.79,0.4,2.53s0.63,1.37,1.09,1.88s1,0.9,1.61,1.17s1.28,0.4,1.99,0.4
			C311.01,253.99,311.66,253.86,312.29,253.59z"/>
		<path d="M327.32,256.79h-2.53v-27.42h3.26v10.94c0.71-0.35,1.48-0.64,2.31-0.85s1.61-0.32,2.35-0.32c1.27,0,2.39,0.22,3.36,0.67
			c0.97,0.45,1.78,1.06,2.43,1.84s1.14,1.71,1.47,2.8s0.5,2.28,0.5,3.58c0,1.28-0.17,2.46-0.5,3.56s-0.82,2.05-1.47,2.85
			c-0.65,0.8-1.46,1.44-2.43,1.9s-2.09,0.69-3.37,0.69c-0.89,0-1.81-0.11-2.74-0.33s-1.73-0.48-2.39-0.79L327.32,256.79z
			 M328.05,253.34c0.66,0.21,1.33,0.36,2,0.48c0.67,0.12,1.34,0.17,2,0.17c0.92,0,1.7-0.17,2.35-0.5s1.18-0.77,1.6-1.32
			s0.72-1.18,0.92-1.9c0.19-0.71,0.29-1.46,0.29-2.22c0-0.77-0.1-1.51-0.29-2.22s-0.5-1.35-0.92-1.9s-0.95-0.98-1.6-1.3
			c-0.65-0.32-1.43-0.48-2.35-0.48c-0.59,0-1.23,0.1-1.95,0.29c-0.71,0.19-1.4,0.44-2.06,0.75v10.15H328.05z"/>
		<path d="M355.05,243.08c-0.41-0.62-1.24-0.93-2.49-0.93c-1.07,0-2.07,0.1-2.99,0.29c-0.92,0.19-1.72,0.39-2.41,0.59l-0.69-2.74
			c0.61-0.26,1.53-0.52,2.74-0.78s2.48-0.39,3.81-0.39c1.12,0,2.07,0.17,2.83,0.5c0.77,0.33,1.38,0.82,1.84,1.47s0.79,1.46,1,2.43
			c0.2,0.97,0.31,2.09,0.31,3.37v9.88h-2.68l-0.23-1.57c-0.84,0.54-1.75,0.97-2.72,1.3s-2.07,0.5-3.29,0.5
			c-1.53,0-2.79-0.43-3.77-1.28c-0.98-0.85-1.47-2.02-1.47-3.5c0-1.15,0.26-2.13,0.79-2.93c0.52-0.8,1.26-1.46,2.22-1.97
			s2.11-0.89,3.47-1.13c1.35-0.24,2.85-0.39,4.48-0.44C355.7,244.59,355.46,243.7,355.05,243.08z M355.82,248.36
			c-2.54,0.08-4.47,0.39-5.77,0.94c-1.31,0.55-1.96,1.45-1.96,2.7c0,0.61,0.22,1.12,0.67,1.51c0.44,0.4,1.11,0.59,2,0.59
			c0.99,0,1.91-0.13,2.76-0.4s1.62-0.62,2.31-1.05v-4.29H355.82z"/>
		<path d="M366.12,229.36h3.26v27.42h-3.26V229.36z"/>
		<path d="M395.57,256.36c-1.53-0.54-2.9-1.37-4.1-2.51s-2.16-2.57-2.89-4.31s-1.09-3.8-1.09-6.21c0-2.38,0.36-4.44,1.09-6.19
			s1.69-3.2,2.87-4.35c1.19-1.15,2.54-2,4.06-2.55s3.07-0.82,4.65-0.82c1.28,0,2.42,0.11,3.43,0.33s1.71,0.42,2.09,0.59l-0.96,3.06
			c-0.31-0.1-0.66-0.2-1.05-0.31c-0.4-0.1-0.8-0.18-1.21-0.23s-0.8-0.1-1.19-0.13c-0.38-0.04-0.71-0.06-1-0.06
			c-1.3,0-2.52,0.23-3.64,0.69s-2.11,1.14-2.95,2.03c-0.84,0.89-1.51,2-1.99,3.33c-0.49,1.33-0.73,2.86-0.73,4.6
			c0,1.76,0.25,3.31,0.75,4.63c0.5,1.33,1.17,2.44,2.01,3.33c0.84,0.89,1.83,1.56,2.97,2.01s2.34,0.67,3.62,0.67
			c0.46,0,0.92-0.03,1.38-0.08s0.89-0.11,1.28-0.19c0.4-0.08,0.75-0.16,1.07-0.25s0.57-0.17,0.75-0.25l0.96,2.87
			c-0.59,0.28-1.38,0.53-2.39,0.75s-2.04,0.33-3.08,0.33C398.68,257.17,397.11,256.9,395.57,256.36z"/>
		<path d="M415.51,256.42c-1.01-0.4-1.9-0.97-2.66-1.72c-0.77-0.75-1.38-1.69-1.84-2.81s-0.69-2.41-0.69-3.87s0.23-2.75,0.69-3.89
			s1.07-2.09,1.84-2.85c0.77-0.77,1.65-1.35,2.66-1.76c1.01-0.41,2.06-0.61,3.16-0.61s2.16,0.21,3.18,0.61
			c1.02,0.41,1.92,1,2.7,1.76c0.78,0.77,1.4,1.72,1.86,2.85c0.46,1.14,0.69,2.43,0.69,3.89c0,1.46-0.23,2.75-0.69,3.87
			s-1.08,2.06-1.86,2.81c-0.78,0.75-1.68,1.33-2.7,1.72c-1.02,0.4-2.08,0.59-3.18,0.59S416.52,256.82,415.51,256.42z M420.64,253.59
			c0.63-0.27,1.17-0.66,1.65-1.17c0.47-0.51,0.85-1.14,1.13-1.88s0.42-1.58,0.42-2.53c0-0.92-0.14-1.75-0.42-2.51
			c-0.28-0.75-0.66-1.4-1.13-1.93c-0.47-0.54-1.02-0.95-1.65-1.23s-1.28-0.42-1.97-0.42c-0.72,0-1.38,0.14-1.99,0.42
			s-1.15,0.69-1.61,1.23c-0.46,0.54-0.82,1.18-1.09,1.93s-0.4,1.59-0.4,2.51c0,0.95,0.13,1.79,0.4,2.53s0.63,1.37,1.09,1.88
			s1,0.9,1.61,1.17s1.28,0.4,1.99,0.4C419.36,253.99,420.02,253.86,420.64,253.59z"/>
		<path d="M438.68,239.55c1.03-0.28,2.18-0.42,3.43-0.42c2.07,0,3.58,0.64,4.54,1.92c0.96,1.28,1.44,3.13,1.44,5.55v10.19h-3.26
			v-9.08c0-1.84-0.23-3.21-0.69-4.12s-1.39-1.36-2.78-1.36c-1.07,0-2.02,0.11-2.86,0.33c-0.84,0.22-1.54,0.44-2.1,0.67v13.56h-3.26
			v-17.66h2.75l0.23,1.34C436.8,240.14,437.65,239.83,438.68,239.55z"/>
		<path d="M452.99,242.08v-2.95h2.99v-5.98h3.18v5.98h4.6v2.95h-4.6v9.08c0,1.2,0.21,1.99,0.63,2.38s1.1,0.57,2.05,0.57
			c0.46,0,0.86-0.02,1.21-0.06c0.34-0.04,0.67-0.08,0.98-0.13l0.38,2.76c-0.31,0.08-0.73,0.15-1.26,0.23
			c-0.54,0.08-1.16,0.11-1.88,0.11c-1.76,0-3.08-0.41-3.96-1.24s-1.32-2.25-1.32-4.27v-9.42h-3V242.08z"/>
		<path d="M473.65,252.73c0.93,0.89,2.19,1.34,3.77,1.34c0.79,0,1.63-0.1,2.53-0.29c0.89-0.19,1.58-0.38,2.07-0.56l0.84,2.64
			c-0.51,0.25-1.28,0.51-2.32,0.77s-2.1,0.38-3.2,0.38c-1.3,0-2.48-0.2-3.52-0.59s-1.95-0.98-2.7-1.74
			c-0.75-0.77-1.33-1.71-1.74-2.83s-0.61-2.4-0.61-3.83s0.22-2.71,0.65-3.83c0.43-1.12,1.01-2.08,1.72-2.87
			c0.71-0.79,1.54-1.39,2.47-1.8c0.93-0.41,1.88-0.61,2.85-0.61c0.94,0,1.85,0.16,2.72,0.48s1.64,0.86,2.32,1.63
			c0.68,0.77,1.23,1.79,1.65,3.08c0.42,1.29,0.64,2.91,0.67,4.85h-11.8C472.18,250.57,472.72,251.83,473.65,252.73z M480.45,246.21
			c-0.13-1.54-0.55-2.67-1.26-3.38s-1.61-1.06-2.68-1.06c-1.12,0-2.07,0.39-2.83,1.18c-0.77,0.79-1.28,1.87-1.53,3.27L480.45,246.21
			L480.45,246.21z"/>
		<path d="M506.13,239.64c1.11-0.34,2.27-0.52,3.47-0.52s2.18,0.17,2.95,0.5s1.37,0.81,1.82,1.44s0.75,1.4,0.92,2.34
			c0.17,0.93,0.25,2,0.25,3.2v10.19h-3.26v-9.08c0-0.92-0.02-1.72-0.06-2.39c-0.04-0.68-0.17-1.25-0.38-1.7
			c-0.22-0.46-0.56-0.8-1.03-1.03c-0.47-0.23-1.13-0.34-1.96-0.34c-1.07,0-1.99,0.13-2.76,0.38c-0.78,0.26-1.42,0.51-1.92,0.77
			c0.15,0.89,0.23,1.9,0.23,3.03v10.38h-3.26v-9.08c0-0.92-0.02-1.72-0.06-2.39c-0.04-0.68-0.17-1.25-0.38-1.7
			c-0.22-0.46-0.56-0.8-1.03-1.03c-0.47-0.23-1.12-0.34-1.96-0.34c-1.07,0-1.98,0.11-2.74,0.33s-1.4,0.44-1.91,0.67v13.56h-3.26
			v-17.66h2.75l0.23,1.34c0.64-0.33,1.43-0.64,2.38-0.92c0.94-0.28,2.04-0.42,3.29-0.42c1.15,0,2.09,0.15,2.83,0.44
			s1.33,0.72,1.76,1.28C504,240.39,505.02,239.99,506.13,239.64z"/>
		<path d="M527.88,239.51c0.88-0.25,1.71-0.38,2.5-0.38c1.27,0,2.39,0.22,3.36,0.67s1.78,1.06,2.43,1.84
			c0.65,0.78,1.14,1.71,1.47,2.8c0.33,1.09,0.5,2.28,0.5,3.58c0,1.28-0.17,2.46-0.5,3.56s-0.82,2.05-1.47,2.85
			c-0.65,0.8-1.46,1.44-2.43,1.9s-2.09,0.69-3.37,0.69c-0.79,0-1.6-0.08-2.43-0.25s-1.58-0.38-2.24-0.64l0.04,7.86h-3.26v-24.86
			h2.75l0.23,1.29C526.2,240.06,527,239.76,527.88,239.51z M527.73,253.82c0.67,0.12,1.34,0.17,2,0.17c0.92,0,1.7-0.17,2.35-0.5
			c0.65-0.33,1.18-0.77,1.6-1.32s0.72-1.18,0.92-1.9c0.19-0.71,0.29-1.46,0.29-2.22c0-0.77-0.1-1.51-0.29-2.22s-0.5-1.35-0.92-1.9
			s-0.95-0.98-1.6-1.3c-0.65-0.32-1.43-0.48-2.35-0.48c-0.59,0-1.23,0.1-1.95,0.29c-0.71,0.19-1.4,0.44-2.06,0.75v10.15
			C526.39,253.54,527.05,253.7,527.73,253.82z"/>
		<path d="M548.27,256.42c-1.01-0.4-1.9-0.97-2.66-1.72c-0.77-0.75-1.38-1.69-1.84-2.81s-0.69-2.41-0.69-3.87s0.23-2.75,0.69-3.89
			s1.07-2.09,1.84-2.85c0.77-0.77,1.65-1.35,2.66-1.76c1.01-0.41,2.06-0.61,3.16-0.61s2.16,0.21,3.18,0.61
			c1.02,0.41,1.92,1,2.7,1.76c0.78,0.77,1.4,1.72,1.86,2.85c0.46,1.14,0.69,2.43,0.69,3.89c0,1.46-0.23,2.75-0.69,3.87
			s-1.08,2.06-1.86,2.81c-0.78,0.75-1.68,1.33-2.7,1.72c-1.02,0.4-2.08,0.59-3.18,0.59S549.27,256.82,548.27,256.42z M553.4,253.59
			c0.63-0.27,1.17-0.66,1.65-1.17c0.47-0.51,0.85-1.14,1.13-1.88s0.42-1.58,0.42-2.53c0-0.92-0.14-1.75-0.42-2.51
			c-0.28-0.75-0.66-1.4-1.13-1.93c-0.47-0.54-1.02-0.95-1.65-1.23s-1.28-0.42-1.97-0.42c-0.72,0-1.38,0.14-1.99,0.42
			s-1.15,0.69-1.61,1.23c-0.46,0.54-0.82,1.18-1.09,1.93s-0.4,1.59-0.4,2.51c0,0.95,0.13,1.79,0.4,2.53s0.63,1.37,1.09,1.88
			s1,0.9,1.61,1.17s1.28,0.4,1.99,0.4C552.12,253.99,552.77,253.86,553.4,253.59z"/>
		<path d="M571.55,239.78c1.06-0.43,2.15-0.75,3.27-0.96v3.22c-1.15,0.2-2.21,0.49-3.18,0.86s-1.8,0.76-2.49,1.17v12.72h-3.26
			v-17.66h2.75l0.31,1.95C569.63,240.65,570.49,240.21,571.55,239.78z"/>
		<path d="M588.65,243.08c-0.41-0.62-1.24-0.93-2.49-0.93c-1.07,0-2.07,0.1-2.99,0.29s-1.72,0.39-2.41,0.59l-0.69-2.74
			c0.61-0.26,1.53-0.52,2.74-0.78s2.48-0.39,3.81-0.39c1.12,0,2.07,0.17,2.83,0.5c0.77,0.33,1.38,0.82,1.84,1.47s0.79,1.46,1,2.43
			c0.2,0.97,0.31,2.09,0.31,3.37v9.88h-2.68l-0.23-1.57c-0.84,0.54-1.75,0.97-2.72,1.3s-2.07,0.5-3.29,0.5
			c-1.53,0-2.79-0.43-3.77-1.28c-0.98-0.85-1.47-2.02-1.47-3.5c0-1.15,0.26-2.13,0.79-2.93c0.52-0.8,1.26-1.46,2.22-1.97
			c0.96-0.51,2.11-0.89,3.47-1.13c1.35-0.24,2.85-0.39,4.48-0.44C589.31,244.59,589.06,243.7,588.65,243.08z M589.42,248.36
			c-2.54,0.08-4.47,0.39-5.77,0.94c-1.31,0.55-1.96,1.45-1.96,2.7c0,0.61,0.22,1.12,0.67,1.51c0.44,0.4,1.11,0.59,2,0.59
			c0.99,0,1.91-0.13,2.76-0.4c0.85-0.27,1.62-0.62,2.31-1.05L589.42,248.36L589.42,248.36z"/>
		<path d="M605.22,239.78c1.06-0.43,2.15-0.75,3.27-0.96v3.22c-1.15,0.2-2.21,0.49-3.18,0.86s-1.8,0.76-2.49,1.17v12.72h-3.26
			v-17.66h2.75l0.31,1.95C603.3,240.65,604.16,240.21,605.22,239.78z"/>
		<path d="M611.9,239.13h3.37l5.13,13.06l5.4-13.06h3.18l-10.23,24.86h-3.22l3.14-7.62L611.9,239.13z"/>
		<path d="M242.45,302.75H239l11.11-27.31h1l11.11,27.31h-3.6l-2.22-5.55h-11.72L242.45,302.75z M250.53,282.52l-4.67,11.72h9.35
			L250.53,282.52z"/>
		<path d="M273.03,285.74c1.06-0.43,2.15-0.75,3.27-0.96V288c-1.15,0.2-2.21,0.49-3.18,0.86s-1.8,0.76-2.49,1.17v12.72h-3.26v-17.66
			h2.75l0.31,1.95C271.11,286.61,271.97,286.18,273.03,285.74z"/>
		<path d="M279.98,288.04v-2.95h2.99v-5.98h3.18v5.98h4.6v2.95h-4.6v9.08c0,1.2,0.21,1.99,0.63,2.38s1.1,0.57,2.05,0.57
			c0.46,0,0.86-0.02,1.21-0.06c0.34-0.04,0.67-0.08,0.98-0.13l0.38,2.76c-0.31,0.08-0.73,0.15-1.26,0.23
			c-0.54,0.08-1.16,0.11-1.88,0.11c-1.76,0-3.08-0.41-3.96-1.24s-1.32-2.25-1.32-4.27v-9.42h-3V288.04z"/>
		<path d="M315.56,278.96h-8.23v-3.22h19.88v3.22h-8.24v23.79h-3.41V278.96z"/>
		<path d="M333.01,302.38c-1.01-0.4-1.9-0.97-2.66-1.72c-0.77-0.75-1.38-1.69-1.84-2.81s-0.69-2.41-0.69-3.87s0.23-2.75,0.69-3.89
			s1.07-2.09,1.84-2.85c0.77-0.77,1.65-1.35,2.66-1.76s2.06-0.61,3.16-0.61s2.16,0.21,3.18,0.61c1.02,0.41,1.92,1,2.7,1.76
			c0.78,0.77,1.4,1.72,1.86,2.85c0.46,1.14,0.69,2.43,0.69,3.89c0,1.46-0.23,2.75-0.69,3.87s-1.08,2.06-1.86,2.81
			s-1.68,1.33-2.7,1.72c-1.02,0.4-2.08,0.59-3.18,0.59C335.07,302.98,334.02,302.78,333.01,302.38z M338.14,299.55
			c0.63-0.27,1.17-0.66,1.65-1.17c0.47-0.51,0.85-1.14,1.13-1.88s0.42-1.58,0.42-2.53c0-0.92-0.14-1.75-0.42-2.51
			c-0.28-0.75-0.66-1.4-1.13-1.93c-0.47-0.54-1.02-0.95-1.65-1.23s-1.28-0.42-1.97-0.42c-0.72,0-1.38,0.14-1.99,0.42
			s-1.15,0.69-1.61,1.23s-0.82,1.18-1.09,1.93s-0.4,1.59-0.4,2.51c0,0.95,0.13,1.79,0.4,2.53s0.63,1.37,1.09,1.88s1,0.9,1.61,1.17
			s1.28,0.4,1.99,0.4C336.86,299.95,337.52,299.82,338.14,299.55z"/>
		<path d="M361.98,285.09h3.26v17.66h-2.79l-0.16-1.07c-0.66,0.31-1.5,0.59-2.51,0.86s-2.13,0.4-3.35,0.4
			c-2.07,0-3.58-0.64-4.54-1.92c-0.96-1.28-1.44-3.13-1.44-5.55v-10.38h3.18v9.31c0,1.84,0.24,3.22,0.71,4.14s1.42,1.38,2.85,1.38
			c1.02,0,1.93-0.1,2.74-0.31s1.49-0.42,2.05-0.65L361.98,285.09L361.98,285.09z"/>
		<path d="M378.02,285.74c1.06-0.43,2.15-0.75,3.27-0.96V288c-1.15,0.2-2.21,0.49-3.18,0.86s-1.8,0.76-2.49,1.17v12.72h-3.26v-17.66
			h2.75l0.31,1.95C376.09,286.61,376.96,286.18,378.02,285.74z"/>
		<path d="M388.07,302.48c-1.23-0.31-2.13-0.61-2.72-0.92l1-2.72c0.31,0.13,0.7,0.27,1.19,0.42s1,0.29,1.53,0.4
			c0.54,0.11,1.08,0.21,1.65,0.29c0.56,0.08,1.08,0.11,1.57,0.11c2.86,0,4.29-0.74,4.29-2.22c0-0.61-0.26-1.08-0.79-1.4
			s-1.17-0.59-1.93-0.8c-0.77-0.22-1.61-0.43-2.53-0.65s-1.76-0.52-2.53-0.9s-1.41-0.9-1.93-1.55s-0.79-1.54-0.79-2.66
			c0-1.61,0.6-2.85,1.8-3.72s2.89-1.3,5.06-1.3c1.17,0,2.27,0.1,3.28,0.31c1.01,0.21,1.88,0.47,2.62,0.8l-0.88,2.8
			c-0.66-0.28-1.46-0.51-2.39-0.69c-0.93-0.18-1.81-0.27-2.62-0.27c-1.4,0-2.37,0.19-2.91,0.55c-0.54,0.37-0.8,0.86-0.8,1.47
			c0,0.56,0.26,1,0.79,1.32c0.52,0.32,1.17,0.59,1.95,0.82s1.62,0.45,2.53,0.67s1.75,0.52,2.53,0.92c0.78,0.4,1.43,0.93,1.95,1.59
			s0.79,1.53,0.79,2.6c0,1.74-0.68,3.03-2.05,3.89c-1.37,0.86-3.17,1.28-5.42,1.28C390.7,302.94,389.29,302.79,388.07,302.48z"/>
		<path d="M424.69,302.33c-1.54-0.54-2.92-1.37-4.13-2.51s-2.18-2.57-2.91-4.31s-1.09-3.8-1.09-6.21c0-2.38,0.36-4.44,1.09-6.19
			c0.73-1.75,1.71-3.2,2.95-4.35s2.67-2,4.29-2.55s3.33-0.82,5.11-0.82c1.23,0,2.4,0.1,3.52,0.31c1.12,0.2,1.99,0.45,2.6,0.73
			l-0.96,3.06c-0.66-0.23-1.47-0.43-2.43-0.59c-0.96-0.17-1.83-0.25-2.62-0.25c-1.46,0-2.8,0.23-4.02,0.69
			c-1.23,0.46-2.29,1.14-3.2,2.03c-0.91,0.89-1.61,2-2.11,3.33s-0.75,2.86-0.75,4.6c0,1.76,0.25,3.31,0.75,4.63
			c0.5,1.33,1.17,2.44,2.03,3.33c0.86,0.89,1.86,1.56,3.01,2.01s2.38,0.67,3.68,0.67c0.77,0,1.47-0.06,2.11-0.17
			c0.64-0.11,1.17-0.24,1.61-0.36v-9.61h3.26v11.99c-1.02,0.41-2.19,0.73-3.5,0.98c-1.31,0.24-2.49,0.36-3.54,0.36
			C427.82,303.13,426.23,302.86,424.69,302.33z"/>
		<path d="M449.79,285.74c1.06-0.43,2.15-0.75,3.27-0.96V288c-1.15,0.2-2.21,0.49-3.18,0.86s-1.8,0.76-2.49,1.17v12.72h-3.26v-17.66
			h2.75l0.31,1.95C447.87,286.61,448.73,286.18,449.79,285.74z"/>
		<path d="M462.13,302.38c-1.01-0.4-1.9-0.97-2.66-1.72c-0.77-0.75-1.38-1.69-1.84-2.81s-0.69-2.41-0.69-3.87s0.23-2.75,0.69-3.89
			s1.07-2.09,1.84-2.85c0.77-0.77,1.65-1.35,2.66-1.76c1.01-0.41,2.06-0.61,3.16-0.61s2.16,0.21,3.18,0.61
			c1.02,0.41,1.92,1,2.7,1.76c0.78,0.77,1.4,1.72,1.86,2.85c0.46,1.14,0.69,2.43,0.69,3.89c0,1.46-0.23,2.75-0.69,3.87
			s-1.08,2.06-1.86,2.81c-0.78,0.75-1.68,1.33-2.7,1.72c-1.02,0.4-2.08,0.59-3.18,0.59C464.19,302.98,463.13,302.78,462.13,302.38z
			 M467.26,299.55c0.63-0.27,1.17-0.66,1.65-1.17c0.47-0.51,0.85-1.14,1.13-1.88s0.42-1.58,0.42-2.53c0-0.92-0.14-1.75-0.42-2.51
			c-0.28-0.75-0.66-1.4-1.13-1.93c-0.47-0.54-1.02-0.95-1.65-1.23s-1.28-0.42-1.97-0.42c-0.72,0-1.38,0.14-1.99,0.42
			s-1.15,0.69-1.61,1.23c-0.46,0.54-0.82,1.18-1.09,1.93s-0.4,1.59-0.4,2.51c0,0.95,0.13,1.79,0.4,2.53s0.63,1.37,1.09,1.88
			s1,0.9,1.61,1.17s1.28,0.4,1.99,0.4C465.98,299.95,466.63,299.82,467.26,299.55z"/>
		<path d="M491.1,285.09h3.26v17.66h-2.79l-0.16-1.07c-0.66,0.31-1.5,0.59-2.51,0.86s-2.13,0.4-3.35,0.4
			c-2.07,0-3.58-0.64-4.54-1.92c-0.96-1.28-1.44-3.13-1.44-5.55v-10.38h3.18v9.31c0,1.84,0.24,3.22,0.71,4.14
			c0.47,0.92,1.42,1.38,2.85,1.38c1.02,0,1.93-0.1,2.74-0.31s1.49-0.42,2.05-0.65L491.1,285.09L491.1,285.09z"/>
		<path d="M506.89,285.47c0.88-0.25,1.71-0.38,2.5-0.38c1.27,0,2.39,0.22,3.36,0.67s1.78,1.06,2.43,1.84
			c0.65,0.78,1.14,1.71,1.47,2.8c0.33,1.09,0.5,2.28,0.5,3.58c0,1.28-0.17,2.46-0.5,3.56s-0.82,2.05-1.47,2.85
			c-0.65,0.8-1.46,1.44-2.43,1.9s-2.09,0.69-3.37,0.69c-0.79,0-1.6-0.08-2.43-0.25s-1.58-0.38-2.24-0.64l0.04,7.86h-3.26v-24.86
			h2.75l0.23,1.29C505.21,286.02,506.01,285.72,506.89,285.47z M506.74,299.78c0.67,0.12,1.34,0.17,2,0.17c0.92,0,1.7-0.17,2.35-0.5
			c0.65-0.33,1.18-0.77,1.6-1.32s0.72-1.18,0.92-1.9c0.19-0.71,0.29-1.46,0.29-2.22c0-0.77-0.1-1.51-0.29-2.22s-0.5-1.35-0.92-1.9
			s-0.95-0.98-1.6-1.3c-0.65-0.32-1.43-0.48-2.35-0.48c-0.59,0-1.23,0.1-1.95,0.29c-0.71,0.19-1.4,0.44-2.06,0.75v10.15
			C505.4,299.51,506.06,299.67,506.74,299.78z"/>
		<path d="M523.5,298.54h3.98l-3.45,10.19h-2.64L523.5,298.54z"/>
		<path d="M546.14,275.75h3.41v23.86h11.84v3.14h-15.24v-27H546.14z"/>
		<path d="M571.15,278.96h-8.23v-3.22h19.88v3.22h-8.24v23.79h-3.41L571.15,278.96L571.15,278.96z"/>
		<path d="M589.04,275.75h4.52c2.5,0,4.73,0.27,6.68,0.82c1.95,0.55,3.59,1.38,4.92,2.49c1.33,1.11,2.34,2.52,3.03,4.21
			s1.03,3.7,1.03,5.99c0,4.6-1.35,7.99-4.06,10.19s-6.58,3.29-11.61,3.29h-4.52L589.04,275.75L589.04,275.75z M595.17,299.61
			c3.55,0,6.21-0.88,7.97-2.62s2.64-4.3,2.64-7.64c0-3.37-0.88-5.94-2.64-7.72c-1.76-1.77-4.42-2.66-7.97-2.66h-2.72v20.65
			L595.17,299.61L595.17,299.61z"/>
	</g>
</g>
</svg>
