<?xml version="1.0" encoding="UTF-8"?>
<svg width="882px" height="232px" viewBox="0 0 882 232" version="1.1" xmlns="http://www.w3.org/2000/svg" xmlns:xlink="http://www.w3.org/1999/xlink">
    <!-- Generator: Sketch 52.2 (67145) - http://www.bohemiancoding.com/sketch -->
    <title>GCATG-3-Light Blue</title>
    <desc>Created with Sketch.</desc>
    <defs>
        <radialGradient cx="50.003404%" cy="49.9979886%" fx="50.003404%" fy="49.9979886%" r="49.9972923%" id="radialGradient-1">
            <stop stop-color="#5B92E5" offset="0%"></stop>
            <stop stop-color="#6498E6" offset="11.71%"></stop>
            <stop stop-color="#7BA7EA" offset="30.41%"></stop>
            <stop stop-color="#A1C0F0" offset="53.78%"></stop>
            <stop stop-color="#D5E3F8" offset="80.61%"></stop>
            <stop stop-color="#FFFFFF" offset="100%"></stop>
        </radialGradient>
    </defs>
    <g id="Page-1" stroke="none" stroke-width="1" fill="none" fill-rule="evenodd">
        <g id="GCATG-3-Light-Blue" transform="translate(1.000000, 0.000000)">
            <g id="Layer_2" transform="translate(63.000000, 49.000000)" fill="url(#radialGradient-1)">
                <circle id="Oval" cx="65.15" cy="64.92" r="64.63"></circle>
            </g>
            <g id="Title">
                <g id="Group" transform="translate(85.000000, 0.000000)" fill="#000000">
                    <path d="M13.38,46.13 C10.82,45.25 8.6,43.96 6.72,42.25 C4.85,40.55 3.38,38.44 2.33,35.92 C1.27,33.4 0.75,30.48 0.75,27.16 C0.75,22.42 1.57,18.36 3.21,14.98 C4.85,11.6 6.96,8.82 9.54,6.64 C12.13,4.46 15.02,2.86 18.23,1.82 C21.44,0.79 24.62,0.27 27.76,0.27 C29.7,0.27 31.5,0.39 33.16,0.63 C34.82,0.87 36.29,1.16 37.59,1.5 C38.88,1.85 39.98,2.19 40.89,2.53 C41.79,2.88 42.46,3.18 42.89,3.44 L38.88,12.1 C37.33,11.37 35.56,10.77 33.58,10.29 C31.6,9.82 29.51,9.58 27.31,9.58 C24.81,9.58 22.56,9.99 20.56,10.81 C18.56,11.63 16.84,12.78 15.42,14.27 C14,15.76 12.91,17.56 12.16,19.67 C11.41,21.78 11.03,24.13 11.03,26.71 C11.03,30.5 12.04,33.44 14.07,35.53 C16.09,37.62 18.94,38.66 22.6,38.66 C24.02,38.66 25.29,38.56 26.41,38.37 C27.53,38.18 28.43,37.95 29.12,37.69 L30.87,24.96 L40.69,24.96 L37.98,44.03 C37.29,44.42 36.4,44.81 35.3,45.19 C34.2,45.57 32.94,45.94 31.52,46.29 C30.1,46.64 28.57,46.91 26.93,47.13 C25.29,47.34 23.59,47.45 21.82,47.45 C18.75,47.46 15.94,47.02 13.38,46.13 Z" id="Path"></path>
                    <polygon id="Path" points="54.32 0.15 63.76 0.15 57.23 46.75 47.79 46.75"></polygon>
                    <path d="M76,46.2 C74.17,45.58 72.55,44.66 71.15,43.45 C69.75,42.24 68.63,40.77 67.79,39.02 C66.95,37.27 66.53,35.26 66.53,32.98 C66.53,29.96 67.1,27.38 68.24,25.22 C69.38,23.07 70.82,21.3 72.57,19.92 C74.32,18.54 76.22,17.53 78.29,16.88 C80.36,16.23 82.32,15.91 84.17,15.91 C86.15,15.91 88.07,16.23 89.92,16.88 C91.77,17.53 93.41,18.47 94.83,19.72 C96.25,20.97 97.38,22.49 98.22,24.28 C99.06,26.07 99.48,28.08 99.48,30.32 C99.48,33.38 98.9,35.98 97.73,38.11 C96.57,40.24 95.11,41.98 93.37,43.31 C91.62,44.65 89.71,45.62 87.62,46.22 C85.53,46.82 83.56,47.12 81.71,47.12 C79.74,47.14 77.84,46.82 76,46.2 Z M85.25,38.31 C86.13,37.94 86.91,37.43 87.58,36.76 C88.25,36.09 88.79,35.27 89.2,34.3 C89.61,33.33 89.81,32.24 89.81,31.04 C89.81,29.23 89.26,27.72 88.16,26.52 C87.06,25.31 85.52,24.71 83.54,24.71 C82.55,24.71 81.61,24.9 80.73,25.29 C79.85,25.68 79.07,26.22 78.4,26.91 C77.73,27.6 77.2,28.43 76.82,29.4 C76.44,30.37 76.24,31.44 76.24,32.6 C76.24,34.37 76.78,35.85 77.86,37.06 C78.94,38.27 80.51,38.87 82.58,38.87 C83.47,38.86 84.36,38.68 85.25,38.31 Z" id="Shape" fill-rule="nonzero"></path>
                    <path d="M112.29,46.75 L104.21,46.75 L110.74,0.15 L120.18,0.15 L117.66,18.31 C118.69,17.79 119.89,17.33 121.25,16.92 C122.61,16.51 123.91,16.31 125.16,16.31 C127.36,16.31 129.27,16.68 130.91,17.41 C132.55,18.14 133.9,19.12 134.98,20.35 C136.06,21.58 136.86,23 137.37,24.62 C137.89,26.24 138.15,27.95 138.15,29.76 C138.15,32.22 137.78,34.51 137.05,36.64 C136.32,38.77 135.27,40.62 133.92,42.17 C132.56,43.72 130.89,44.94 128.91,45.82 C126.93,46.7 124.71,47.15 122.25,47.15 C120.18,47.15 118.42,46.91 116.98,46.44 C115.54,45.97 114.25,45.43 113.13,44.82 L112.29,46.75 Z M114.88,37.96 C115.74,38.26 116.58,38.47 117.4,38.57 C118.22,38.68 119.15,38.73 120.18,38.73 C122.81,38.73 124.84,38.05 126.29,36.69 C127.73,35.33 128.46,33.43 128.46,30.97 C128.46,29.25 127.91,27.84 126.81,26.74 C125.71,25.64 124.04,25.09 121.8,25.09 C120.77,25.09 119.82,25.18 118.96,25.35 C118.1,25.52 117.3,25.76 116.57,26.06 L114.88,37.96 Z" id="Shape" fill-rule="nonzero"></path>
                    <path d="M168.46,16.31 L176.41,16.31 L172.14,46.75 L163.93,46.75 L163.74,44.81 C162.75,45.41 161.53,45.95 160.09,46.43 C158.65,46.9 157.21,47.14 155.79,47.14 C153.59,47.14 151.67,46.77 150.04,46.04 C148.4,45.31 147.06,44.33 146,43.1 C144.94,41.87 144.16,40.45 143.64,38.83 C143.12,37.21 142.86,35.5 142.86,33.69 C142.86,31.23 143.23,28.95 143.96,26.84 C144.69,24.73 145.74,22.89 147.09,21.31 C148.45,19.74 150.11,18.51 152.07,17.63 C154.03,16.75 156.24,16.3 158.69,16.3 C160.76,16.3 162.49,16.55 163.89,17.04 C165.29,17.54 166.51,18.09 167.54,18.69 L168.46,16.31 Z M165.74,25.87 C164.88,25.57 164.09,25.37 163.38,25.26 C162.67,25.15 161.82,25.1 160.83,25.1 C158.2,25.1 156.17,25.79 154.72,27.16 C153.28,28.53 152.55,30.44 152.55,32.89 C152.55,34.61 153.1,36.02 154.2,37.14 C155.3,38.26 156.97,38.81 159.21,38.81 C160.16,38.81 161.02,38.73 161.79,38.58 C162.57,38.43 163.3,38.23 163.99,37.97 L165.74,25.87 Z" id="Shape" fill-rule="nonzero"></path>
                    <polygon id="Path" points="188.11 0.15 197.55 0.15 191.02 46.75 181.58 46.75"></polygon>
                    <path d="M79.69,117.52 C76.95,116.59 74.59,115.25 72.61,113.48 C70.63,111.71 69.09,109.55 67.99,106.98 C66.89,104.41 66.36,101.48 66.41,98.16 C66.45,93.59 67.27,89.64 68.87,86.3 C70.46,82.96 72.51,80.2 75.01,78.03 C77.51,75.86 80.29,74.24 83.35,73.18 C86.41,72.13 89.45,71.6 92.46,71.6 C94.57,71.6 96.49,71.72 98.21,71.96 C99.93,72.2 101.44,72.49 102.73,72.83 C104.02,73.18 105.12,73.54 106.03,73.93 C106.94,74.32 107.62,74.66 108.1,74.96 L104.03,83.43 C102.22,82.61 100.38,81.99 98.5,81.56 C96.63,81.13 94.65,80.91 92.59,80.91 C90.31,80.91 88.21,81.31 86.29,82.11 C84.37,82.91 82.7,84.02 81.28,85.44 C79.86,86.86 78.75,88.57 77.95,90.58 C77.15,92.58 76.73,94.79 76.69,97.21 C76.69,99.02 76.93,100.7 77.4,102.25 C77.87,103.8 78.63,105.15 79.66,106.29 C80.69,107.43 82.03,108.34 83.67,109 C85.31,109.67 87.27,110 89.55,110 C90.63,110 91.7,109.91 92.78,109.74 C93.86,109.57 94.87,109.37 95.82,109.16 C96.77,108.95 97.6,108.71 98.31,108.45 C99.02,108.19 99.57,108 99.96,107.87 L101.96,116.27 C101.4,116.53 100.64,116.81 99.7,117.11 C98.75,117.41 97.69,117.7 96.5,117.98 C95.31,118.26 94.05,118.49 92.72,118.66 C91.38,118.83 90.03,118.92 88.65,118.92 C85.41,118.9 82.42,118.44 79.69,117.52 Z" id="Path"></path>
                    <path d="M118.46,117.52 C116.63,116.9 115.01,115.98 113.61,114.77 C112.21,113.56 111.09,112.09 110.25,110.34 C109.41,108.59 108.99,106.58 108.99,104.3 C108.99,101.28 109.56,98.7 110.7,96.54 C111.84,94.39 113.28,92.62 115.03,91.24 C116.78,89.86 118.68,88.85 120.75,88.2 C122.82,87.55 124.78,87.23 126.63,87.23 C128.61,87.23 130.53,87.55 132.38,88.2 C134.23,88.85 135.87,89.79 137.29,91.04 C138.71,92.29 139.84,93.81 140.68,95.6 C141.52,97.39 141.94,99.4 141.94,101.64 C141.94,104.7 141.36,107.3 140.19,109.43 C139.03,111.56 137.57,113.3 135.83,114.63 C134.08,115.97 132.17,116.94 130.08,117.54 C127.99,118.14 126.02,118.44 124.17,118.44 C122.2,118.45 120.3,118.14 118.46,117.52 Z M127.71,109.63 C128.59,109.26 129.37,108.75 130.04,108.08 C130.71,107.41 131.25,106.59 131.66,105.62 C132.07,104.65 132.27,103.56 132.27,102.36 C132.27,100.55 131.72,99.04 130.62,97.84 C129.52,96.63 127.98,96.03 126,96.03 C125.01,96.03 124.07,96.22 123.19,96.61 C122.31,97 121.53,97.54 120.86,98.23 C120.19,98.92 119.66,99.75 119.28,100.72 C118.9,101.69 118.7,102.76 118.7,103.92 C118.7,105.69 119.24,107.17 120.32,108.38 C121.4,109.59 122.97,110.19 125.04,110.19 C125.93,110.18 126.82,110 127.71,109.63 Z" id="Shape" fill-rule="nonzero"></path>
                    <path d="M161.48,89.26 C162.21,88.98 162.99,88.72 163.81,88.46 C164.63,88.2 165.48,88 166.36,87.85 C167.24,87.7 168.11,87.62 168.98,87.62 C171.09,87.62 172.87,87.93 174.31,88.56 C175.75,89.19 176.87,90.08 177.67,91.24 C178.47,92.4 178.98,93.82 179.22,95.47 C179.46,97.13 179.42,98.99 179.12,101.06 L176.73,118.06 L167.29,118.06 L169.36,103.35 C169.53,102.14 169.62,101.1 169.62,100.24 C169.62,99.33 169.46,98.6 169.14,98.04 C168.82,97.48 168.31,97.07 167.62,96.81 C166.93,96.55 165.98,96.42 164.78,96.42 C163.53,96.42 162.44,96.53 161.52,96.74 C160.59,96.96 159.74,97.22 158.97,97.52 L156.13,118.07 L146.69,118.07 L150.96,87.63 L159.56,87.63 L159.56,90.07 C160.1,89.81 160.74,89.54 161.48,89.26 Z" id="Path"></path>
                    <path d="M185.07,95.12 L186.17,87.62 L191.53,87.62 L192.89,77.93 L202.33,77.93 L200.97,87.62 L209.37,87.62 L208.34,95.12 L199.94,95.12 L198.45,105.66 C198.15,107.73 198.32,109.13 198.97,109.86 C199.62,110.59 200.84,110.96 202.65,110.96 C203.86,110.96 205.15,110.9 206.53,110.77 L206.34,117.81 C205.61,117.98 204.63,118.13 203.4,118.26 C202.17,118.39 200.87,118.45 199.49,118.45 C197.81,118.45 196.25,118.28 194.8,117.93 C193.36,117.59 192.14,116.94 191.15,115.99 C190.16,115.04 189.46,113.74 189.05,112.08 C188.64,110.42 188.63,108.28 189.02,105.65 L190.51,95.11 L185.07,95.11 L185.07,95.12 Z" id="Path"></path>
                    <path d="M223.97,109.76 C225.26,110.56 227.14,110.96 229.59,110.96 C230.32,110.96 231.11,110.93 231.95,110.86 C232.79,110.79 233.62,110.7 234.44,110.57 C235.26,110.44 236.01,110.29 236.7,110.12 C237.39,109.95 237.97,109.78 238.45,109.6 L239.55,116.64 C238.95,116.9 238.19,117.14 237.29,117.35 C236.39,117.57 235.42,117.75 234.38,117.9 C233.34,118.05 232.29,118.18 231.21,118.29 C230.13,118.4 229.14,118.45 228.24,118.45 C223.2,118.45 219.26,117.25 216.41,114.86 C213.56,112.47 212.14,109.12 212.14,104.81 C212.14,101.62 212.71,98.91 213.85,96.67 C214.99,94.43 216.42,92.61 218.15,91.21 C219.87,89.81 221.74,88.8 223.74,88.17 C225.74,87.55 227.59,87.23 229.27,87.23 C231.38,87.23 233.35,87.53 235.18,88.14 C237.01,88.74 238.54,89.78 239.77,91.24 C241,92.71 241.88,94.67 242.42,97.12 C242.96,99.58 243.01,102.66 242.58,106.36 L221.51,106.36 C221.86,107.83 222.68,108.96 223.97,109.76 Z M234.38,100.1 C234.42,98.08 234.01,96.63 233.15,95.77 C232.29,94.91 230.89,94.48 228.95,94.48 C227.36,94.48 225.94,94.94 224.72,95.87 C223.49,96.8 222.58,98.21 221.97,100.1 L234.38,100.1 Z" id="Shape" fill-rule="nonzero"></path>
                    <path d="M280.46,89.69 C281.36,89.3 282.33,88.96 283.37,88.66 C284.4,88.36 285.45,88.11 286.5,87.92 C287.55,87.73 288.6,87.63 289.63,87.63 C291.74,87.63 293.5,87.94 294.9,88.57 C296.3,89.2 297.38,90.09 298.13,91.25 C298.88,92.41 299.36,93.83 299.55,95.48 C299.74,97.14 299.69,99 299.39,101.07 L297,118.07 L287.63,118.07 L289.63,103.36 C289.8,102.15 289.91,101.1 289.95,100.22 C289.99,99.33 289.87,98.61 289.59,98.05 C289.31,97.49 288.85,97.08 288.2,96.82 C287.55,96.56 286.63,96.43 285.42,96.43 C284.21,96.43 283.17,96.54 282.29,96.75 C281.41,96.97 280.6,97.2 279.87,97.46 C279.87,98.02 279.85,98.61 279.81,99.21 C279.77,99.82 279.7,100.42 279.62,101.02 L277.23,118.07 L267.79,118.07 L269.86,103.36 C270.03,102.15 270.14,101.1 270.18,100.22 C270.22,99.33 270.1,98.61 269.82,98.05 C269.54,97.49 269.08,97.08 268.43,96.82 C267.78,96.56 266.86,96.43 265.65,96.43 C264.4,96.43 263.34,96.54 262.48,96.75 C261.62,96.97 260.82,97.23 260.09,97.53 L257.25,118.08 L247.81,118.08 L252.08,87.64 L260.68,87.64 L260.68,90.08 C261.8,89.57 263.18,89.03 264.82,88.48 C266.46,87.93 268.14,87.65 269.86,87.65 C271.93,87.65 273.63,87.93 274.97,88.49 C276.3,89.05 277.34,89.85 278.07,90.88 C278.76,90.47 279.56,90.08 280.46,89.69 Z" id="Path"></path>
                    <path d="M322.37,88.3 C323.86,87.85 325.29,87.62 326.67,87.62 C328.91,87.62 330.84,87.99 332.45,88.72 C334.07,89.45 335.41,90.43 336.49,91.66 C337.57,92.89 338.37,94.31 338.88,95.93 C339.4,97.55 339.66,99.26 339.66,101.07 C339.66,103.53 339.29,105.82 338.56,107.95 C337.83,110.08 336.78,111.93 335.43,113.48 C334.07,115.03 332.4,116.25 330.42,117.13 C328.44,118.01 326.22,118.46 323.76,118.46 C321.91,118.46 320.3,118.27 318.94,117.88 C317.58,117.49 316.39,117.04 315.35,116.52 L313.41,130.54 L303.97,130.54 L309.98,87.62 L318.58,87.62 L318.58,89.88 C319.63,89.28 320.89,88.75 322.37,88.3 Z M318.92,109.89 C319.74,110 320.67,110.05 321.7,110.05 C324.33,110.05 326.36,109.37 327.81,108.01 C329.25,106.65 329.98,104.75 329.98,102.29 C329.98,100.57 329.43,99.16 328.33,98.06 C327.23,96.96 325.56,96.41 323.32,96.41 C322.24,96.41 321.28,96.5 320.44,96.67 C319.6,96.84 318.79,97.08 318.02,97.38 L316.4,109.27 C317.26,109.58 318.1,109.78 318.92,109.89 Z" id="Shape" fill-rule="nonzero"></path>
                    <path d="M353.78,117.52 C351.95,116.9 350.33,115.98 348.93,114.77 C347.53,113.56 346.41,112.09 345.57,110.34 C344.73,108.59 344.31,106.58 344.31,104.3 C344.31,101.28 344.88,98.7 346.02,96.54 C347.16,94.39 348.6,92.62 350.35,91.24 C352.1,89.86 354,88.85 356.07,88.2 C358.14,87.55 360.1,87.23 361.95,87.23 C363.93,87.23 365.85,87.55 367.7,88.2 C369.55,88.85 371.19,89.79 372.61,91.04 C374.03,92.29 375.16,93.81 376,95.6 C376.84,97.39 377.26,99.4 377.26,101.64 C377.26,104.7 376.68,107.3 375.51,109.43 C374.35,111.56 372.89,113.3 371.15,114.63 C369.4,115.97 367.49,116.94 365.4,117.54 C363.31,118.14 361.34,118.44 359.49,118.44 C357.52,118.45 355.62,118.14 353.78,117.52 Z M363.03,109.63 C363.91,109.26 364.69,108.75 365.36,108.08 C366.03,107.41 366.57,106.59 366.98,105.62 C367.39,104.65 367.59,103.56 367.59,102.36 C367.59,100.55 367.04,99.04 365.94,97.84 C364.84,96.63 363.3,96.03 361.32,96.03 C360.33,96.03 359.39,96.22 358.51,96.61 C357.63,97 356.85,97.54 356.18,98.23 C355.51,98.92 354.98,99.75 354.6,100.72 C354.22,101.69 354.02,102.76 354.02,103.92 C354.02,105.69 354.56,107.17 355.64,108.38 C356.72,109.59 358.29,110.19 360.36,110.19 C361.25,110.18 362.14,110 363.03,109.63 Z" id="Shape" fill-rule="nonzero"></path>
                    <path d="M399.28,88.82 C401.03,88.02 402.93,87.45 405,87.11 L403.77,95.9 C401.49,96.25 399.6,96.7 398.11,97.26 C396.62,97.82 395.26,98.49 394.01,99.26 L391.42,118.07 L382,118.07 L386.27,87.63 L394.87,87.63 L394.87,91.25 C396.06,90.43 397.54,89.62 399.28,88.82 Z" id="Path"></path>
                    <path d="M432.21,87.62 L440.16,87.62 L435.89,118.06 L427.68,118.06 L427.49,116.12 C426.5,116.72 425.28,117.26 423.84,117.74 C422.4,118.21 420.96,118.45 419.54,118.45 C417.34,118.45 415.42,118.08 413.79,117.35 C412.15,116.62 410.81,115.64 409.75,114.41 C408.69,113.18 407.91,111.76 407.39,110.14 C406.87,108.52 406.61,106.81 406.61,105 C406.61,102.54 406.98,100.26 407.71,98.15 C408.44,96.04 409.49,94.2 410.84,92.62 C412.2,91.05 413.86,89.82 415.82,88.94 C417.78,88.06 419.99,87.61 422.44,87.61 C424.51,87.61 426.24,87.86 427.64,88.35 C429.04,88.85 430.26,89.4 431.29,90 L432.21,87.62 Z M429.5,97.19 C428.64,96.89 427.85,96.69 427.14,96.58 C426.43,96.47 425.58,96.42 424.59,96.42 C421.96,96.42 419.93,97.11 418.48,98.48 C417.04,99.85 416.31,101.76 416.31,104.21 C416.31,105.93 416.86,107.34 417.96,108.46 C419.06,109.58 420.73,110.13 422.97,110.13 C423.92,110.13 424.78,110.05 425.55,109.9 C426.33,109.75 427.06,109.55 427.75,109.29 L429.5,97.19 Z" id="Shape" fill-rule="nonzero"></path>
                    <path d="M462.3,88.82 C464.05,88.02 465.95,87.45 468.02,87.11 L466.79,95.9 C464.51,96.25 462.62,96.7 461.13,97.26 C459.64,97.82 458.28,98.49 457.03,99.26 L454.44,118.07 L445,118.07 L449.27,87.63 L457.87,87.63 L457.87,91.25 C459.08,90.43 460.55,89.62 462.3,88.82 Z" id="Path"></path>
                    <polygon id="Path" points="470.54 87.62 480.23 87.62 485.01 105.85 495.42 87.62 504.86 87.62 480.23 130.54 470.86 130.54 478.55 117.1"></polygon>
                    <path d="M150.75,189.38 L140.4,189.38 L168.71,143.23 L171.88,143.23 L187.84,189.38 L177.5,189.38 L175.3,182.59 L154.75,182.59 L150.75,189.38 Z M167.94,160.23 L159.41,174.64 L172.66,174.64 L167.94,160.23 Z" id="Shape" fill-rule="nonzero"></path>
                    <path d="M210.56,160.14 C212.31,159.34 214.21,158.77 216.28,158.43 L215.05,167.22 C212.77,167.57 210.88,168.02 209.39,168.58 C207.9,169.14 206.54,169.81 205.29,170.58 L202.7,189.39 L193.26,189.39 L197.53,158.95 L206.13,158.95 L206.13,162.57 C207.34,161.74 208.82,160.93 210.56,160.14 Z" id="Path"></path>
                    <path d="M219.58,166.44 L220.68,158.94 L226.04,158.94 L227.4,149.25 L236.84,149.25 L235.48,158.94 L243.88,158.94 L242.85,166.44 L234.45,166.44 L232.96,176.98 C232.66,179.05 232.83,180.45 233.48,181.18 C234.13,181.91 235.35,182.28 237.16,182.28 C238.37,182.28 239.66,182.22 241.04,182.09 L240.85,189.13 C240.12,189.3 239.14,189.45 237.91,189.58 C236.68,189.71 235.38,189.77 234,189.77 C232.32,189.77 230.76,189.6 229.31,189.25 C227.87,188.91 226.65,188.26 225.66,187.31 C224.67,186.36 223.97,185.06 223.56,183.4 C223.15,181.74 223.14,179.6 223.53,176.97 L225.02,166.43 L219.58,166.43 L219.58,166.44 Z" id="Path"></path>
                    <polygon id="Path" points="269.6 153.06 270.96 143.82 310.97 143.82 309.61 153.06 294.87 153.06 289.76 189.38 279.55 189.38 284.66 153.06"></polygon>
                    <path d="M313.19,188.83 C311.36,188.21 309.74,187.29 308.34,186.08 C306.94,184.87 305.82,183.4 304.98,181.65 C304.14,179.9 303.72,177.89 303.72,175.61 C303.72,172.59 304.29,170.01 305.43,167.85 C306.57,165.7 308.01,163.93 309.76,162.55 C311.51,161.17 313.41,160.16 315.48,159.51 C317.55,158.86 319.51,158.54 321.36,158.54 C323.34,158.54 325.26,158.86 327.11,159.51 C328.96,160.16 330.6,161.1 332.02,162.35 C333.44,163.6 334.57,165.12 335.41,166.91 C336.25,168.7 336.67,170.71 336.67,172.95 C336.67,176.01 336.09,178.61 334.92,180.74 C333.76,182.87 332.3,184.61 330.56,185.94 C328.81,187.28 326.9,188.25 324.81,188.85 C322.72,189.45 320.75,189.75 318.9,189.75 C316.93,189.77 315.02,189.46 313.19,188.83 Z M322.43,180.95 C323.31,180.58 324.09,180.07 324.76,179.4 C325.43,178.73 325.97,177.91 326.38,176.94 C326.79,175.97 326.99,174.88 326.99,173.68 C326.99,171.87 326.44,170.36 325.34,169.16 C324.24,167.95 322.7,167.35 320.72,167.35 C319.73,167.35 318.79,167.54 317.91,167.93 C317.03,168.32 316.25,168.86 315.58,169.55 C314.91,170.24 314.38,171.07 314,172.04 C313.62,173.01 313.42,174.08 313.42,175.24 C313.42,177.01 313.96,178.49 315.04,179.7 C316.12,180.91 317.69,181.51 319.76,181.51 C320.66,181.5 321.55,181.31 322.43,180.95 Z" id="Shape" fill-rule="nonzero"></path>
                    <path d="M365.7,158.94 L375.14,158.94 L370.81,189.38 L362.73,189.38 L362.54,187.31 C361.98,187.57 361.33,187.84 360.6,188.12 C359.87,188.4 359.08,188.67 358.24,188.93 C357.4,189.19 356.54,189.39 355.66,189.54 C354.78,189.69 353.9,189.77 353.04,189.77 C348.77,189.77 345.85,188.57 344.28,186.18 C342.71,183.79 342.22,180.5 342.83,176.32 L345.29,158.93 L354.73,158.93 L352.6,174.25 C352.43,175.5 352.34,176.56 352.34,177.42 C352.34,178.28 352.5,178.99 352.82,179.55 C353.14,180.11 353.65,180.52 354.34,180.78 C355.03,181.04 355.98,181.17 357.18,181.17 C358.34,181.17 359.38,181.06 360.28,180.85 C361.19,180.64 362,180.4 362.74,180.14 L365.7,158.94 Z" id="Path"></path>
                    <path d="M397.21,160.14 C398.96,159.34 400.86,158.77 402.93,158.43 L401.7,167.22 C399.42,167.57 397.53,168.02 396.04,168.58 C394.55,169.14 393.19,169.81 391.94,170.58 L389.35,189.39 L379.91,189.39 L384.18,158.95 L392.78,158.95 L392.78,162.57 C393.99,161.74 395.47,160.93 397.21,160.14 Z" id="Path"></path>
                    <path d="M408.59,188.86 C406.16,188.26 404.4,187.7 403.32,187.18 L406.16,179.94 C406.63,180.16 407.33,180.4 408.26,180.68 C409.19,180.96 410.23,181.22 411.39,181.46 C412.55,181.7 413.76,181.89 415.01,182.04 C416.26,182.19 417.42,182.27 418.5,182.27 C420.48,182.27 421.85,182.15 422.6,181.91 C423.35,181.67 423.73,181.12 423.73,180.26 C423.73,179.66 423.31,179.19 422.47,178.87 C421.63,178.55 420.57,178.26 419.3,178 C418.03,177.74 416.66,177.43 415.2,177.06 C413.74,176.69 412.37,176.19 411.1,175.54 C409.83,174.89 408.77,174.02 407.93,172.92 C407.09,171.82 406.67,170.39 406.67,168.62 C406.67,167.03 407,165.59 407.67,164.32 C408.34,163.05 409.29,161.99 410.51,161.15 C411.74,160.31 413.21,159.66 414.94,159.21 C416.66,158.76 418.58,158.53 420.69,158.53 C423.83,158.53 426.45,158.74 428.54,159.17 C430.63,159.6 432.36,160.11 433.74,160.71 L430.83,167.97 C430.23,167.71 429.51,167.47 428.7,167.26 C427.88,167.04 426.99,166.84 426.02,166.65 C425.05,166.46 424.06,166.31 423.05,166.2 C422.04,166.09 421.06,166.04 420.11,166.04 C418.65,166.04 417.59,166.15 416.94,166.36 C416.29,166.58 415.97,167.1 415.97,167.92 C415.97,168.48 416.39,168.92 417.23,169.25 C418.07,169.57 419.13,169.88 420.4,170.16 C421.67,170.44 423.05,170.77 424.54,171.13 C426.03,171.49 427.41,172.01 428.68,172.65 C429.95,173.3 431.01,174.15 431.85,175.21 C432.69,176.27 433.11,177.64 433.11,179.33 C433.11,182.96 431.74,185.61 429.01,187.27 C426.28,188.93 422.43,189.76 417.47,189.76 C413.98,189.77 411.02,189.47 408.59,188.86 Z" id="Path"></path>
                    <path d="M472.83,188.77 C470.27,187.89 468.05,186.6 466.17,184.89 C464.3,183.19 462.83,181.08 461.78,178.56 C460.72,176.04 460.2,173.12 460.2,169.8 C460.2,165.06 461.02,161 462.66,157.62 C464.3,154.24 466.41,151.46 468.99,149.28 C471.58,147.1 474.47,145.5 477.68,144.46 C480.89,143.43 484.07,142.91 487.21,142.91 C489.15,142.91 490.95,143.03 492.61,143.27 C494.27,143.51 495.74,143.8 497.04,144.14 C498.33,144.49 499.43,144.83 500.34,145.17 C501.24,145.52 501.91,145.82 502.34,146.08 L498.33,154.74 C496.78,154.01 495.01,153.41 493.03,152.93 C491.05,152.46 488.96,152.22 486.76,152.22 C484.26,152.22 482.01,152.63 480.01,153.45 C478.01,154.27 476.29,155.42 474.87,156.91 C473.45,158.4 472.36,160.2 471.61,162.31 C470.86,164.42 470.48,166.77 470.48,169.35 C470.48,173.14 471.49,176.08 473.52,178.17 C475.54,180.26 478.39,181.3 482.05,181.3 C483.47,181.3 484.74,181.2 485.86,181.01 C486.98,180.82 487.88,180.59 488.57,180.33 L490.32,167.6 L500.14,167.6 L497.43,186.67 C496.74,187.06 495.85,187.45 494.75,187.83 C493.65,188.21 492.39,188.58 490.97,188.93 C489.55,189.28 488.02,189.55 486.38,189.77 C484.74,189.98 483.04,190.09 481.27,190.09 C478.2,190.09 475.39,189.65 472.83,188.77 Z" id="Path"></path>
                    <path d="M524.21,160.14 C525.96,159.34 527.86,158.77 529.93,158.43 L528.7,167.22 C526.42,167.57 524.53,168.02 523.04,168.58 C521.55,169.14 520.19,169.81 518.94,170.58 L516.35,189.39 L506.91,189.39 L511.18,158.95 L519.78,158.95 L519.78,162.57 C520.99,161.74 522.47,160.93 524.21,160.14 Z" id="Path"></path>
                    <path d="M540.95,188.83 C539.12,188.21 537.5,187.29 536.1,186.08 C534.7,184.87 533.58,183.4 532.74,181.65 C531.9,179.9 531.48,177.89 531.48,175.61 C531.48,172.59 532.05,170.01 533.19,167.85 C534.33,165.7 535.77,163.93 537.52,162.55 C539.27,161.17 541.17,160.16 543.24,159.51 C545.31,158.86 547.27,158.54 549.12,158.54 C551.1,158.54 553.02,158.86 554.87,159.51 C556.72,160.16 558.36,161.1 559.78,162.35 C561.2,163.6 562.33,165.12 563.17,166.91 C564.01,168.7 564.43,170.71 564.43,172.95 C564.43,176.01 563.85,178.61 562.68,180.74 C561.52,182.87 560.06,184.61 558.32,185.94 C556.57,187.28 554.66,188.25 552.57,188.85 C550.48,189.45 548.51,189.75 546.66,189.75 C544.69,189.77 542.78,189.46 540.95,188.83 Z M550.19,180.95 C551.07,180.58 551.85,180.07 552.52,179.4 C553.19,178.73 553.73,177.91 554.14,176.94 C554.55,175.97 554.75,174.88 554.75,173.68 C554.75,171.87 554.2,170.36 553.1,169.16 C552,167.95 550.46,167.35 548.48,167.35 C547.49,167.35 546.55,167.54 545.67,167.93 C544.79,168.32 544.01,168.86 543.34,169.55 C542.67,170.24 542.14,171.07 541.76,172.04 C541.38,173.01 541.18,174.08 541.18,175.24 C541.18,177.01 541.72,178.49 542.8,179.7 C543.88,180.91 545.45,181.51 547.52,181.51 C548.41,181.5 549.31,181.31 550.19,180.95 Z" id="Shape" fill-rule="nonzero"></path>
                    <path d="M593.46,158.94 L602.9,158.94 L598.57,189.38 L590.49,189.38 L590.3,187.31 C589.74,187.57 589.09,187.84 588.36,188.12 C587.63,188.4 586.84,188.67 586,188.93 C585.16,189.19 584.3,189.39 583.42,189.54 C582.54,189.69 581.66,189.77 580.8,189.77 C576.53,189.77 573.61,188.57 572.04,186.18 C570.47,183.79 569.98,180.5 570.59,176.32 L573.05,158.93 L582.49,158.93 L580.36,174.25 C580.19,175.5 580.1,176.56 580.1,177.42 C580.1,178.28 580.26,178.99 580.58,179.55 C580.9,180.11 581.41,180.52 582.1,180.78 C582.79,181.04 583.74,181.17 584.94,181.17 C586.1,181.17 587.14,181.06 588.04,180.85 C588.95,180.64 589.76,180.4 590.5,180.14 L593.46,158.94 Z" id="Path"></path>
                    <path d="M624.32,159.62 C625.81,159.17 627.24,158.94 628.62,158.94 C630.86,158.94 632.79,159.31 634.4,160.04 C636.02,160.77 637.36,161.75 638.44,162.98 C639.52,164.21 640.32,165.63 640.83,167.25 C641.35,168.87 641.61,170.58 641.61,172.39 C641.61,174.85 641.24,177.14 640.51,179.27 C639.78,181.4 638.73,183.25 637.38,184.8 C636.02,186.35 634.35,187.57 632.37,188.45 C630.39,189.33 628.17,189.78 625.71,189.78 C623.86,189.78 622.25,189.59 620.89,189.2 C619.53,188.81 618.34,188.36 617.3,187.84 L615.36,201.86 L605.92,201.86 L611.93,158.94 L620.53,158.94 L620.53,161.2 C621.58,160.6 622.84,160.07 624.32,159.62 Z M620.87,181.21 C621.69,181.32 622.62,181.37 623.65,181.37 C626.28,181.37 628.31,180.69 629.76,179.33 C631.2,177.97 631.93,176.07 631.93,173.61 C631.93,171.89 631.38,170.48 630.28,169.38 C629.18,168.28 627.51,167.73 625.27,167.73 C624.19,167.73 623.23,167.82 622.39,167.99 C621.55,168.16 620.74,168.4 619.97,168.7 L618.35,180.59 C619.21,180.89 620.05,181.1 620.87,181.21 Z" id="Shape" fill-rule="nonzero"></path>
                    <polygon id="Path" points="649.3 178.46 660.87 178.46 650.14 199.53 642.45 199.53"></polygon>
                    <polygon id="Path" points="681.1 143.82 691.18 143.82 686.07 180.47 707.2 180.47 705.97 189.39 674.7 189.39"></polygon>
                    <polygon id="Path" points="709.99 153.06 711.35 143.82 751.36 143.82 750 153.06 735.26 153.06 730.15 189.38 719.94 189.38 725.05 153.06"></polygon>
                    <path d="M758.53,143.82 L764.67,143.82 C769.32,143.82 773.56,144.25 777.37,145.11 C781.18,145.97 784.45,147.27 787.16,148.99 C789.87,150.71 791.96,152.87 793.43,155.45 C794.89,158.04 795.63,161.05 795.63,164.5 C795.63,169.24 794.76,173.2 793.01,176.39 C791.26,179.58 788.86,182.13 785.8,184.05 C782.74,185.97 779.09,187.34 774.84,188.15 C770.6,188.97 766,189.38 761.04,189.38 L752.12,189.38 L758.53,143.82 Z M766.02,180.33 C768.99,180.33 771.66,180.06 774.03,179.52 C776.4,178.98 778.42,178.13 780.11,176.97 C781.8,175.81 783.08,174.3 783.99,172.45 C784.89,170.6 785.35,168.34 785.35,165.66 C785.35,161.57 783.87,158.46 780.92,156.35 C777.97,154.24 773.61,153.18 767.83,153.18 L767.38,153.18 L763.57,180.32 L766.02,180.32 L766.02,180.33 Z" id="Shape" fill-rule="nonzero"></path>
                </g>
                <path d="M219,193.28 C195.82,216.46 163.79,230.8 128.41,230.8 C57.65,230.8 0.29,173.44 0.29,102.68 C0.29,67.3 14.63,35.27 37.81,12.09 L37.84,12.06 C39.44,10.46 41.63,9.54 44.06,9.54 C48.93,9.54 52.88,13.49 52.88,18.36 C52.88,20.8 51.91,23.04 50.31,24.63 C28.73,46.21 15.38,76.03 15.38,108.97 C15.38,174.84 68.78,228.24 134.65,228.24 C167.6,228.25 197.42,214.87 219,193.28 Z" id="Path" stroke="#000000" stroke-width="1.2712" fill="#FFFFFF" stroke-linecap="round" stroke-linejoin="round"></path>
                <path d="M77.91,50.4 C79.01,49.3 79.68,47.75 79.68,46.08 C79.68,42.72 76.96,40 73.6,40 C71.92,40 70.43,40.62 69.33,41.72 L69.29,41.75 C53.31,57.73 43.42,79.81 43.42,104.2 C43.42,152.98 82.96,192.52 131.74,192.52 C156.13,192.52 178.21,182.63 194.19,166.65 L194.19,166.68 C179.31,181.56 158.75,190.76 136.05,190.76 C90.64,190.76 53.82,153.95 53.82,108.53 C53.83,85.84 63.03,65.28 77.91,50.4 Z" id="Path" stroke="#000000" stroke-width="1.2712" fill="#FFFFFF" stroke-linecap="round" stroke-linejoin="round"></path>
                <path d="M169.23,140.26 C160.45,149.04 148.32,154.47 134.91,154.47 C108.11,154.47 86.38,132.74 86.38,105.94 C86.38,92.54 91.81,80.41 100.59,71.62 L100.61,71.6 C101.21,71 102.04,70.66 102.96,70.66 C104.81,70.66 106.3,72.16 106.3,74 C106.3,74.92 105.93,75.76 105.32,76.36 C97.14,84.54 92.09,95.84 92.09,108.32 C92.09,133.27 112.32,153.5 137.27,153.5 C149.76,153.5 161.05,148.43 169.23,140.26 Z" id="Path" stroke="#000000" stroke-width="1.2712" fill="#FFFFFF" stroke-linecap="round" stroke-linejoin="round"></path>
            </g>
        </g>
    </g>
</svg>