<svg xmlns="http://www.w3.org/2000/svg" xmlns:xlink="http://www.w3.org/1999/xlink" viewBox="0 0 16 16"><defs><style>.cls-1{isolation:isolate;}.cls-2{fill:url(#radial-gradient);}.cls-3,.cls-4{mix-blend-mode:overlay;}.cls-4{fill:url(#radial-gradient-2);}</style><radialGradient id="radial-gradient" cx="8" cy="7.95" r="7.97" gradientUnits="userSpaceOnUse"><stop offset="0" stop-color="#fff"/><stop offset="0.95" stop-color="#5b92e5"/></radialGradient><radialGradient id="radial-gradient-2" cx="8.5" cy="7.95" r="6.23" gradientUnits="userSpaceOnUse"><stop offset="0.49" stop-color="#5b92e5"/><stop offset="0.57" stop-color="#5d94e5" stop-opacity="0.98"/><stop offset="0.64" stop-color="#6599e7" stop-opacity="0.94"/><stop offset="0.7" stop-color="#72a1e9" stop-opacity="0.86"/><stop offset="0.77" stop-color="#84adec" stop-opacity="0.75"/><stop offset="0.83" stop-color="#9cbdef" stop-opacity="0.6"/><stop offset="0.89" stop-color="#b9d0f4" stop-opacity="0.43"/><stop offset="0.94" stop-color="#dae6f9" stop-opacity="0.23"/><stop offset="1" stop-color="#fff" stop-opacity="0"/></radialGradient></defs><title>Artboard 1</title><g class="cls-1"><g id="Layer_1" data-name="Layer 1"><path class="cls-2" d="M5.72,4.53A5.27,5.27,0,0,1,7.55,3.3,6.35,6.35,0,0,1,10,2.86a9.47,9.47,0,0,1,2.23.25,9.71,9.71,0,0,1,1.89.65L15.51.67a4.85,4.85,0,0,0-.72-.32A11.82,11.82,0,0,0,13.62,0,13.41,13.41,0,0,0,12-.33a14.26,14.26,0,0,0-1.92-.13A11.05,11.05,0,0,0,6.72.1a9.07,9.07,0,0,0-3.1,1.71,8.91,8.91,0,0,0-2.25,3A9.83,9.83,0,0,0,.49,9.12a8.17,8.17,0,0,0,.56,3.13A6.29,6.29,0,0,0,2.62,14.5,6.84,6.84,0,0,0,5,15.89a9.36,9.36,0,0,0,3,.47,13.35,13.35,0,0,0,1.82-.12,14.38,14.38,0,0,0,1.63-.3,12.5,12.5,0,0,0,1.35-.39,7.87,7.87,0,0,0,1-.41l1-6.8H11.22l-.62,4.54a5.8,5.8,0,0,1-1,.24,8,8,0,0,1-1.36.1,4,4,0,0,1-3-1.11A4.32,4.32,0,0,1,4.15,9a7.42,7.42,0,0,1,.41-2.51A5.18,5.18,0,0,1,5.72,4.53Z"/><path class="cls-3" d="M5.72,4.53A5.27,5.27,0,0,1,7.55,3.3,6.35,6.35,0,0,1,10,2.86a9.47,9.47,0,0,1,2.23.25,9.71,9.71,0,0,1,1.89.65L15.51.67a4.85,4.85,0,0,0-.72-.32A11.82,11.82,0,0,0,13.62,0,13.41,13.41,0,0,0,12-.33a14.26,14.26,0,0,0-1.92-.13A11.05,11.05,0,0,0,6.72.1a9.07,9.07,0,0,0-3.1,1.71,8.91,8.91,0,0,0-2.25,3A9.83,9.83,0,0,0,.49,9.12a8.17,8.17,0,0,0,.56,3.13A6.29,6.29,0,0,0,2.62,14.5,6.84,6.84,0,0,0,5,15.89a9.36,9.36,0,0,0,3,.47,13.35,13.35,0,0,0,1.82-.12,14.38,14.38,0,0,0,1.63-.3,12.5,12.5,0,0,0,1.35-.39,7.87,7.87,0,0,0,1-.41l1-6.8H11.22l-.62,4.54a5.8,5.8,0,0,1-1,.24,8,8,0,0,1-1.36.1,4,4,0,0,1-3-1.11A4.32,4.32,0,0,1,4.15,9a7.42,7.42,0,0,1,.41-2.51A5.18,5.18,0,0,1,5.72,4.53Z"/><path class="cls-4" d="M11.23,8.34l-.62,4.54a5.8,5.8,0,0,1-1,.24,8,8,0,0,1-1.36.1,4,4,0,0,1-3-1.11A4.32,4.32,0,0,1,4.16,9a7.42,7.42,0,0,1,.41-2.51A5.18,5.18,0,0,1,5.73,4.53,5.27,5.27,0,0,1,7.56,3.3,6.35,6.35,0,0,1,10,2.86a9.47,9.47,0,0,1,2.23.25l.36.11A6.17,6.17,0,0,0,8.51,1.71,6.24,6.24,0,1,0,14.6,9.26l.12-.81a.41.41,0,0,1,0-.11Z"/></g></g></svg>